SplineFontDB: 3.0
FontName: UnifrakturCook-Bold
FullName: UnifrakturCook
FamilyName: UnifrakturCook
Weight: Bold
Copyright: Copyright (c) 2010 j. 'mach' wust with Reserved Font Name UnifrakturCook.\nCopyright (c) 2009 Peter Wiegel.\n\nThis Font Software is licensed under the SIL Open Font License, Version 1.1.
Version: 2011-09-01
ItalicAngle: 0
UnderlinePosition: 0
UnderlineWidth: 0
Ascent: 1638
Descent: 410
LayerCount: 2
Layer: 0 1 "Back"  1
Layer: 1 1 "Fore"  0
NeedsXUIDChange: 1
XUID: [1021 288 713564382 8062110]
FSType: 0
OS2Version: 3
OS2_WeightWidthSlopeOnly: 0
OS2_UseTypoMetrics: 1
CreationTime: 1255285536
ModificationTime: 1314877243
PfmFamily: 65
TTFWeight: 700
TTFWidth: 5
LineGap: 0
VLineGap: 0
Panose: 2 1 8 2 7 3 2 2 2 4
OS2TypoAscent: 2110
OS2TypoAOffset: 0
OS2TypoDescent: -570
OS2TypoDOffset: 0
OS2TypoLinegap: 0
OS2WinAscent: 2110
OS2WinAOffset: 0
OS2WinDescent: 570
OS2WinDOffset: 0
HheadAscent: 2110
HheadAOffset: 0
HheadDescent: -570
HheadDOffset: 0
OS2SubXSize: 0
OS2SubYSize: 0
OS2SubXOff: 0
OS2SubYOff: 0
OS2SupXSize: 0
OS2SupYSize: 0
OS2SupXOff: 0
OS2SupYOff: 0
OS2StrikeYSize: 102
OS2StrikeYPos: 512
OS2Vendor: '    '
OS2CodePages: 00000001.00000000
OS2UnicodeRanges: 00000003.00000000.00000000.00000000
Lookup: 258 0 0 "'kern' Horizontal Kerning in Latin lookup 0"  {"'kern' Horizontal Kerning in Latin lookup 0 subtable"  } ['kern' ('latn' <'dflt' > ) ]
MarkAttachClasses: 1
DEI: 91125
TtTable: prep
PUSHW_1
 511
SCANCTRL
PUSHB_1
 4
SCANTYPE
EndTTInstrs
TtTable: fpgm
PUSHW_1
 0
FDEF
MPPEM
PUSHW_1
 8
LT
IF
PUSHB_2
 1
 1
INSTCTRL
EIF
PUSHW_1
 511
SCANCTRL
PUSHW_1
 68
SCVTCI
PUSHW_2
 8
 3
SDS
SDB
ENDF
PUSHW_1
 1
FDEF
DUP
DUP
RCVT
ROUND[Black]
WCVTP
PUSHB_1
 1
ADD
ENDF
PUSHW_1
 2
FDEF
PUSHW_1
 1
LOOPCALL
POP
ENDF
PUSHW_1
 3
FDEF
DUP
GC[cur]
PUSHB_1
 3
CINDEX
GC[cur]
GT
IF
SWAP
EIF
DUP
ROLL
DUP
ROLL
MD[grid]
ABS
ROLL
DUP
GC[cur]
DUP
ROUND[Grey]
SUB
ABS
PUSHB_1
 4
CINDEX
GC[cur]
DUP
ROUND[Grey]
SUB
ABS
GT
IF
SWAP
NEG
ROLL
EIF
MDAP[rnd]
DUP
PUSHB_1
 0
GTEQ
IF

StartChar: .notdef
Encoding: 65536 -1 0
Width: 2027
Flags: HW
LayerCount: 2
Fore
SplineSet
899 1902 m 1,0,-1
 977 1907 l 1,1,2
 1014 1907 1014 1907 1049.5 1894 c 128,-1,3
 1085 1881 1085 1881 1109.5 1881 c 128,-1,4
 1134 1881 1134 1881 1149.5 1883.5 c 128,-1,5
 1165 1886 1165 1886 1176 1899 c 0,6,7
 1202.20665083 1929.97149644 1202.20665083 1929.97149644 1224.10332542 2015.48574822 c 128,-1,8
 1246 2101 1246 2101 1290 2110 c 1,9,-1
 1297 2110 l 2,10,11
 1300.85964912 2110 1300.85964912 2110 1324.92982456 2061 c 128,-1,12
 1349 2012 1349 2012 1364.5 1985.5 c 128,-1,13
 1380 1959 1380 1959 1390 1938 c 0,14,15
 1419 1877.1 1419 1877.1 1419 1844 c 1,16,-1
 1410 1766 l 1,17,18
 1410 1722 1410 1722 1430.5 1679 c 128,-1,19
 1451 1636 1451 1636 1451 1591 c 128,-1,20
 1451 1546 1451 1546 1412 1512 c 1,21,22
 1412 1505 1412 1505 1425.5 1505 c 128,-1,23
 1439 1505 1439 1505 1439 1500 c 1,24,-1
 1402 1500 l 1,25,26
 1390 1495 1390 1495 1380 1485 c 1,27,-1
 1490 1444 l 1,28,29
 1490 1441 1490 1441 1491 1441 c 128,-1,30
 1492 1441 1492 1441 1492 1439 c 1,31,-1
 1490 1436 l 1,32,-1
 1487 1439 l 1,33,34
 1482 1439 1482 1439 1478.5 1441.5 c 128,-1,35
 1475 1444 1475 1444 1472 1439 c 1,36,37
 1470 1439 1470 1439 1468.5 1444 c 128,-1,38
 1467 1449 1467 1449 1463 1449 c 128,-1,39
 1459 1449 1459 1449 1456 1446 c 1,40,-1
 1441 1454 l 1,41,-1
 1436 1454 l 2,42,43
 1421 1454 1421 1454 1403 1464.5 c 128,-1,44
 1385 1475 1385 1475 1369.5 1475 c 128,-1,45
 1354 1475 1354 1475 1344 1467 c 1,46,47
 1336 1457.4 1336 1457.4 1336 1455.7 c 128,-1,48
 1336 1454 1336 1454 1339 1454 c 1,49,-1
 1375 1434 l 1,50,51
 1338.35714286 1443.64285714 1338.35714286 1443.64285714 1331 1451 c 1,52,53
 1326 1449 1326 1449 1314 1447.5 c 128,-1,54
 1302 1446 1302 1446 1292 1438.5 c 0,55,56
 1267 1419.75 1267 1419.75 1267 1369.375 c 128,-1,57
 1267 1319 1267 1319 1295.5 1255.5 c 128,-1,58
 1324 1192 1324 1192 1334 1129 c 1,59,60
 1346.56521739 1075.7826087 1346.56521739 1075.7826087 1346.56521739 1023.38468809 c 1,61,-1
 1343.43478261 950.02362949 l 1,62,63
 1343.43478261 898.782608696 1343.43478261 898.782608696 1356 850 c 1,64,65
 1359 850 1359 850 1380.5 887 c 128,-1,66
 1402 924 1402 924 1429 969 c 0,67,68
 1495.375 1079.625 1495.375 1079.625 1512 1101 c 1,69,70
 1539 1150 1539 1150 1568 1195.5 c 128,-1,71
 1597 1241 1597 1241 1617 1295 c 1,72,-1
 1625 1311 l 1,73,74
 1631 1356 1631 1356 1653.5 1405 c 128,-1,75
 1676 1454 1676 1454 1676 1514.5 c 128,-1,76
 1676 1575 1676 1575 1666 1614.5 c 128,-1,77
 1656 1654 1656 1654 1642.5 1692 c 0,78,79
 1607 1791.92592593 1607 1791.92592593 1607 1836.46296296 c 128,-1,80
 1607 1881 1607 1881 1619 1909 c 128,-1,81
 1631 1937 1631 1937 1671 1974 c 1,82,-1
 1676 1974 l 2,83,84
 1682 1974 1682 1974 1697 1979 c 1,85,-1
 1761 1964 l 1,86,87
 1850.82051282 1900.25641026 1850.82051282 1900.25641026 1878.5 1706.5 c 0,88,89
 1886 1654 1886 1654 1886 1610 c 0,90,91
 1886 1368.92783505 1886 1368.92783505 1690 1082 c 1,92,93
 1690 1080 1690 1080 1682 1077 c 1,94,95
 1666 1055 1666 1055 1639 1020 c 128,-1,96
 1612 985 1612 985 1586.5 949.5 c 0,97,98
 1526 865.274509804 1526 865.274509804 1526 842 c 1,99,100
 1454 740.206896552 1454 740.206896552 1454 674 c 1,101,102
 1456 671 1456 671 1461.5 671 c 128,-1,103
 1467 671 1467 671 1472 675 c 128,-1,104
 1477 679 1477 679 1490 679 c 1,105,106
 1556 704 1556 704 1611 704 c 128,-1,107
 1666 704 1666 704 1695 676 c 1,108,-1
 1736 625 l 1,109,110
 1790 519.7 1790 519.7 1790 451.85 c 128,-1,111
 1790 384 1790 384 1741 342 c 128,-1,112
 1692 300 1692 300 1629 273 c 128,-1,113
 1566 246 1566 246 1507.5 231.5 c 128,-1,114
 1449 217 1449 217 1431 212 c 1,115,116
 1387 210 1387 210 1338.5 198.5 c 128,-1,117
 1290 187 1290 187 1262 181 c 1,118,119
 1255 166 1255 166 1256 146.5 c 128,-1,120
 1257 127 1257 127 1229 122 c 1,121,-1
 1216 125 l 1,122,123
 1195 105 1195 105 1147 105 c 1,124,-1
 1116 112 l 1,125,-1
 1109 110 l 1,126,-1
 1106 110 l 1,127,-1
 1070 130 l 1,128,-1
 1057 156 l 1,129,-1
 1014 156 l 1,130,-1
 996 110 l 1,131,132
 985 105 985 105 976 105 c 128,-1,133
 967 105 967 105 947 110 c 1,134,-1
 942 92 l 1,135,136
 937 87 937 87 932.166666667 87 c 128,-1,137
 927.333333333 87 927.333333333 87 919 82 c 1,138,-1
 884 107 l 1,139,-1
 881 102 l 1,140,-1
 877 102 l 1,141,-1
 877 107 l 1,142,143
 872 105 872 105 871 102.5 c 128,-1,144
 870 100 870 100 867.5 97.5 c 128,-1,145
 865 95 865 95 865 92 c 1,146,-1
 860 92 l 1,147,148
 830 110.461538462 830 110.461538462 830 161 c 1,149,150
 814 169 814 169 793 167.5 c 128,-1,151
 772 166 772 166 755 171 c 1,152,-1
 699 179 l 1,153,154
 652.75 179 652.75 179 596.375 195.5 c 128,-1,155
 540 212 540 212 535 217 c 1,156,157
 420 246 420 246 363.5 268.5 c 128,-1,158
 307 291 307 291 271 291 c 2,159,-1
 212 291 l 1,160,-1
 195 297 l 1,161,-1
 120 284 l 1,162,163
 154 249 154 249 156.5 220.5 c 128,-1,164
 159 192 159 192 149 174 c 1,165,-1
 97 151 l 1,166,167
 88.25 136 88.25 136 85 136 c 1,168,169
 85 132 85 132 66 115 c 1,170,-1
 36 110 l 1,171,-1
 29 117 l 1,172,-1
 -20 139 l 1,173,174
 -29 139 -29 139 -29 122 c 2,175,-1
 -29 117 l 2,176,177
 -29 115 -29 115 -25 115 c 1,178,-1
 34 87 l 1,179,180
 39 76 39 76 39 67.3214285714 c 128,-1,181
 39 58.6428571429 39 58.6428571429 20 41 c 1,182,183
 17 41 17 41 2 36 c 1,184,-1
 -10 36 l 1,185,-1
 -34 46 l 1,186,-1
 -59 74 l 1,187,-1
 -74 61 l 1,188,189
 -74 49 -74 49 -61.5 44 c 128,-1,190
 -49 39 -49 39 -33.5 32 c 128,-1,191
 -18 25 -18 25 -5.5 17.5 c 128,-1,192
 7 10 7 10 7 -2.5 c 128,-1,193
 7 -15 7 -15 2 -25 c 1,194,-1
 2 -31 l 1,195,196
 17 -41 17 -41 35.5 -43.5 c 128,-1,197
 54 -46 54 -46 54 -73 c 128,-1,198
 54 -100 54 -100 41.5 -107.5 c 128,-1,199
 29 -115 29 -115 10 -115 c 1,200,-1
 -44 -110 l 1,201,-1
 -49 -113 l 1,202,203
 -51 -113 -51 -113 -51 -115 c 2,204,-1
 0 -213 l 1,205,-1
 -5 -223 l 1,206,207
 -26.4117647059 -223 -26.4117647059 -223 -55 -142 c 0,208,209
 -61 -125 -61 -125 -61 -117.5 c 128,-1,210
 -61 -110 -61 -110 -60 -106.5 c 128,-1,211
 -59 -103 -59 -103 -61 -100 c 1,212,-1
 -74 -100 l 1,213,214
 -76 -103 -76 -103 -76 -111.5 c 2,215,-1
 -76 -129.5 l 2,216,217
 -76 -139 -76 -139 -74 -151 c 1,218,-1
 -39 -208 l 1,219,-1
 -44 -218 l 1,220,-1
 -51 -218 l 1,221,222
 -61 -193 -61 -193 -78 -168.5 c 128,-1,223
 -95 -144 -95 -144 -95 -110 c 1,224,225
 -88 -103 -88 -103 -88 -98 c 128,-1,226
 -88 -93 -88 -93 -106.5 -69.5 c 128,-1,227
 -125 -46 -125 -46 -125 -27 c 128,-1,228
 -125 -8 -125 -8 -105 22 c 1,229,230
 -110 39 -110 39 -110 60.5 c 128,-1,231
 -110 82 -110 82 -89.5 96 c 128,-1,232
 -69 110 -69 110 -66.5 123 c 128,-1,233
 -64 136 -64 136 -52.5 155 c 2,234,-1
 2 237 l 1,235,-1
 10 259 l 1,236,-1
 29 271 l 1,237,-1
 36 271 l 1,238,-1
 64 312 l 1,239,-1
 120 330 l 1,240,-1
 161 330 l 1,241,-1
 212 351 l 1,242,-1
 317 374 l 1,243,244
 320 376 320 376 320 379 c 0,245,246
 291 464 291 464 291 525 c 128,-1,247
 291 586 291 586 310.5 614 c 128,-1,248
 330 642 330 642 364 676 c 1,249,-1
 405 704 l 1,250,-1
 415 706 l 1,251,-1
 435 714 l 1,252,-1
 432 714 l 1,253,-1
 435 714 l 2,254,255
 437 714 437 714 442 716 c 1,256,257
 531.163806552 702.887675507 531.163806552 702.887675507 601 655 c 1,258,259
 604.705882353 655 604.705882353 655 622.352941176 700 c 0,260,261
 656.363636364 786.727272727 656.363636364 786.727272727 673.681818182 818.363636364 c 128,-1,262
 691 850 691 850 700 900 c 128,-1,263
 709 950 709 950 715.5 1003.5 c 128,-1,264
 722 1057 722 1057 728.5 1111 c 128,-1,265
 735 1165 735 1165 757 1216 c 1,266,267
 762 1265 762 1265 784 1312 c 128,-1,268
 806 1359 806 1359 806 1405 c 1,269,-1
 804 1429 l 1,270,-1
 765 1451 l 1,271,-1
 722 1439 l 1,272,-1
 709 1441 l 1,273,274
 681 1434 681 1434 661.5 1417 c 128,-1,275
 642 1400 642 1400 625.5 1400 c 128,-1,276
 609 1400 609 1400 606.5 1401 c 128,-1,277
 604 1402 604 1402 601 1402 c 1,278,-1
 735 1461 l 1,279,-1
 696 1492 l 1,280,281
 694 1492 694 1492 672 1482 c 128,-1,282
 650 1472 650 1472 647 1472 c 1,283,284
 655 1480 655 1480 691 1497 c 1,285,286
 669 1521 669 1521 649.5 1545 c 128,-1,287
 630 1569 630 1569 630 1605 c 256,288,289
 630 1641 630 1641 645 1671.5 c 128,-1,290
 660 1702 660 1702 660 1738.875 c 128,-1,291
 660 1775.75 660 1775.75 642 1859 c 1,292,293
 642 1899.59459459 642 1899.59459459 676.5 1965.7972973 c 0,294,295
 738.098591549 2084 738.098591549 2084 747 2084 c 2,296,-1
 760 2084 l 2,297,298
 767 2084 767 2084 776.5 2059.5 c 128,-1,299
 786 2035 786 2035 797.5 2005.5 c 0,300,301
 827.897084048 1927.52487136 827.897084048 1927.52487136 842.448542024 1917.26243568 c 0,302,303
 864.089670734 1902 864.089670734 1902 899 1902 c 1,0,-1
872 1477 m 1,304,305
 872 1464 872 1464 922 1464 c 0,306,307
 1034 1464 1034 1464 1034 1505 c 0,308,309
 1034 1517 1034 1517 1008 1538 c 128,-1,310
 982 1559 982 1559 979.5 1567 c 128,-1,311
 977 1575 977 1575 982 1585 c 1,312,-1
 982 1590 l 1,313,314
 1009 1597 1009 1597 1062 1597 c 1,315,316
 1104 1587 1104 1587 1109 1571 c 1,317,-1
 1109 1566 l 1,318,-1
 1052 1510 l 1,319,-1
 1052 1495 l 1,320,321
 1055 1485 1055 1485 1062 1485 c 1,322,-1
 1090 1477 l 2,323,324
 1104 1472 1104 1472 1115 1468 c 128,-1,325
 1126 1464 1126 1464 1158 1464 c 128,-1,326
 1190 1464 1190 1464 1216 1482 c 1,327,-1
 1092 1502 l 1,328,-1
 1077 1517 l 1,329,330
 1080 1534 1080 1534 1090 1536 c 1,331,332
 1092 1534 1092 1534 1101.5 1534 c 2,333,-1
 1118.5 1534 l 2,334,335
 1126 1534 1126 1534 1161.5 1535 c 128,-1,336
 1197 1536 1197 1536 1255.5 1530 c 128,-1,337
 1314 1524 1314 1524 1372 1521 c 1,338,339
 1385 1541 1385 1541 1402 1558 c 128,-1,340
 1419 1575 1419 1575 1419 1596 c 128,-1,341
 1419 1617 1419 1617 1408 1638 c 128,-1,342
 1397 1659 1397 1659 1383.5 1679.5 c 0,343,344
 1349 1731.88888889 1349 1731.88888889 1349 1755.44444444 c 128,-1,345
 1349 1779 1349 1779 1364.5 1799.5 c 128,-1,346
 1380 1820 1380 1820 1380 1857.5 c 128,-1,347
 1380 1895 1380 1895 1355.5 1938 c 128,-1,348
 1331 1981 1331 1981 1325 2004 c 128,-1,349
 1319 2027 1319 2027 1316.5 2037 c 128,-1,350
 1314 2047 1314 2047 1309.5 2060.5 c 0,351,352
 1298.33333333 2094 1298.33333333 2094 1295 2094 c 0,353,354
 1276.03225806 2094 1276.03225806 2094 1266.51612903 2064.5 c 128,-1,355
 1257 2035 1257 2035 1253 2023.5 c 128,-1,356
 1249 2012 1249 2012 1250 2008.5 c 128,-1,357
 1251 2005 1251 2005 1251 1989.5 c 2,358,-1
 1251 1917 l 2,359,360
 1251 1871 1251 1871 1262 1837 c 1,361,362
 1260 1832 1260 1832 1255 1827 c 1,363,364
 1233.26415094 1853.26415094 1233.26415094 1853.26415094 1233.26415094 1890.19117124 c 1,365,-1
 1234.33333333 1925.33333333 l 2,366,367
 1234.33333333 1952 1234.33333333 1952 1231 1976 c 1,368,369
 1219 1935 1219 1935 1200.5 1894.5 c 128,-1,370
 1182 1854 1182 1854 1140.5 1854 c 128,-1,371
 1099 1854 1099 1854 1062.5 1866.5 c 128,-1,372
 1026 1879 1026 1879 991 1879 c 1,373,-1
 911 1871 l 1,374,375
 832 1871 832 1871 799 1935 c 1,376,377
 794 1932 794 1932 801.5 1910.5 c 128,-1,378
 809 1889 809 1889 809 1832 c 1,379,380
 796.714285714 1801.28571429 796.714285714 1801.28571429 786 1812 c 1,381,-1
 786 1861 l 2,382,383
 786 1898.55555556 786 1898.55555556 778 1928.77777778 c 0,384,385
 762 1989.22222222 762 1989.22222222 762 2012 c 1,386,387
 767 2012 767 2012 770 2015 c 1,388,-1
 765 2059 l 2,389,390
 765 2061 765 2061 757 2069 c 1,391,-1
 750 2064 l 1,392,-1
 752 2066 l 1,393,394
 741.588235294 2066 741.588235294 2066 677 1883 c 2,395,-1
 665 1849 l 1,396,397
 665 1815 665 1815 687 1790.5 c 128,-1,398
 709 1766 709 1766 709 1740.5 c 128,-1,399
 709 1715 709 1715 704 1698.5 c 128,-1,400
 699 1682 699 1682 691.5 1669 c 0,401,402
 674 1638.66666667 674 1638.66666667 674 1621.83333333 c 128,-1,403
 674 1605 674 1605 681.5 1574.5 c 128,-1,404
 689 1544 689 1544 701 1544 c 1,405,-1
 719 1546 l 1,406,-1
 719 1541 l 1,407,-1
 704 1539 l 1,408,-1
 714 1512 l 1,409,-1
 727 1507 l 1,410,-1
 891 1541 l 1,411,-1
 757 1539 l 1,412,413
 757 1541 757 1541 758.5 1542.5 c 128,-1,414
 760 1544 760 1544 755 1549 c 1,415,-1
 757 1551 l 1,416,-1
 799 1554 l 1,417,418
 801 1556 801 1556 809 1556 c 2,419,-1
 884 1556 l 2,420,421
 955 1556 955 1556 955 1541 c 0,422,423
 955 1539 955 1539 950 1539 c 2,424,-1
 957 1539 l 2,425,426
 967 1539 967 1539 977 1536 c 1,427,428
 977 1524 977 1524 972 1517 c 1,429,-1
 962 1517 l 1,430,431
 955 1502 955 1502 955 1500 c 1,432,-1
 957 1500 l 1,433,434
 942 1485 942 1485 916.5 1485 c 128,-1,435
 891 1485 891 1485 872 1477 c 1,304,305
-69 -15 m 1,436,-1
 -74 -15 l 2,437,438
 -71 -15 -71 -15 -71 -39 c 1,439,-1
 -61 -46 l 1,440,441
 -54 -44 -54 -44 -44 -34 c 1,442,-1
 -69 -15 l 1,436,-1
-90 2 m 1,443,-1
 -103 2 l 1,444,445
 -108 -3 -108 -3 -108 -29.5 c 128,-1,446
 -108 -56 -108 -56 -69.5 -78 c 128,-1,447
 -31 -100 -31 -100 12 -100 c 2,448,-1
 25 -100 l 1,449,-1
 39 -88 l 1,450,451
 39 -64 39 -64 31 -59 c 1,452,-1
 7 -51 l 1,453,454
 -13 -51 -13 -51 -23 -49 c 1,455,-1
 -49 -56 l 1,456,457
 -49 -59 -49 -59 -50 -59 c 128,-1,458
 -51 -59 -51 -59 -51 -61.5 c 128,-1,459
 -51 -64 -51 -64 -44 -64 c 1,460,-1
 -13 -59 l 1,461,-1
 7 -61 l 1,462,-1
 12 -71 l 1,463,464
 12 -74 12 -74 15 -74 c 1,465,466
 5 -85 5 -85 -10 -88 c 1,467,468
 -93 -76.4722222222 -93 -76.4722222222 -93 -23 c 0,469,470
 -93 -8 -93 -8 -88 0 c 1,471,-1
 -90 2 l 1,443,-1
-69 95 m 1,472,-1
 -71 97 l 1,473,474
 -74 97 -74 97 -83.5 84 c 128,-1,475
 -93 71 -93 71 -93 59 c 0,476,477
 -93 17 -93 17 -62 1 c 128,-1,478
 -31 -15 -31 -15 -20.5 -15 c 128,-1,479
 -10 -15 -10 -15 -10 -9 c 128,-1,480
 -10 -3 -10 -3 -20.5 13 c 128,-1,481
 -31 29 -31 29 -40 29 c 128,-1,482
 -49 29 -49 29 -49 22 c 1,483,-1
 -36 15 l 1,484,-1
 -29 0 l 1,485,486
 -29 -3 -29 -3 -39 -0.5 c 128,-1,487
 -49 2 -49 2 -67 18 c 128,-1,488
 -85 34 -85 34 -85 51.5 c 128,-1,489
 -85 69 -85 69 -75.5 77 c 128,-1,490
 -66 85 -66 85 -66 88.5 c 128,-1,491
 -66 92 -66 92 -67.5 92 c 128,-1,492
 -69 92 -69 92 -69 95 c 1,472,-1
-3 54 m 2,493,-1
 12 56 l 1,494,-1
 17 54 l 1,495,-1
 22 69 l 1,496,-1
 5 87 l 1,497,-1
 -23 95 l 1,498,-1
 7 69 l 1,499,-1
 5 66 l 1,500,-1
 7 64 l 1,501,502
 5 64 5 64 5 62.5 c 128,-1,503
 5 61 5 61 2.5 61 c 128,-1,504
 0 61 0 61 0 65 c 128,-1,505
 0 69 0 69 -5 69 c 2,506,-1
 -13 69 l 1,507,508
 -29 71 -29 71 -44 122 c 1,509,-1
 -34 156 l 1,510,-1
 -44 151 l 1,511,-1
 -54 110 l 1,512,513
 -49 100 -49 100 -49 97 c 2,514,-1
 -49 95 l 1,515,-1
 -36 79 l 1,516,517
 -34 71 -34 71 -29 61 c 1,518,-1
 -10 59 l 1,519,520
 -5 54 -5 54 -3 54 c 2,493,-1
-10 179 m 1,521,-1
 -13 179 l 1,522,523
 -13 176 -13 176 -14 176 c 128,-1,524
 -15 176 -15 176 -15 168.5 c 128,-1,525
 -15 161 -15 161 8 143 c 128,-1,526
 31 125 31 125 56 125 c 1,527,528
 56 122 56 122 54 122 c 1,529,-1
 54 132 l 1,530,-1
 12 154 l 1,531,-1
 -10 179 l 1,521,-1
2 210 m 1,532,533
 0 207 0 207 0 202 c 1,534,535
 10 179 10 179 28 165 c 128,-1,536
 46 151 46 151 56 151 c 128,-1,537
 66 151 66 151 69 154 c 1,538,-1
 17 184 l 1,539,-1
 2 210 l 1,532,533
95 230 m 1,540,-1
 95 222 l 1,541,542
 97 225 97 225 100 225 c 1,543,544
 92 227 92 227 92 230 c 1,545,-1
 95 230 l 1,540,-1
36 254 m 1,546,-1
 34 256 l 1,547,-1
 22 251 l 1,548,549
 20 244 20 244 20 228 c 128,-1,550
 20 212 20 212 29.5 202 c 128,-1,551
 39 192 39 192 82 171 c 1,552,553
 92 174 92 174 100 174 c 1,554,-1
 64 192 l 1,555,556
 39 217 39 217 39 254 c 1,557,-1
 36 254 l 1,546,-1
112 195 m 1,558,559
 105.833333333 195 105.833333333 195 82 217 c 1,560,-1
 76 217 l 2,561,562
 74 217 74 217 74 220 c 1,563,-1
 71 217 l 1,564,-1
 74 217 l 1,565,566
 66 227 66 227 66 249 c 128,-1,567
 66 271 66 271 79 284 c 128,-1,568
 92 297 92 297 111 302 c 128,-1,569
 130 307 130 307 149.5 308.5 c 128,-1,570
 169 310 169 310 184 315 c 1,571,-1
 192 315 l 2,572,573
 200 315 200 315 200 320 c 2,574,-1
 200 322 l 1,575,-1
 192 322 l 1,576,577
 171 312 171 312 146.5 312 c 128,-1,578
 122 312 122 312 103.5 309.5 c 0,579,580
 59 303.486486486 59 303.486486486 59 246 c 0,581,582
 59 209.714285714 59 209.714285714 90 192 c 1,583,-1
 120 181 l 1,584,585
 140.689655172 186.172413793 140.689655172 186.172413793 144 195 c 1,586,587
 144 230 144 230 128 248 c 128,-1,588
 112 266 112 266 101 268.5 c 128,-1,589
 90 271 90 271 90 265 c 128,-1,590
 90 259 90 259 102.5 250 c 128,-1,591
 115 241 115 241 127 220 c 1,592,593
 127 215 127 215 117 197 c 1,594,-1
 112 195 l 1,558,559
999 320 m 1,595,-1
 991 237 l 1,596,597
 991 207 991 207 1006 192 c 1,598,-1
 1047 197 l 1,599,600
 1062 259 1062 259 1062 284.5 c 2,601,-1
 1062 317.5 l 2,602,603
 1062 325 1062 325 1055 325 c 2,604,-1
 999 320 l 1,595,-1
310 345 m 1,605,-1
 232 337 l 1,606,607
 220 332 220 332 220 324.5 c 128,-1,608
 220 317 220 317 222 315 c 1,609,-1
 337 312 l 1,610,-1
 320 345 l 1,611,-1
 310 345 l 1,605,-1
789 374 m 1,612,-1
 784 374 l 1,613,614
 781 371 781 371 781 369 c 1,615,616
 784 369 784 369 784 367.5 c 128,-1,617
 784 366 784 366 786 366 c 1,618,-1
 786 369 l 1,619,620
 789 371 789 371 789 374 c 1,612,-1
752 376 m 1,621,622
 748.947368421 383.631578947 748.947368421 383.631578947 740 389 c 1,623,624
 735 379 735 379 735 377.5 c 0,625,626
 735 374 735 374 742.5 374 c 128,-1,627
 750 374 750 374 752 376 c 1,621,622
1287 405 m 1,628,629
 1270 402 1270 402 1270 389 c 1,630,-1
 1275 389 l 2,631,632
 1282 389 1282 389 1295 402 c 1,633,634
 1287 402 1287 402 1287 405 c 1,628,629
669 584 m 1,635,636
 657.3 571 657.3 571 652 571 c 2,637,-1
 642 571 l 2,638,639
 637 571 637 571 637 569 c 1,640,-1
 701 550 l 1,641,-1
 669 584 l 1,635,636
1727 586 m 1,642,-1
 1725 550 l 1,643,644
 1615.50491803 514.295081967 1615.50491803 514.295081967 1538.25245902 499.147540984 c 128,-1,645
 1461 484 1461 484 1451 481.5 c 0,646,647
 1429 476 1429 476 1407 476 c 128,-1,648
 1385 476 1385 476 1377 479 c 1,649,650
 1375 476 1375 476 1375 474 c 2,651,-1
 1410 399 l 1,652,653
 1407 394 1407 394 1402 394 c 256,654,655
 1398.07692308 394 1398.07692308 394 1391.53846154 404.5 c 128,-1,656
 1385 415 1385 415 1382 415 c 1,657,658
 1311.04989154 363.151843818 1311.04989154 363.151843818 1255 359 c 1,659,660
 1239 327 1239 327 1237.5 294 c 128,-1,661
 1236 261 1236 261 1234 230 c 1,662,663
 1236 217 1236 217 1251 212 c 1,664,665
 1537.88778573 267.837220042 1537.88778573 267.837220042 1591.94389287 296.418610021 c 128,-1,666
 1646 325 1646 325 1668 355.5 c 128,-1,667
 1690 386 1690 386 1725 435 c 1,668,669
 1741 476 1741 476 1741 514 c 128,-1,670
 1741 552 1741 552 1727 586 c 1,642,-1
652 596 m 1,671,672
 650 596 650 596 642 604 c 1,673,674
 635 589 635 589 635 586 c 1,675,-1
 640 586 l 1,676,677
 650 589 650 589 652 596 c 1,671,672
351 606 m 1,678,-1
 345 606 l 1,679,680
 330 555 330 555 330 527 c 128,-1,681
 330 499 330 499 333.5 463 c 128,-1,682
 337 427 337 427 344 390.5 c 0,683,684
 361.356164384 300 361.356164384 300 374 300 c 1,685,686
 662.636363636 200 662.636363636 200 811 200 c 0,687,688
 835 200 835 200 847 202 c 1,689,690
 847 312 847 312 819 340 c 1,691,692
 809 335 809 335 794 335 c 2,693,-1
 742 335 l 2,694,695
 699 335 699 335 689 320 c 128,-1,696
 679 305 679 305 665 291 c 1,697,698
 647 297 647 297 647 296 c 2,699,-1
 647 300 l 1,700,-1
 719 447 l 1,701,702
 669 466 669 466 626.5 477.5 c 128,-1,703
 584 489 584 489 541.5 503 c 0,704,705
 446.692307692 534.230769231 446.692307692 534.230769231 351 606 c 1,678,-1
599 584 m 1,706,707
 613 574 613 574 617.5 574 c 0,708,709
 625 574 625 574 625 589 c 1,710,-1
 615 604 l 1,711,-1
 622 620 l 1,712,-1
 625 620 l 1,713,714
 622 622 622 622 621 622 c 128,-1,715
 620 622 620 622 617 625 c 1,716,717
 611.352941176 622.176470588 611.352941176 622.176470588 604 606 c 1,718,-1
 606 594 l 1,719,-1
 606 589 l 1,720,721
 601 576 601 576 599 576 c 1,722,-1
 599 584 l 1,706,707
1526 637 m 1,723,-1
 1512 630 l 257,724,725
 1507 630 1507 630 1507 633.5 c 128,-1,726
 1507 637 1507 637 1505 637 c 1,727,728
 1497 630 1497 630 1497 625 c 256,729,730
 1497 620 1497 620 1502 620 c 1,731,-1
 1534 632 l 1,732,-1
 1529 635 l 1,733,734
 1526 635 1526 635 1526 637 c 1,723,-1
1464 652 m 1,735,-1
 1439 640 l 1,736,-1
 1375 594 l 1,737,738
 1380 589 1380 589 1391 589 c 128,-1,739
 1402 589 1402 589 1436 597.5 c 128,-1,740
 1470 606 1470 606 1487 620 c 1,741,-1
 1480 627 l 1,742,-1
 1470 622 l 1,743,-1
 1459 635 l 1,744,-1
 1470 652 l 1,745,-1
 1464 652 l 1,735,-1
550 615 m 128,-1,747
 550 620.833333333 550 620.833333333 561 630 c 1,748,-1
 561 640 l 2,749,750
 561 657 561 657 563.5 657 c 128,-1,751
 566 657 566 657 566 655 c 1,752,-1
 555 660 l 1,753,754
 550.846153846 648.923076923 550.846153846 648.923076923 537 642 c 1,755,-1
 540 630 l 1,756,-1
 527 617 l 1,757,-1
 589 586 l 1,758,-1
 584 596 l 1,759,760
 584 609 584 609 586.5 607.5 c 128,-1,761
 589 606 589 606 594 611 c 1,762,-1
 594 640 l 1,763,-1
 586 640 l 1,764,765
 586 627 586 627 574 627 c 1,766,-1
 574 609 l 1,767,-1
 564 604 l 1,768,746
 550 609 550 609 550 615 c 128,-1,747
1661 665 m 1,769,-1
 1641 652 l 1,770,771
 1623.6122449 649.102040816 1623.6122449 649.102040816 1605.30612245 639.551020408 c 0,772,773
 1558.69230769 615.230769231 1558.69230769 615.230769231 1510 599 c 1,774,775
 1480 594 1480 594 1446 584 c 128,-1,776
 1412 574 1412 574 1385 569 c 1,777,778
 1380 571 1380 571 1373.5 568.5 c 128,-1,779
 1367 566 1367 566 1367 564 c 2,780,-1
 1367 527 l 2,781,782
 1367 504 1367 504 1377 500 c 128,-1,783
 1387 496 1387 496 1419 496 c 128,-1,784
 1451 496 1451 496 1510 513 c 128,-1,785
 1569 530 1569 530 1601.5 547 c 128,-1,786
 1634 564 1634 564 1660.5 575 c 128,-1,787
 1687 586 1687 586 1707 606 c 1,788,-1
 1707 615 l 1,789,790
 1690 645 1690 645 1661 665 c 1,769,-1
525 676 m 1,791,-1
 520 679 l 1,792,-1
 517 665 l 1,793,-1
 504 657 l 1,794,795
 501 642 501 642 496 637 c 1,796,-1
 507 627 l 1,797,798
 507 620 507 620 510 620 c 1,799,800
 510 622 510 622 512 625 c 2,801,-1
 530 674 l 2,802,803
 530 676 530 676 525 676 c 1,791,-1
410 679 m 1,804,-1
 371 650 l 1,805,-1
 364 637 l 1,806,807
 359 632 359 632 359 630 c 1,808,-1
 410 586 l 1,809,810
 430 581 430 581 459.5 565.5 c 128,-1,811
 489 550 489 550 527.5 531 c 0,812,813
 626.949868074 481.920844327 626.949868074 481.920844327 722 474 c 1,814,-1
 727 496 l 2,815,816
 727 499 727 499 730 501 c 1,817,818
 730 512 730 512 719 525 c 1,819,-1
 669 532 l 1,820,-1
 652 542 l 1,821,822
 601 550 601 550 569 572 c 128,-1,823
 537 594 537 594 512 599 c 1,824,825
 486 615 486 615 460.5 627.5 c 128,-1,826
 435 640 435 640 417 662 c 1,827,-1
 415 676 l 1,828,829
 412 679 412 679 410 679 c 1,804,-1
469 681 m 1,830,-1
 479 681 l 2,831,832
 481 681 481 681 482.5 676 c 0,833,834
 485.8 665 485.8 665 471 665 c 0,835,836
 464 665 464 665 464 674 c 1,837,-1
 469 681 l 1,830,-1
1544 640 m 1,838,-1
 1556 637 l 1,839,840
 1577 647 1577 647 1603 658 c 128,-1,841
 1629 669 1629 669 1644 684 c 1,842,-1
 1587 684 l 1,843,-1
 1544 681 l 1,844,845
 1539 665 1539 665 1534 665 c 1,846,847
 1536 657.817541634 1536 657.817541634 1536 656.408770817 c 128,-1,848
 1536 655 1536 655 1534 655 c 1,849,-1
 1544 669 l 1,850,851
 1544 671 1544 671 1546 671 c 2,852,-1
 1554 671 l 1,853,854
 1556 665 1556 665 1556 658.5 c 128,-1,855
 1556 652 1556 652 1550 647 c 128,-1,856
 1544 642 1544 642 1544 637 c 2,857,-1
 1544 640 l 1,838,-1
480 645 m 128,-1,859
 479 645 479 645 479 655 c 128,-1,860
 479 665 479 665 494 686 c 1,861,862
 496 686 496 686 499 684 c 1,863,-1
 447 694 l 1,864,865
 435 689 435 689 433.5 687.5 c 128,-1,866
 432 686 432 686 432 681 c 256,867,868
 432 676 432 676 437 671 c 1,869,-1
 466 650 l 1,870,-1
 479 642 l 1,871,-1
 481 642 l 1,872,858
 481 645 481 645 480 645 c 128,-1,859
1339 804 m 1,873,-1
 1267 422 l 1,874,-1
 1309 422 l 1,875,-1
 1321 430 l 1,876,-1
 1356 435 l 1,877,878
 1356 450 1356 450 1345 462 c 128,-1,879
 1334 474 1334 474 1334 510.5 c 128,-1,880
 1334 547 1334 547 1340 570.5 c 128,-1,881
 1346 594 1346 594 1355.5 607 c 128,-1,882
 1365 620 1365 620 1378.5 628.5 c 128,-1,883
 1392 637 1392 637 1407 650 c 1,884,-1
 1392 691 l 1,885,-1
 1339 804 l 1,873,-1
719 837 m 1,886,-1
 714 837 l 1,887,888
 688.85915493 810.183098592 688.85915493 810.183098592 667.929577465 763.091549296 c 0,889,890
 635 689 635 689 635 663 c 128,-1,891
 635 637 635 637 654.5 620.5 c 128,-1,892
 674 604 674 604 696.5 582.5 c 0,893,894
 757 524.688888889 757 524.688888889 757 480.844444444 c 128,-1,895
 757 437 757 437 747 410 c 1,896,897
 750 399 750 399 760 399 c 2,898,-1
 816 396 l 1,899,900
 800.17989418 441.878306878 800.17989418 441.878306878 793.08994709 495.939153439 c 0,901,902
 780.660332542 590.714964371 780.660332542 590.714964371 757.830166271 642.357482185 c 128,-1,903
 735 694 735 694 719 837 c 1,886,-1
1106 584 m 1,904,-1
 1109 374 l 2,905,906
 1109 312 1109 312 1099.5 281.5 c 128,-1,907
 1090 251 1090 251 1085 212 c 1,908,909
 1096 187 1096 187 1091.5 168 c 128,-1,910
 1087 149 1087 149 1109 127 c 1,911,-1
 1114 127 l 1,912,-1
 1116 159 l 1,913,-1
 1126 164 l 1,914,-1
 1136 146 l 1,915,-1
 1141 146 l 1,916,917
 1147 151 1147 151 1147 162.5 c 128,-1,918
 1147 174 1147 174 1134 205 c 0,919,920
 1134 207 1134 207 1139 212 c 1,921,922
 1152 212 1152 212 1159.5 191.5 c 128,-1,923
 1167 171 1167 171 1167 160 c 128,-1,924
 1167 149 1167 149 1159.5 138 c 128,-1,925
 1152 127 1152 127 1152 120 c 1,926,-1
 1172 122 l 1,927,928
 1177 127 1177 127 1177 132 c 2,929,-1
 1177 139 l 1,930,-1
 1175 136 l 1,931,-1
 1185 141 l 1,932,933
 1187 139 1187 139 1195 139 c 1,934,935
 1209 151 1209 151 1209 169 c 128,-1,936
 1209 187 1209 187 1195.5 192 c 128,-1,937
 1182 197 1182 197 1182 202 c 128,-1,938
 1182 207 1182 207 1182 212 c 128,-1,939
 1182 217 1182 217 1189.5 214.5 c 0,940,941
 1207.5 208.5 1207.5 208.5 1211 205 c 1,942,-1
 1229 159 l 1,943,-1
 1239 156 l 1,944,945
 1244 166 1244 166 1244 175 c 128,-1,946
 1244 184 1244 184 1231 205 c 1,947,-1
 1197 217 l 1,948,949
 1190 241 1190 241 1190 270.5 c 0,950,951
 1190 312.846153846 1190 312.846153846 1224 407 c 1,952,953
 1300 679 1300 679 1300 907.5 c 128,-1,954
 1300 1136 1300 1136 1260 1319 c 1,955,956
 1249 1341 1249 1341 1249 1416 c 1,957,958
 1226.13215259 1391.60762943 1226.13215259 1391.60762943 1055 1351 c 1,959,960
 1034 1356 1034 1356 1016.5 1356 c 128,-1,961
 999 1356 999 1356 977 1365 c 1,962,963
 940 1367 940 1367 903.5 1382 c 128,-1,964
 867 1397 867 1397 840 1407 c 1,965,-1
 840 1390 l 2,966,967
 840 1354.5 840 1354.5 809 1277 c 1,968,969
 762 1139.76 762 1139.76 762 1015.38 c 0,970,971
 762 854.647058824 762 854.647058824 806 601 c 1,972,973
 837 494 837 494 846 394.5 c 128,-1,974
 855 295 855 295 870 192 c 1,975,976
 867 184 867 184 859.5 179 c 128,-1,977
 852 174 852 174 850 169 c 1,978,-1
 847 149 l 2,979,980
 847 146 847 146 852 146 c 1,981,-1
 852 149 l 1,982,-1
 855 149 l 1,983,984
 857 151 857 151 860 151 c 1,985,986
 865 146 865 146 867 141 c 1,987,-1
 862 122 l 1,988,-1
 870 122 l 1,989,-1
 889 190 l 1,990,-1
 899 195 l 1,991,992
 904 190 904 190 906.5 191 c 128,-1,993
 909 192 909 192 909 184 c 1,994,-1
 899 132 l 1,995,996
 899 115 899 115 904 110 c 1,997,998
 904 125 904 125 909 125 c 1,999,1000
 919 120 919 120 920 112.5 c 128,-1,1001
 921 105 921 105 926 105 c 128,-1,1002
 931 105 931 105 937 110 c 1,1003,1004
 935 122 935 122 927 135.5 c 128,-1,1005
 919 149 919 149 919 162.5 c 128,-1,1006
 919 176 919 176 926 176 c 256,1007,1008
 931 176 931 176 941.5 149 c 128,-1,1009
 952 122 952 122 965 117 c 1,1010,-1
 972 120 l 1,1011,-1
 972 117 l 1,1012,-1
 965 151 l 1,1013,1014
 967 154 967 154 972 154 c 1,1015,1016
 972 151 972 151 985 139 c 1,1017,1018
 989 139 989 139 989 135.5 c 128,-1,1019
 989 132 989 132 991 132 c 1,1020,-1
 991 139 l 1,1021,-1
 989 139 l 1,1022,-1
 996 169 l 1,1023,1024
 996 179 996 179 982 192 c 1,1025,-1
 980 192 l 2,1026,1027
 977 192 977 192 975 195 c 1,1028,-1
 960 207 l 1,1029,1030
 955 220 955 220 955 234.5 c 2,1031,-1
 955 261 l 2,1032,1033
 955 327 955 327 972 404 c 128,-1,1034
 989 481 989 481 989 559 c 128,-1,1035
 989 637 989 637 982 709 c 128,-1,1036
 975 781 975 781 970 847 c 0,1037,1038
 970 860 970 860 980.5 860 c 128,-1,1039
 991 860 991 860 1001 825.5 c 128,-1,1040
 1011 791 1011 791 1017.5 745 c 0,1041,1042
 1031 649.461538462 1031 649.461538462 1031 568.307692308 c 128,-1,1043
 1031 487.153846154 1031 487.153846154 1001 351 c 1,1044,1045
 1016 345 1016 345 1031.5 345 c 128,-1,1046
 1047 345 1047 345 1067 359 c 1,1047,-1
 1070 396 l 2,1048,1049
 1075 461 1075 461 1075 491 c 2,1050,-1
 1072 637 l 1,1051,1052
 1072 713.6 1072 713.6 1093 787.8 c 128,-1,1053
 1114 862 1114 862 1121 862 c 1,1054,1055
 1126 857 1126 857 1126 844.5 c 128,-1,1056
 1126 832 1126 832 1119 809 c 1,1057,1058
 1106 716.375 1106 716.375 1106 584 c 1,904,-1
1039 1467 m 1,1059,1060
 1019 1459 1019 1459 1014 1454 c 1,1061,-1
 1052 1459 l 1,1062,-1
 1042 1467 l 1,1063,-1
 1039 1467 l 1,1059,1060
980 1441 m 1,1064,1065
 967 1436 967 1436 929.857142857 1436 c 128,-1,1066
 892.714285714 1436 892.714285714 1436 832 1470 c 1,1067,-1
 796 1467 l 1,1068,1069
 794 1459 794 1459 794 1455 c 128,-1,1070
 794 1451 794 1451 827 1438.5 c 128,-1,1071
 860 1426 860 1426 903.5 1414 c 0,1072,1073
 1008.625 1385 1008.625 1385 1036.1345339 1384.57627119 c 128,-1,1074
 1063.6440678 1384.15254237 1063.6440678 1384.15254237 1089.48305085 1384.15254237 c 128,-1,1075
 1115.3220339 1384.15254237 1115.3220339 1384.15254237 1165.66101695 1406.57627119 c 128,-1,1076
 1216 1429 1216 1429 1241 1444 c 2,1077,-1
 1275 1464 l 1,1078,1079
 1270 1467 1270 1467 1266 1465.5 c 128,-1,1080
 1262 1464 1262 1464 1257 1470 c 1,1081,1082
 1224 1464 1224 1464 1194.5 1450 c 128,-1,1083
 1165 1436 1165 1436 1134 1436 c 1,1084,-1
 1090 1446 l 1,1085,1086
 1077 1446 1077 1446 1061 1436 c 128,-1,1087
 1045 1426 1045 1426 1022 1426 c 128,-1,1088
 999 1426 999 1426 980 1441 c 1,1064,1065
1472 1497 m 1,1089,-1
 1554 1485 l 1,1090,-1
 1467 1492 l 1,1091,-1
 1461 1502 l 257,1092,-1
 1472 1497 l 1,1089,-1
899 1517 m 1,1093,1094
 881 1512 881 1512 854 1509.5 c 128,-1,1095
 827 1507 827 1507 803 1504.5 c 0,1096,1097
 740.420560748 1497.98130841 740.420560748 1497.98130841 737 1490 c 1,1098,-1
 755 1475 l 1,1099,-1
 765 1472 l 1,1100,-1
 921 1515 l 1,1101,-1
 899 1517 l 1,1093,1094
732 1549 m 1,1102,-1
 747 1546 l 1,1103,-1
 747 1541 l 1,1104,-1
 727 1546 l 1,1105,-1
 732 1549 l 1,1102,-1
1036 1580 m 1,1106,-1
 1001 1575 l 1,1107,-1
 999 1571 l 2,1108,1109
 999 1569 999 1569 1001 1569 c 2,1110,-1
 1034 1559 l 2,1111,1112
 1036 1559 1036 1559 1036 1560 c 128,-1,1113
 1036 1561 1036 1561 1039 1561 c 256,1114,1115
 1042 1561 1042 1561 1042 1560 c 128,-1,1116
 1042 1559 1042 1559 1045 1559 c 1,1117,-1
 1055 1536 l 1,1118,1119
 1060 1556 1060 1556 1063.5 1560 c 128,-1,1120
 1067 1564 1067 1564 1077 1564 c 2,1121,-1
 1082 1564 l 1,1122,1123
 1082 1566 1082 1566 1083.5 1566 c 128,-1,1124
 1085 1566 1085 1566 1085 1569 c 2,1125,-1
 1085 1571 l 1,1126,-1
 1036 1580 l 1,1106,-1
960 1602 m 1,1127,1128
 928.8 1590 928.8 1590 919 1590 c 0,1129,1130
 877 1590 877 1590 845 1622 c 1,1131,-1
 821 1661 l 1,1132,-1
 819 1666 l 1,1133,-1
 799 1674 l 1,1134,1135
 796 1674 796 1674 796 1679 c 2,1136,-1
 796 1682 l 2,1137,1138
 796 1685 796 1685 799 1687 c 1,1139,-1
 875 1692 l 2,1140,1141
 878.709090909 1692.32727273 878.709090909 1692.32727273 895.927272727 1692.32727273 c 128,-1,1142
 913.145454545 1692.32727273 913.145454545 1692.32727273 949.072727273 1669.16363636 c 128,-1,1143
 985 1646 985 1646 985 1618 c 128,-1,1144
 985 1590 985 1590 978.5 1590 c 128,-1,1145
 972 1590 972 1590 969.5 1596 c 128,-1,1146
 967 1602 967 1602 960 1602 c 1,1127,1128
904 1749 m 1,1147,-1
 914 1812 l 1,1148,-1
 919 1761 l 1,1149,-1
 921 1759 l 1,1150,-1
 924 1761 l 1,1151,-1
 957 1837 l 1,1152,-1
 960 1837 l 1,1153,-1
 926 1725 l 1,1154,-1
 911 1725 l 2,1155,1156
 909 1725 909 1725 909 1727 c 1,1157,-1
 906 1730 l 1,1158,-1
 894 1727 l 2,1159,1160
 891 1727 891 1727 889 1730 c 1,1161,-1
 872 1830 l 1,1162,1163
 886.583333333 1806.66666667 886.583333333 1806.66666667 891.291666667 1787.83333333 c 0,1164,1165
 901 1749 901 1749 904 1749 c 1,1147,-1
1204 1702 m 1,1166,-1
 1236 1700 l 2,1167,1168
 1251 1700 1251 1700 1272 1707 c 1,1169,-1
 1282 1705 l 1,1170,-1
 1282 1695 l 2,1171,1172
 1282 1690 1282 1690 1272 1687 c 1,1173,1174
 1231 1595 1231 1595 1180 1595 c 0,1175,1176
 1174.33333333 1595 1174.33333333 1595 1131 1605 c 1,1177,1178
 1126 1605 1126 1605 1126 1596 c 128,-1,1179
 1126 1587 1126 1587 1121 1587 c 0,1180,1181
 1106 1587 1106 1587 1106 1611.5 c 128,-1,1182
 1106 1636 1106 1636 1134 1663 c 128,-1,1183
 1162 1690 1162 1690 1204 1702 c 1,1166,-1
1236 1795 m 1,1184,-1
 1219 1741 l 1,1185,1186
 1214 1739 1214 1739 1211 1739 c 0,1187,1188
 1209 1739 1209 1739 1209 1736 c 1,1189,-1
 1234 1795 l 1,1190,-1
 1236 1795 l 1,1184,-1
1190 1805 m 1,1191,-1
 1190 1741 l 1,1192,1193
 1185 1739 1185 1739 1181 1739 c 128,-1,1194
 1177 1739 1177 1739 1177 1736 c 2,1195,-1
 1177 1732 l 1,1196,-1
 1182 1736 l 1,1197,1198
 1182 1732 1182 1732 1177 1744 c 1,1199,-1
 1187 1805 l 1,1200,-1
 1190 1805 l 1,1191,-1
1155 1810 m 1,1201,-1
 1170 1732 l 2,1202,1203
 1170 1727 1170 1727 1162 1727 c 1,1204,1205
 1152 1749 1152 1749 1152 1769.5 c 2,1206,-1
 1152 1810 l 1,1207,-1
 1155 1810 l 1,1201,-1
899 1615 m 1,1208,-1
 896 1631 l 1,1209,1210
 896 1651 896 1651 906 1661 c 1,1211,-1
 852 1666 l 1,1212,-1
 850 1666 l 1,1213,-1
 850 1664 l 2,1214,1215
 850 1649 850 1649 872 1625 c 1,1216,-1
 899 1615 l 1,1208,-1
1707 1964 m 1,1217,1218
 1671 1951 1671 1951 1658.5 1931.5 c 128,-1,1219
 1646 1912 1646 1912 1646 1888 c 128,-1,1220
 1646 1864 1646 1864 1654 1841 c 1,1221,1222
 1720 1712 1720 1712 1720 1602 c 128,-1,1223
 1720 1492 1720 1492 1694.5 1410.5 c 128,-1,1224
 1669 1329 1669 1329 1629.5 1253 c 0,1225,1226
 1578.89705032 1155.63736264 1578.89705032 1155.63736264 1454 982 c 1,1227,1228
 1434 942 1434 942 1408 904.5 c 128,-1,1229
 1382 867 1382 867 1372 816 c 1,1230,1231
 1375 809 1375 809 1382.5 787 c 128,-1,1232
 1390 765 1390 765 1400 742 c 0,1233,1234
 1425.2173913 684 1425.2173913 684 1434 684 c 1,1235,-1
 1436 686 l 1,1236,1237
 1444 740 1444 740 1469.5 780.5 c 128,-1,1238
 1495 821 1495 821 1515 870 c 1,1239,1240
 1546 924 1546 924 1581.5 987 c 128,-1,1241
 1617 1050 1617 1050 1676.5 1138 c 128,-1,1242
 1736 1226 1736 1226 1786.5 1350.5 c 128,-1,1243
 1837 1475 1837 1475 1837 1644 c 0,1244,1245
 1837 1859 1837 1859 1754 1942 c 0,1246,1247
 1751 1945 1751 1945 1751 1949 c 1,1248,1249
 1751 1945 1751 1945 1754 1942 c 1,1250,1251
 1732 1964 1732 1964 1712 1964 c 2,1252,-1
 1707 1964 l 1,1217,1218
914 1607 m 1,1253,-1
 926 1605 l 1,1254,1255
 937 1605 937 1605 957 1615 c 1,1256,1257
 952 1622 952 1622 924 1656 c 1,1258,-1
 921 1656 l 1,1259,1260
 924 1651 924 1651 924 1644 c 1,1261,-1
 914 1607 l 1,1253,-1
1165 1610 m 1,1262,-1
 1175 1612 l 1,1263,-1
 1180 1612 l 1,1264,1265
 1170 1631 1170 1631 1170 1645 c 128,-1,1266
 1170 1659 1170 1659 1172 1664 c 1,1267,1268
 1141 1648.5 1141 1648.5 1141 1620 c 2,1269,-1
 1141 1617 l 1,1270,-1
 1165 1610 l 1,1262,-1
1209 1682 m 1,1271,1272
 1204 1676 1204 1676 1198.66666667 1676 c 128,-1,1273
 1193.33333333 1676 1193.33333333 1676 1185 1671 c 1,1274,1275
 1185 1666 1185 1666 1192 1664 c 1,1276,-1
 1197 1615 l 1,1277,1278
 1234.27272727 1639.84848485 1234.27272727 1639.84848485 1244 1682 c 1,1279,-1
 1209 1682 l 1,1271,1272
1239 1495 m 1,1280,-1
 1295 1475 l 1,1281,1282
 1311 1477 1311 1477 1311 1485 c 1,1283,-1
 1239 1495 l 1,1280,-1
1287 1510 m 1,1284,-1
 1336 1495 l 1,1285,-1
 1339 1497 l 1,1286,1287
 1341 1497 1341 1497 1341 1498.5 c 128,-1,1288
 1341 1500 1341 1500 1344 1500 c 1,1289,1290
 1344 1505 1344 1505 1341 1507 c 1,1291,-1
 1287 1510 l 1,1284,-1
EndSplineSet
EndChar

StartChar: exclam
Encoding: 33 33 4
Width: 454
Flags: HW
LayerCount: 2
Fore
SplineSet
230 442 m 1,0,-1
 436 237 l 1,1,-1
 230 31 l 1,2,-1
 24 237 l 1,3,-1
 230 442 l 1,0,-1
12 1347 m 1,4,-1
 354 1637 l 1,5,-1
 322 637 l 1,6,-1
 142 476 l 1,7,8
 142 756 142 756 123.5 998 c 128,-1,9
 105 1240 105 1240 12 1347 c 1,4,-1
EndSplineSet
EndChar

StartChar: quotedbl
Encoding: 34 34 5
Width: 582
Flags: HW
LayerCount: 2
Fore
SplineSet
250 889 m 1,0,1
 342.290322581 1045.42427556 342.290322581 1045.42427556 342.290322581 1183.97242456 c 0,2,3
 342.290322581 1254.38709677 342.290322581 1254.38709677 319 1331 c 1,4,-1
 564 1490 l 1,5,6
 532.875826598 1168.38354151 532.875826598 1168.38354151 304 880 c 1,7,-1
 250 889 l 1,0,1
17 934 m 1,8,9
 108.615384615 1094.72874494 108.615384615 1094.72874494 108.615384615 1228.40236686 c 0,10,11
 108.615384615 1299.07692308 108.615384615 1299.07692308 84 1376 c 1,12,-1
 330 1534 l 1,13,14
 312 1349 312 1349 239.5 1200 c 128,-1,15
 167 1051 167 1051 69 924 c 1,16,-1
 17 934 l 1,8,9
EndSplineSet
EndChar

StartChar: numbersign
Encoding: 35 35 6
Width: 1106
Flags: HW
LayerCount: 2
Fore
SplineSet
725 444 m 1,0,-1
 680 78 l 1,1,-1
 565 78 l 1,2,-1
 610 444 l 1,3,-1
 430 444 l 1,4,-1
 387 78 l 1,5,-1
 272 78 l 1,6,-1
 317 444 l 1,7,-1
 123 444 l 1,8,-1
 139 573 l 1,9,-1
 332 573 l 1,10,-1
 354 774 l 1,11,-1
 164 774 l 1,12,-1
 180 905 l 1,13,-1
 371 905 l 1,14,-1
 412 1239 l 1,15,-1
 524 1239 l 1,16,-1
 483 905 l 1,17,-1
 666 905 l 1,18,-1
 705 1239 l 1,19,-1
 819 1239 l 1,20,-1
 778 905 l 1,21,-1
 981 905 l 1,22,-1
 969 774 l 1,23,-1
 762 774 l 1,24,-1
 739 573 l 1,25,-1
 944 573 l 1,26,-1
 928 444 l 1,27,-1
 725 444 l 1,0,-1
649 774 m 1,28,-1
 469 774 l 1,29,-1
 446 573 l 1,30,-1
 625 573 l 1,31,-1
 649 774 l 1,28,-1
EndSplineSet
EndChar

StartChar: dollar
Encoding: 36 36 7
Width: 928
Flags: HW
LayerCount: 2
Fore
SplineSet
668 1010 m 1,0,1
 592.157894737 1141 592.157894737 1141 483 1141 c 0,2,3
 466 1141 466 1141 434.5 1133.5 c 128,-1,4
 403 1126 403 1126 369.5 1097.5 c 128,-1,5
 336 1069 336 1069 336 1018 c 128,-1,6
 336 967 336 967 366.5 935 c 128,-1,7
 397 903 397 903 420.5 888.5 c 128,-1,8
 444 874 444 874 457.5 866 c 128,-1,9
 471 858 471 858 481 852 c 2,10,-1
 668 733 l 1,11,12
 758 678 758 678 815 596 c 128,-1,13
 872 514 872 514 872 403.5 c 0,14,15
 872 188.234375 872 188.234375 737 68 c 1,16,17
 685.158844765 17.8868832732 685.158844765 17.8868832732 592 -6 c 0,18,19
 586 -8 586 -8 579.5 -10 c 128,-1,20
 573 -12 573 -12 567 -14 c 1,21,-1
 567 -178 l 1,22,-1
 424 -178 l 1,23,-1
 424 -16 l 1,24,25
 295 4 295 4 209 72.5 c 128,-1,26
 123 141 123 141 53 270 c 1,27,-1
 236 399 l 1,28,29
 283 313 283 313 339 268 c 128,-1,30
 395 223 395 223 485 223 c 0,31,32
 554.538461538 223 554.538461538 223 603.769230769 263 c 128,-1,33
 653 303 653 303 653 359.5 c 128,-1,34
 653 416 653 416 625.5 445.5 c 128,-1,35
 598 475 598 475 578.5 487.5 c 128,-1,36
 559 500 559 500 556 502 c 128,-1,37
 553 504 553 504 549 506 c 2,38,-1
 373 608 l 1,39,40
 266 672 266 672 191.5 761 c 128,-1,41
 117 850 117 850 117 1004 c 0,42,43
 117 1106 117 1106 166 1194 c 128,-1,44
 215 1282 215 1282 291 1329 c 1,45,46
 336.895277207 1360.09034908 336.895277207 1360.09034908 424 1380 c 1,47,-1
 424 1538 l 1,48,-1
 567 1538 l 1,49,-1
 567 1380 l 1,50,51
 659 1348 659 1348 730 1292.5 c 128,-1,52
 801 1237 801 1237 848 1135 c 1,53,-1
 668 1010 l 1,0,1
EndSplineSet
EndChar

StartChar: percent
Encoding: 37 37 8
Width: 1581
Flags: HW
LayerCount: 2
Fore
SplineSet
309 1333 m 0,0,1
 337.231404959 1358.91735537 337.231404959 1358.91735537 371.202479339 1358.91735537 c 128,-1,2
 405.173553719 1358.91735537 405.173553719 1358.91735537 446 1324 c 0,3,4
 696.983546618 1102.71297989 696.983546618 1102.71297989 696.983546618 891.061525556 c 0,5,6
 696.983546618 662.903062906 696.983546618 662.903062906 441 430 c 0,7,8
 398.5 392.5 398.5 392.5 359 392.5 c 128,-1,9
 319.5 392.5 319.5 392.5 283 430 c 0,10,11
 62.8186695279 656.013948498 62.8186695279 656.013948498 62.8186695279 881.952253219 c 128,-1,12
 62.8186695279 1107.89055794 62.8186695279 1107.89055794 309 1333 c 0,0,1
223 1129 m 0,13,14
 178.727659574 1099.91914894 178.727659574 1099.91914894 178.727659574 1028.65744681 c 128,-1,15
 178.727659574 957.395744681 178.727659574 957.395744681 254 821 c 0,16,17
 353.508305648 639.086378738 353.508305648 639.086378738 437.303142349 639.086378738 c 0,18,19
 461.295681063 639.086378738 461.295681063 639.086378738 484 654 c 0,20,21
 529.532188841 683.618025751 529.532188841 683.618025751 529.532188841 755.577253219 c 128,-1,22
 529.532188841 827.536480687 529.532188841 827.536480687 457 962 c 1,23,24
 356.409836066 1144.60983607 356.409836066 1144.60983607 271.386412255 1144.60983607 c 0,25,26
 246.527868852 1144.60983607 246.527868852 1144.60983607 223 1129 c 0,13,14
362 -70 m 2,27,28
 341.619047619 -70 341.619047619 -70 341.619047619 -49.2494331066 c 0,29,30
 341.619047619 -44.2380952381 341.619047619 -44.2380952381 344 -39 c 2,31,-1
 1093 1415 l 1,32,33
 1097 1425 1097 1425 1110 1425 c 2,34,-1
 1181 1425 l 2,35,36
 1194 1425 1194 1425 1200 1415.5 c 128,-1,37
 1206 1406 1206 1406 1200 1397 c 1,38,-1
 454 -59 l 1,39,40
 449.6 -70 449.6 -70 438 -70 c 2,41,-1
 362 -70 l 2,27,28
1118 942 m 0,42,43
 1146.23140496 967.917355372 1146.23140496 967.917355372 1180.20247934 967.917355372 c 128,-1,44
 1214.17355372 967.917355372 1214.17355372 967.917355372 1255 933 c 0,45,46
 1505.98354662 711.71297989 1505.98354662 711.71297989 1505.98354662 500.061525556 c 0,47,48
 1505.98354662 271.903062906 1505.98354662 271.903062906 1250 39 c 0,49,50
 1207.5 1.5 1207.5 1.5 1168 1.5 c 128,-1,51
 1128.5 1.5 1128.5 1.5 1092 39 c 0,52,53
 871.818669528 265.013948498 871.818669528 265.013948498 871.818669528 490.952253219 c 128,-1,54
 871.818669528 716.89055794 871.818669528 716.89055794 1118 942 c 0,42,43
1032 738 m 0,55,56
 987.727659574 708.919148936 987.727659574 708.919148936 987.727659574 637.657446809 c 128,-1,57
 987.727659574 566.395744681 987.727659574 566.395744681 1063 430 c 0,58,59
 1162.50830565 248.086378738 1162.50830565 248.086378738 1246.30314235 248.086378738 c 0,60,61
 1270.29568106 248.086378738 1270.29568106 248.086378738 1293 263 c 0,62,63
 1338.53218884 292.618025751 1338.53218884 292.618025751 1338.53218884 364.577253219 c 128,-1,64
 1338.53218884 436.536480687 1338.53218884 436.536480687 1266 571 c 1,65,66
 1165.40983607 753.609836066 1165.40983607 753.609836066 1080.38641225 753.609836066 c 0,67,68
 1055.52786885 753.609836066 1055.52786885 753.609836066 1032 738 c 0,55,56
EndSplineSet
EndChar

StartChar: ampersand
Encoding: 38 38 9
Width: 1065
Flags: HW
LayerCount: 2
Fore
SplineSet
725 434 m 1,0,1
 772.903225806 529.806451613 772.903225806 529.806451613 801 653 c 1,2,-1
 987 604 l 1,3,4
 956.613958561 448.271537623 956.613958561 448.271537623 881 295 c 1,5,6
 963.368290669 244.455821635 963.368290669 244.455821635 1053 236 c 1,7,-1
 1040 -6 l 1,8,9
 912.718274112 2.12436548223 912.718274112 2.12436548223 819 53 c 0,10,11
 784 72 784 72 739 100 c 1,12,13
 603.3 -18 603.3 -18 448.15 -18 c 128,-1,14
 293 -18 293 -18 175 82 c 256,15,16
 57 182 57 182 57 367 c 0,17,18
 57 524.424657534 57 524.424657534 187.5 658.5 c 0,19,20
 224 696 224 696 262 729 c 1,21,22
 189.975282106 887.951101558 189.975282106 887.951101558 184 997 c 1,23,-1
 184 1004 l 1,24,25
 186.137916401 1145.1024825 186.137916401 1145.1024825 261.5 1253.5 c 0,26,27
 343.885714286 1372 343.885714286 1372 465 1372 c 128,-1,28
 586.21686747 1372 586.21686747 1372 669.5 1284.5 c 0,29,30
 756 1193.62025316 756 1193.62025316 756 1055 c 0,31,32
 756 841.833333333 756 841.833333333 545 666 c 1,33,34
 644.272727273 514.727272727 644.272727273 514.727272727 725 434 c 1,0,1
584 242 m 1,35,36
 475.5 366 475.5 366 354 537 c 1,37,38
 285 474.9 285 474.9 285 391 c 0,39,40
 285 310.823529412 285 310.823529412 341.5 251 c 0,41,42
 396.277777778 193 396.277777778 193 465 193 c 0,43,44
 521 193 521 193 584 242 c 1,35,36
446 852 m 1,45,46
 509.386934673 892.748743719 509.386934673 892.748743719 530.693467337 925.374371859 c 0,47,48
 569 984.03125 569 984.03125 569 1061 c 0,49,50
 569 1139.45454545 569 1139.45454545 515.5 1173.5 c 0,51,52
 499 1184 499 1184 477.5 1184 c 128,-1,53
 456 1184 456 1184 438 1172.5 c 128,-1,54
 420 1161 420 1161 407 1143 c 0,55,56
 381.291044776 1107.40298507 381.291044776 1107.40298507 379 1057 c 1,57,-1
 379 1051 l 2,58,59
 379 959.678571429 379 959.678571429 446 852 c 1,45,46
EndSplineSet
EndChar

StartChar: quotesingle
Encoding: 39 39 10
Width: 346
Flags: HW
LayerCount: 2
Fore
SplineSet
7 1512 m 1,0,-1
 255 1677 l 1,1,2
 277.264900662 1578.98013245 277.264900662 1578.98013245 277.264900662 1483.83553353 c 0,3,4
 277.264900662 1228.56953642 277.264900662 1228.56953642 117 994 c 1,5,6
 128.111111111 1089 128.111111111 1089 128.111111111 1165.47222222 c 0,7,8
 128.111111111 1241.94444444 128.111111111 1241.94444444 121 1303.5 c 0,9,10
 105 1442 105 1442 7 1512 c 1,0,-1
EndSplineSet
EndChar

StartChar: parenleft
Encoding: 40 40 11
Width: 562
Flags: HW
LayerCount: 2
Fore
SplineSet
20 1296 m 1,0,-1
 510 1619 l 1,1,-1
 550 1562 l 1,2,3
 422 1466 422 1466 358 1187.5 c 0,4,5
 287.379310345 880.189655172 287.379310345 880.189655172 287.379310345 586.094827586 c 128,-1,6
 287.379310345 292 287.379310345 292 336.689655172 72 c 128,-1,7
 386 -148 386 -148 495 -151 c 1,8,9
 438.612334802 -320.162995595 438.612334802 -320.162995595 357.384288459 -320.162995595 c 0,10,11
 323.370044053 -320.162995595 323.370044053 -320.162995595 285 -290.5 c 0,12,13
 155 -190 155 -190 85 179 c 1,14,15
 47 372 47 372 39 654.5 c 128,-1,16
 31 937 31 937 20 1296 c 1,0,-1
EndSplineSet
EndChar

StartChar: parenright
Encoding: 41 41 12
Width: 610
Flags: HW
LayerCount: 2
Fore
SplineSet
16 1367 m 1,0,-1
 250 1637 l 1,1,2
 479 1581 479 1581 534.50877193 1345.0877193 c 128,-1,3
 590.01754386 1109.1754386 590.01754386 1109.1754386 590.01754386 877.281317328 c 0,4,5
 590.01754386 613.290535255 590.01754386 613.290535255 511.00877193 280.145267628 c 128,-1,6
 432 -53 432 -53 151 -386 c 1,7,-1
 77 -320 l 1,8,9
 294 -38 294 -38 325 224 c 0,10,11
 345.020833333 393.208333333 345.020833333 393.208333333 345.020833333 513.552083333 c 128,-1,12
 345.020833333 633.895833333 345.020833333 633.895833333 334.510416667 765.447916667 c 128,-1,13
 324 897 324 897 296.5 1110.5 c 128,-1,14
 269 1324 269 1324 16 1367 c 1,0,-1
EndSplineSet
EndChar

StartChar: asterisk
Encoding: 42 42 13
Width: 1099
Flags: HW
LayerCount: 2
Fore
SplineSet
9 614 m 1,0,-1
 269 897 l 1,1,-1
 504 680 l 1,2,-1
 247 424 l 1,3,4
 149 507 149 507 9 614 c 1,0,-1
309 940 m 1,5,-1
 614 1272 l 1,6,7
 627 1195 627 1195 678.5 1120 c 128,-1,8
 730 1045 730 1045 797 971 c 1,9,-1
 546 721 l 1,10,-1
 309 940 l 1,5,-1
839 929 m 1,11,12
 902 860 902 860 968.5 792 c 128,-1,13
 1035 724 1035 724 1087 656 c 1,14,-1
 877 416 l 1,15,-1
 589 681 l 1,16,-1
 839 929 l 1,11,12
539.125 37.1944444444 m 0,17,18
 539.125 165.420353982 539.125 165.420353982 291 385 c 1,19,-1
 547 640 l 1,20,-1
 839 372 l 1,21,-1
 539 31 l 1,22,23
 539.125 34.0833333333 539.125 34.0833333333 539.125 37.1944444444 c 0,17,18
EndSplineSet
EndChar

StartChar: plus
Encoding: 43 43 14
Width: 1275
Flags: HW
LayerCount: 2
Fore
SplineSet
311 861 m 1,0,1
 313.798076923 770.528846154 313.798076923 770.528846154 361.831730769 770.528846154 c 0,2,3
 365.298076923 770.528846154 365.298076923 770.528846154 369 771 c 2,4,-1
 486 771 l 1,5,-1
 486 887 l 2,6,7
 486.75 891.416666667 486.75 891.416666667 486.75 895.506944444 c 0,8,9
 486.75 940.5 486.75 940.5 396 946 c 1,10,-1
 792 1294 l 1,11,-1
 787 771 l 1,12,-1
 1267 771 l 1,13,-1
 957 347 l 1,14,15
 958.020408163 359.653061224 958.020408163 359.653061224 958.020408163 370.994169096 c 0,16,17
 958.020408163 469.031746032 958.020408163 469.031746032 881.768959436 469.031746032 c 0,18,19
 880.396825397 469.031746032 880.396825397 469.031746032 879 469 c 2,20,-1
 785 469 l 1,21,-1
 785 375 l 2,22,23
 784.727272727 370.909090909 784.727272727 370.909090909 784.727272727 367.024793388 c 0,24,25
 784.727272727 294 784.727272727 294 881.12 294 c 0,26,27
 892.4 294 892.4 294 905 295 c 1,28,-1
 479 -14 l 1,29,-1
 484 469 l 1,30,-1
 7 469 l 1,31,-1
 311 861 l 1,0,1
EndSplineSet
EndChar

StartChar: comma
Encoding: 44 44 15
Width: 502
Flags: HW
LayerCount: 2
Fore
SplineSet
234 545 m 1,0,-1
 500 140 l 1,1,-1
 15 -510 l 1,2,-1
 234 545 l 1,0,-1
EndSplineSet
EndChar

StartChar: hyphen
Encoding: 45 45 16
Width: 850
Flags: HW
LayerCount: 2
Fore
SplineSet
840 831 m 1,0,1
 713 609.925925926 713 609.925925926 625 460 c 1,2,3
 559.4 461.28 559.4 461.28 461.06 461.28 c 128,-1,4
 362.72 461.28 362.72 461.28 241 455.5 c 0,5,6
 62 447 62 447 25 377 c 1,7,8
 70 490 70 490 115 602 c 128,-1,9
 160 714 160 714 205 826 c 1,10,11
 213.785714286 745.952380952 213.785714286 745.952380952 286.41893424 745.952380952 c 0,12,13
 288.19047619 745.952380952 288.19047619 745.952380952 290 746 c 2,14,-1
 669 756 l 2,15,16
 754 759 754 759 840 831 c 1,0,1
EndSplineSet
EndChar

StartChar: period
Encoding: 46 46 17
Width: 505
Flags: HW
LayerCount: 2
Fore
SplineSet
252 511 m 1,0,-1
 492 271 l 1,1,-1
 252 31 l 1,2,-1
 12 271 l 1,3,-1
 252 511 l 1,0,-1
EndSplineSet
EndChar

StartChar: slash
Encoding: 47 47 18
Width: 1400
Flags: HW
LayerCount: 2
Fore
SplineSet
2 22 m 1,0,-1
 116 524 l 1,1,2
 566.886307118 601.405374612 566.886307118 601.405374612 1349 1542 c 1,3,-1
 1397 1520 l 1,4,5
 859.146126986 652.925962721 859.146126986 652.925962721 2 22 c 1,0,-1
EndSplineSet
EndChar

StartChar: zero
Encoding: 48 48 19
Width: 1035
Flags: HW
LayerCount: 2
Fore
SplineSet
409 1454 m 0,0,1
 452.232432432 1493.97837838 452.232432432 1493.97837838 503.613513514 1493.97837838 c 128,-1,2
 554.994594595 1493.97837838 554.994594595 1493.97837838 616 1441 c 0,3,4
 997.237063779 1105.74127557 997.237063779 1105.74127557 997.237063779 784.704391068 c 0,5,6
 997.237063779 438.511936124 997.237063779 438.511936124 609 87 c 0,7,8
 544.5 29.5 544.5 29.5 484.5 29.5 c 128,-1,9
 424.5 29.5 424.5 29.5 369 87 c 0,10,11
 36.2163120567 429.014184397 36.2163120567 429.014184397 36.2163120567 771.054964539 c 128,-1,12
 36.2163120567 1113.09574468 36.2163120567 1113.09574468 409 1454 c 0,0,1
279 1146 m 0,13,14
 211.703081232 1101.71428571 211.703081232 1101.71428571 211.703081232 993.620448179 c 128,-1,15
 211.703081232 885.526610644 211.703081232 885.526610644 326 679 c 1,16,17
 476.700218818 403.234135667 476.700218818 403.234135667 603.263381678 403.234135667 c 0,18,19
 639.628008753 403.234135667 639.628008753 403.234135667 674 426 c 0,20,21
 743.629943503 470.793785311 743.629943503 470.793785311 743.629943503 579.836158192 c 128,-1,22
 743.629943503 688.878531073 743.629943503 688.878531073 634 892 c 1,23,24
 481.346320346 1169.41125541 481.346320346 1169.41125541 352.110473942 1169.41125541 c 0,25,26
 314.567099567 1169.41125541 314.567099567 1169.41125541 279 1146 c 0,13,14
EndSplineSet
EndChar

StartChar: one
Encoding: 49 49 20
Width: 736
Flags: HW
LayerCount: 2
Fore
SplineSet
700 1500 m 1,0,-1
 687 119 l 1,1,2
 470.377645306 112.123099851 470.377645306 112.123099851 201 -18 c 1,3,-1
 142 64 l 1,4,5
 300 79 300 79 360 359 c 0,6,7
 396.734693878 530.428571429 396.734693878 530.428571429 396.734693878 727.06122449 c 128,-1,8
 396.734693878 923.693877551 396.734693878 923.693877551 382 1104 c 1,9,-1
 16 1107 l 1,10,-1
 1 1190 l 1,11,12
 389 1266 389 1266 700 1500 c 1,0,-1
EndSplineSet
EndChar

StartChar: two
Encoding: 50 50 21
Width: 1096
Flags: HW
LayerCount: 2
Fore
SplineSet
1012 472 m 1,0,-1
 935 31 l 1,1,2
 723.227848101 62.0126582278 723.227848101 62.0126582278 520.484697965 62.0126582278 c 0,3,4
 283.607594937 62.0126582278 283.607594937 62.0126582278 20 31 c 1,5,6
 144 146 144 146 263 265 c 128,-1,7
 382 384 382 384 495 531 c 0,8,9
 655.147058824 740.647058824 655.147058824 740.647058824 655.147058824 884.351211073 c 0,10,11
 655.147058824 1036.16675661 655.147058824 1036.16675661 432 1159 c 0,12,13
 400.446428571 1176.16071429 400.446428571 1176.16071429 377.897321429 1176.16071429 c 128,-1,14
 355.348214286 1176.16071429 355.348214286 1176.16071429 337.178172184 1163.36490999 c 128,-1,15
 319.008130081 1150.56910569 319.008130081 1150.56910569 319.008130081 1127.96747967 c 128,-1,16
 319.008130081 1105.36585366 319.008130081 1105.36585366 330 1080 c 0,17,18
 357 1016 357 1016 415.5 976 c 128,-1,19
 474 936 474 936 530 904 c 1,20,21
 479 832 479 832 427.5 761.5 c 128,-1,22
 376 691 376 691 326 621 c 1,23,24
 94.4718826406 823.587102689 94.4718826406 823.587102689 94.4718826406 949.384015892 c 128,-1,25
 94.4718826406 1075.1809291 94.4718826406 1075.1809291 264.226352279 1252.95621797 c 128,-1,26
 433.980821918 1430.73150685 433.980821918 1430.73150685 544.879647213 1430.73150685 c 0,27,28
 658.707534247 1430.73150685 658.707534247 1430.73150685 818.49013076 1282.77484433 c 128,-1,29
 978.272727273 1134.81818182 978.272727273 1134.81818182 978.272727273 991 c 0,30,31
 978.272727273 908.818181818 978.272727273 908.818181818 923 831 c 0,32,33
 771 617 771 617 526 362 c 1,34,-1
 706.555555556 360.666666667 l 2,35,36
 751.666666667 360.666666667 751.666666667 360.666666667 797 362 c 0,37,38
 922 364 922 364 974 500 c 1,39,40
 987 490 987 490 1012 472 c 1,0,-1
EndSplineSet
EndChar

StartChar: three
Encoding: 51 51 22
Width: 1027
Flags: HW
LayerCount: 2
Fore
SplineSet
715 982 m 1,0,1
 981.757505774 745.239322185 981.757505774 745.239322185 981.757505774 519.281179163 c 0,2,3
 981.757505774 328.806004619 981.757505774 328.806004619 797 181 c 1,4,5
 588.210831721 16.8375241779 588.210831721 16.8375241779 418.477726356 16.8375241779 c 0,6,7
 375.220502901 16.8375241779 375.220502901 16.8375241779 334.5 27.5 c 0,8,9
 134 80 134 80 20 322 c 1,10,11
 86 395 86 395 152.5 467.5 c 128,-1,12
 219 540 219 540 286 614 c 1,13,14
 331 325 331 325 442.5 219.5 c 0,15,16
 491.411642412 173.22037422 491.411642412 173.22037422 551.219334719 173.22037422 c 128,-1,17
 611.027027027 173.22037422 611.027027027 173.22037422 681.22544767 246.665742666 c 128,-1,18
 751.423868313 320.111111111 751.423868313 320.111111111 751.423868313 387.216049383 c 128,-1,19
 751.423868313 454.320987654 751.423868313 454.320987654 697 517.5 c 0,20,21
 582 651 582 651 337 747 c 1,22,23
 466.230769231 902.076923077 466.230769231 902.076923077 626 1100 c 1,24,25
 504.068965517 1115.54022989 504.068965517 1115.54022989 426.275862069 1115.54022989 c 128,-1,26
 348.482758621 1115.54022989 348.482758621 1115.54022989 299 1108.5 c 0,27,28
 176 1091 176 1091 177 986 c 1,29,30
 160 994 160 994 143 1002 c 128,-1,31
 126 1010 126 1010 110 1017 c 1,32,33
 145 1146 145 1146 174.5 1256 c 128,-1,34
 204 1366 204 1366 240 1496 c 1,35,36
 397 1372 397 1372 599.5 1365.5 c 128,-1,37
 802 1359 802 1359 1009 1355 c 1,38,-1
 715 982 l 1,0,1
EndSplineSet
EndChar

StartChar: four
Encoding: 52 52 23
Width: 984
Flags: HW
LayerCount: 2
Fore
SplineSet
521 650 m 1,0,1
 521.222222222 666.444444444 521.222222222 666.444444444 521.222222222 724.277777778 c 128,-1,2
 521.222222222 782.111111111 521.222222222 782.111111111 507 935 c 1,3,-1
 817 1277 l 1,4,5
 791 922 791 922 786 667 c 1,6,7
 869 675 869 675 962 692 c 1,8,-1
 955 390 l 1,9,-1
 789 392 l 1,10,11
 796 210 796 210 817 95 c 1,12,13
 641.225071225 77.9344729345 641.225071225 77.9344729345 370 5 c 1,14,15
 462 180 462 180 499 397 c 1,16,-1
 9 405 l 1,17,-1
 460 1465 l 1,18,-1
 849 1477 l 1,19,20
 477 1095 477 1095 271 656 c 1,21,22
 375.25 649.25 375.25 649.25 434.25 649.25 c 128,-1,23
 493.25 649.25 493.25 649.25 521 650 c 1,0,1
EndSplineSet
EndChar

StartChar: five
Encoding: 53 53 24
Width: 986
Flags: HW
LayerCount: 2
Fore
SplineSet
134 762 m 1,0,1
 278.797849462 1156.90322581 278.797849462 1156.90322581 286 1481 c 1,2,3
 501.15625 1430 501.15625 1430 864 1430 c 1,4,5
 822 1361 822 1361 782 1291.5 c 128,-1,6
 742 1222 742 1222 702 1155 c 1,7,8
 670.875 1152.75 670.875 1152.75 598.452205882 1152.75 c 128,-1,9
 526.029411765 1152.75 526.029411765 1152.75 350 1186 c 1,10,11
 346 1082 346 1082 346 1080 c 1,12,13
 784 1014 784 1014 878 778 c 0,14,15
 901.562666667 718.842666667 901.562666667 718.842666667 901.562666667 654.344462222 c 0,16,17
 901.562666667 461.536 901.562666667 461.536 691 221 c 1,18,19
 516.818882466 24.1753371869 516.818882466 24.1753371869 361.220440227 24.1753371869 c 0,20,21
 338.156069364 24.1753371869 338.156069364 24.1753371869 315.5 28.5 c 0,22,23
 140 62 140 62 20 209 c 1,24,25
 64.3352272727 438.5 64.3352272727 438.5 91 562 c 1,26,27
 235 387 235 387 393.5 289 c 0,28,29
 453.939688716 251.630350195 453.939688716 251.630350195 501.220026041 251.630350195 c 0,30,31
 577.929961089 251.630350195 577.929961089 251.630350195 618.957863107 347.21375161 c 128,-1,32
 659.985765125 442.797153025 659.985765125 442.797153025 659.985765125 514.320740619 c 0,33,34
 659.985765125 632.402135231 659.985765125 632.402135231 551 692.5 c 0,35,36
 414.259109312 767.902834008 414.259109312 767.902834008 236.611417988 767.902834008 c 0,37,38
 186.906882591 767.902834008 186.906882591 767.902834008 134 762 c 1,0,1
EndSplineSet
EndChar

StartChar: six
Encoding: 54 54 25
Width: 954
Flags: HW
LayerCount: 2
Fore
SplineSet
467 1527 m 1,0,-1
 695 1410 l 1,1,2
 474 1346 474 1346 385 1192.5 c 128,-1,3
 296 1039 296 1039 292 866 c 1,4,-1
 572 1084 l 1,5,6
 786 942 786 942 863 771 c 0,7,8
 896.497175141 696.610169492 896.497175141 696.610169492 896.497175141 602.627118644 c 128,-1,9
 896.497175141 508.644067797 896.497175141 508.644067797 843.748587571 396.822033898 c 128,-1,10
 791 285 791 285 702.5 210.5 c 128,-1,11
 614 136 614 136 532.5 89 c 0,12,13
 449.222606383 40.975 449.222606383 40.975 437.461303191 40.975 c 128,-1,14
 425.7 40.975 425.7 40.975 375 79 c 1,15,16
 49.2005141388 305.046272494 49.2005141388 305.046272494 49.2005141388 631.177477019 c 0,17,18
 49.2005141388 1015.14094402 49.2005141388 1015.14094402 467 1527 c 1,0,-1
377.5 469 m 128,-1,20
 440 367 440 367 504.021276596 327.928191489 c 128,-1,21
 568.042553191 288.856382979 568.042553191 288.856382979 625.021276596 288.856382979 c 128,-1,22
 682 288.856382979 682 288.856382979 682 322 c 0,23,24
 680 552 680 552 608 688 c 0,25,26
 546.41509434 804.327044025 546.41509434 804.327044025 426.300858352 804.327044025 c 0,27,28
 405.987421384 804.327044025 405.987421384 804.327044025 377.493710692 800.163522013 c 128,-1,29
 349 796 349 796 296 759 c 1,30,19
 315 571 315 571 377.5 469 c 128,-1,20
EndSplineSet
EndChar

StartChar: seven
Encoding: 55 55 26
Width: 985
Flags: HW
LayerCount: 2
Fore
SplineSet
370.851239669 1136.72727273 m 1,0,-1
 257.282064636 1141.17801047 l 1,1,2
 111.982142857 1141.17801047 111.982142857 1141.17801047 111.982142857 1017.28388074 c 0,3,4
 111.982142857 999.428571429 111.982142857 999.428571429 115 979 c 1,5,6
 87 983 87 983 32 994 c 1,7,8
 29 1309 29 1309 29 1419 c 1,9,10
 349.099447514 1408.14917127 349.099447514 1408.14917127 975 1395 c 1,11,12
 773.575 1114.92333333 773.575 1114.92333333 676 781 c 1,13,14
 547.956260252 353.425369054 547.956260252 353.425369054 539 31 c 1,15,16
 426 40 426 40 352.5 47 c 128,-1,17
 279 54 279 54 166 64 c 1,18,19
 240 341 240 341 390.5 607.5 c 128,-1,20
 541 874 541 874 684 1144 c 1,21,22
 370.851239669 1136.72727273 l 1,0,-1
EndSplineSet
EndChar

StartChar: eight
Encoding: 56 56 27
Width: 957
Flags: HW
LayerCount: 2
Fore
SplineSet
457 1485 m 1,0,1
 457 1484 l 1,2,3
 483.973684211 1506.11842105 483.973684211 1506.11842105 511.401315789 1506.11842105 c 128,-1,4
 538.828947368 1506.11842105 538.828947368 1506.11842105 566 1490 c 0,5,6
 645 1440 645 1440 730.5 1367.5 c 128,-1,7
 816 1295 816 1295 854 1250 c 1,8,9
 889.506849315 1204.63013699 889.506849315 1204.63013699 889.506849315 1193.33343711 c 128,-1,10
 889.506849315 1182.03673724 889.506849315 1182.03673724 867.753424658 1136.51836862 c 0,11,12
 830.525742077 1058.62059366 830.525742077 1058.62059366 626 895 c 1,13,14
 784.011299435 749.333333333 784.011299435 749.333333333 890 660 c 1,15,16
 912.935779817 623.302752294 912.935779817 623.302752294 912.935779817 583.302752294 c 128,-1,17
 912.935779817 543.302752294 912.935779817 543.302752294 858.467889908 463.651376147 c 128,-1,18
 804 384 804 384 725.5 265 c 128,-1,19
 647 146 647 146 524 75 c 0,20,21
 483.205128205 51.2948717949 483.205128205 51.2948717949 455.301282051 51.2948717949 c 128,-1,22
 427.397435897 51.2948717949 427.397435897 51.2948717949 409 67 c 0,23,24
 307 150 307 150 224 224.5 c 128,-1,25
 141 299 141 299 60 400 c 1,26,27
 29.6885245902 446.524590164 29.6885245902 446.524590164 29.6885245902 477.057377049 c 128,-1,28
 29.6885245902 507.590163934 29.6885245902 507.590163934 35 525 c 1,29,30
 133.687089716 672.133479212 133.687089716 672.133479212 292 797 c 1,31,32
 162.23255814 894.325581395 162.23255814 894.325581395 89 966 c 1,33,34
 71.6024096386 986.602409639 71.6024096386 986.602409639 71.6024096386 1025.35542169 c 128,-1,35
 71.6024096386 1064.10843373 71.6024096386 1064.10843373 96 1127 c 1,36,37
 260 1361 260 1361 457 1485 c 1,0,1
390 725 m 1,38,39
 374 714 374 714 357.5 703 c 128,-1,40
 341 692 341 692 317.223076923 675.884615385 c 128,-1,41
 293.446153846 659.769230769 293.446153846 659.769230769 293.446153846 640.876923077 c 128,-1,42
 293.446153846 621.984615385 293.446153846 621.984615385 299 610 c 0,43,44
 381.675661514 397.724652869 381.675661514 397.724652869 566 301 c 0,45,46
 584.139534884 291.697674419 584.139534884 291.697674419 599.686046512 291.697674419 c 128,-1,47
 615.23255814 291.697674419 615.23255814 291.697674419 627 304 c 2,48,-1
 675 354 l 2,49,50
 687.430107527 367.161290323 687.430107527 367.161290323 687.430107527 393.569892473 c 128,-1,51
 687.430107527 419.978494624 687.430107527 419.978494624 650 472 c 1,52,53
 549 605 549 605 390 725 c 1,38,39
541 972 m 1,54,55
 558 982.461538462 558 982.461538462 589.028985507 1003.79598662 c 128,-1,56
 620.057971014 1025.13043478 620.057971014 1025.13043478 620.057971014 1044.5942029 c 128,-1,57
 620.057971014 1064.05797101 620.057971014 1064.05797101 611 1080 c 0,58,59
 536 1204 536 1204 416 1260 c 0,60,61
 406.148148148 1264.45679012 406.148148148 1264.45679012 396.736473099 1264.45679012 c 0,62,63
 366.024691358 1264.45679012 366.024691358 1264.45679012 340 1217 c 1,64,65
 327.061538462 1196.92307692 327.061538462 1196.92307692 327.061538462 1178.21538462 c 128,-1,66
 327.061538462 1159.50769231 327.061538462 1159.50769231 347 1144 c 1,67,68
 450 1054 450 1054 541 972 c 1,54,55
EndSplineSet
EndChar

StartChar: nine
Encoding: 57 57 28
Width: 940
Flags: HW
LayerCount: 2
Fore
SplineSet
484 31 m 1,0,-1
 255 149 l 1,1,2
 476 211 476 211 565 365.5 c 128,-1,3
 654 520 654 520 657 692 c 1,4,-1
 377 476 l 1,5,6
 162 615 162 615 87 787 c 0,7,8
 54.4855491329 861.566473988 54.4855491329 861.566473988 54.4855491329 956.020231214 c 128,-1,9
 54.4855491329 1050.47398844 54.4855491329 1050.47398844 107.742774566 1164.73699422 c 128,-1,10
 161 1279 161 1279 253.5 1354.5 c 128,-1,11
 346 1430 346 1430 415.333333333 1468.5625 c 128,-1,12
 484.666666667 1507.125 484.666666667 1507.125 512.208333333 1507.125 c 128,-1,13
 539.75 1507.125 539.75 1507.125 569 1486 c 0,14,15
 895.492753623 1240.20289855 895.492753623 1240.20289855 895.492753623 913.105229994 c 0,16,17
 895.492753623 538.36410198 895.492753623 538.36410198 484 31 c 1,0,-1
572 1089 m 128,-1,19
 509 1191 509 1191 444.465789474 1230.56842105 c 128,-1,20
 379.931578947 1270.13684211 379.931578947 1270.13684211 323.456530214 1270.13684211 c 128,-1,21
 266.981481481 1270.13684211 266.981481481 1270.13684211 266.981481481 1237.02932099 c 0,22,23
 266.981481481 1008.81118881 266.981481481 1008.81118881 340.5 870 c 0,24,25
 401.98089172 753.917197452 401.98089172 753.917197452 524.460708345 753.917197452 c 0,26,27
 544.420382166 753.917197452 544.420382166 753.917197452 573.210191083 757.958598726 c 128,-1,28
 602 762 602 762 654 800 c 1,29,18
 635 987 635 987 572 1089 c 128,-1,19
EndSplineSet
EndChar

StartChar: colon
Encoding: 58 58 29
Width: 507
Flags: HW
LayerCount: 2
Fore
SplineSet
254 511 m 1,0,-1
 494 271 l 1,1,-1
 254 31 l 1,2,-1
 14 271 l 1,3,-1
 254 511 l 1,0,-1
254 1164 m 1,4,-1
 494 924 l 1,5,-1
 254 684 l 1,6,-1
 14 924 l 1,7,-1
 254 1164 l 1,4,-1
EndSplineSet
EndChar

StartChar: semicolon
Encoding: 59 59 30
Width: 509
Flags: HW
LayerCount: 2
Fore
SplineSet
80 267 m 1,0,-1
 350 507 l 1,1,2
 405.125 376.875 405.125 376.875 405.125 215.953125 c 0,3,4
 405.125 -52.25 405.125 -52.25 252 -406 c 1,5,6
 241 -213 241 -213 205 -39.5 c 128,-1,7
 169 134 169 134 80 267 c 1,0,-1
247 1080 m 1,8,-1
 487 840 l 1,9,-1
 247 600 l 1,10,-1
 7 840 l 1,11,-1
 247 1080 l 1,8,-1
EndSplineSet
EndChar

StartChar: less
Encoding: 60 60 31
Width: 813
Flags: HW
LayerCount: 2
Fore
SplineSet
45 575 m 1,0,-1
 631 1124 l 1,1,-1
 776 979 l 1,2,-1
 340 588 l 1,3,-1
 784 180 l 1,4,-1
 631 27 l 1,5,-1
 45 575 l 1,0,-1
EndSplineSet
EndChar

StartChar: equal
Encoding: 61 61 32
Width: 781
Flags: HW
LayerCount: 2
Fore
SplineSet
774 947 m 1,0,-1
 602 650 l 1,1,2
 560.75 650.5 560.75 650.5 481 650.5 c 128,-1,3
 401.25 650.5 401.25 650.5 276.125 645.25 c 128,-1,4
 151 640 151 640 121 584 c 1,5,6
 157 674 157 674 193 764 c 128,-1,7
 229 854 229 854 266 944 c 1,8,9
 271.746478873 878.873239437 271.746478873 878.873239437 328.860543543 878.873239437 c 0,10,11
 331.38028169 878.873239437 331.38028169 878.873239437 334 879 c 2,12,-1
 637 887 l 2,13,14
 705 889 705 889 774 947 c 1,0,-1
164 609 m 1,15,16
 170 545 170 545 231 545 c 2,17,-1
 424 545 l 2,18,19
 489 545 489 545 560 605 c 1,20,21
 470 449 470 449 389 307 c 1,22,23
 299 308.636363636 299 308.636363636 237.772727273 308.636363636 c 128,-1,24
 176.545454545 308.636363636 176.545454545 308.636363636 137 307.5 c 0,25,26
 50 305 50 305 20 249 c 1,27,28
 56 339 56 339 91.5 429 c 128,-1,29
 127 519 127 519 164 609 c 1,15,16
EndSplineSet
EndChar

StartChar: greater
Encoding: 62 62 33
Width: 813
Flags: HW
LayerCount: 2
Fore
SplineSet
768 575 m 1,0,-1
 182 27 l 1,1,-1
 37 172 l 1,2,-1
 473 563 l 1,3,-1
 29 971 l 1,4,-1
 182 1124 l 1,5,-1
 768 575 l 1,0,-1
EndSplineSet
EndChar

StartChar: question
Encoding: 63 63 34
Width: 546
Flags: HW
LayerCount: 2
Fore
SplineSet
276 442 m 1,0,-1
 482 237 l 1,1,-1
 276 31 l 1,2,-1
 70 237 l 1,3,-1
 276 442 l 1,0,-1
467 707 m 1,4,-1
 251 472 l 1,5,6
 130 524 130 524 44 665 c 1,7,8
 298.204610951 1023.62536023 298.204610951 1023.62536023 298.204610951 1189.94896146 c 0,9,10
 298.204610951 1217.94956772 298.204610951 1217.94956772 291 1240.5 c 0,11,12
 241 1397 241 1397 12 1410 c 1,13,-1
 295 1692 l 1,14,15
 461 1600 461 1600 495 1437.5 c 0,16,17
 500.611650485 1410.67961165 500.611650485 1410.67961165 500.611650485 1380.30426996 c 0,18,19
 500.611650485 1226.6407767 500.611650485 1226.6407767 357 982 c 0,20,21
 290.27672956 867.339622642 290.27672956 867.339622642 290.27672956 820.298742138 c 128,-1,22
 290.27672956 773.257861635 290.27672956 773.257861635 310 756 c 0,23,24
 366 707 366 707 467 707 c 1,4,-1
EndSplineSet
EndChar

StartChar: at
Encoding: 64 64 35
Width: 1305
Flags: HW
LayerCount: 2
Fore
SplineSet
840 237 m 0,0,1
 816 237 816 237 732 245 c 1,2,3
 734 267 734 267 735 283 c 128,-1,4
 736 299 736 299 737.5 315 c 0,5,6
 741 352.333333333 741 352.333333333 746 404 c 1,7,8
 639.681765389 288.43670151 639.681765389 288.43670151 592.840882695 261.218350755 c 128,-1,9
 546 234 546 234 493.5 234 c 128,-1,10
 441 234 441 234 404.5 294.5 c 128,-1,11
 368 355 368 355 368 455 c 128,-1,12
 368 555 368 555 395.5 631.5 c 128,-1,13
 423 708 423 708 473.5 761 c 0,14,15
 579.264150943 872 579.264150943 872 762 872 c 0,16,17
 838.625 872 838.625 872 928 846 c 1,18,19
 908.02189781 783.211678832 908.02189781 783.211678832 899 696 c 1,20,-1
 873 490 l 2,21,22
 863 410 863 410 863 380 c 128,-1,23
 863 350 863 350 874.5 335 c 128,-1,24
 886 320 886 320 922 320 c 128,-1,25
 958 320 958 320 994.5 344.5 c 128,-1,26
 1031 369 1031 369 1058.5 412 c 0,27,28
 1117 503.472727273 1117 503.472727273 1117 611.236363636 c 128,-1,29
 1117 719 1117 719 1087.5 791 c 128,-1,30
 1058 863 1058 863 1006 916 c 0,31,32
 897.094339623 1027 897.094339623 1027 726 1027 c 0,33,34
 505.632653061 1027 505.632653061 1027 366 871.5 c 0,35,36
 226 715.590909091 226 715.590909091 226 492.795454545 c 128,-1,37
 226 270 226 270 327 157.5 c 128,-1,38
 428 45 428 45 612 45 c 0,39,40
 703 45 703 45 759 65 c 128,-1,41
 815 85 815 85 837.5 95 c 128,-1,42
 860 105 860 105 882.5 119.5 c 0,43,44
 921.777003484 144.81184669 921.777003484 144.81184669 986 199 c 1,45,-1
 1047 138 l 1,46,47
 1025 118 1025 118 1007 103 c 128,-1,48
 989 88 989 88 976 77 c 0,49,50
 828 -41 828 -41 594 -41 c 0,51,52
 290.389830508 -41 290.389830508 -41 163.5 176 c 0,53,54
 92 298.275362319 92 298.275362319 92 445.637681159 c 128,-1,55
 92 593 92 593 144.5 715 c 128,-1,56
 197 837 197 837 286.5 928 c 128,-1,57
 376 1019 376 1019 496.5 1071.5 c 128,-1,58
 617 1124 617 1124 752 1124 c 0,59,60
 983 1124 983 1124 1108 980 c 1,61,62
 1228 838.947368421 1228 838.947368421 1228 646.973684211 c 128,-1,63
 1228 455 1228 455 1126.5 346 c 128,-1,64
 1025 237 1025 237 840 237 c 0,0,1
565 347 m 0,65,66
 615.355555556 347 615.355555556 347 691 439 c 0,67,68
 734 491 734 491 744 520 c 0,69,70
 755.209302326 552.506976744 755.209302326 552.506976744 765 623 c 1,71,-1
 774 696 l 2,72,73
 776 706 776 706 776 715.5 c 2,74,-1
 776 734 l 2,75,76
 776 789 776 789 687 789 c 0,77,78
 605.222222222 789 605.222222222 789 553.5 703.5 c 0,79,80
 502 618.367346939 502 618.367346939 502 482.683673469 c 128,-1,81
 502 347 502 347 565 347 c 0,65,66
EndSplineSet
EndChar

StartChar: A
Encoding: 65 65 36
Width: 1405
Flags: HW
LayerCount: 2
Fore
SplineSet
697 1226 m 1,0,1
 594.768987342 1252.2056962 594.768987342 1252.2056962 499.338186989 1252.2056962 c 0,2,3
 263.382911392 1252.2056962 263.382911392 1252.2056962 69 1092 c 1,4,5
 70 1102 70 1102 62.5 1144.5 c 128,-1,6
 55 1187 55 1187 57 1197 c 1,7,8
 319.846066135 1413.21208666 319.846066135 1413.21208666 629 1535 c 1,9,10
 1033.05205976 1414.72403803 1033.05205976 1414.72403803 1372 1205 c 1,11,12
 1350 1169 1350 1169 1317 1142 c 128,-1,13
 1284 1115 1284 1115 1262 1080 c 1,14,15
 1255 1061 1255 1061 1255 1026 c 2,16,-1
 1255 972 l 1,17,-1
 1262 436 l 1,18,19
 1265 371 1265 371 1286 355 c 2,20,-1
 1387 272 l 1,21,-1
 1211 31 l 1,22,-1
 982 225 l 1,23,24
 1004 382.142857143 1004 382.142857143 1004 636 c 1,25,-1
 630 636 l 1,26,27
 592 282 592 282 413.5 36 c 128,-1,28
 235 -210 235 -210 92 -349 c 1,29,30
 50.1224489796 -318.755102041 50.1224489796 -318.755102041 16 -299 c 1,31,32
 132 -178 132 -178 189.5 -22 c 128,-1,33
 247 134 247 134 287.837209302 307.255813953 c 128,-1,34
 328.674418605 480.511627907 328.674418605 480.511627907 328.674418605 647.290697674 c 128,-1,35
 328.674418605 814.069767442 328.674418605 814.069767442 256 960 c 1,36,37
 499 1081 499 1081 697 1226 c 1,0,1
1000 871 m 1,38,39
 997.666666667 990 997.666666667 990 997.666666667 1017.33333333 c 128,-1,40
 997.666666667 1044.66666667 997.666666667 1044.66666667 999 1080 c 1,41,42
 900 1150 900 1150 791 1195 c 1,43,44
 720 1142 720 1142 683 1073.5 c 128,-1,45
 646 1005 646 1005 639 871 c 1,46,-1
 1000 871 l 1,38,39
EndSplineSet
EndChar

StartChar: B
Encoding: 66 66 37
Width: 1451
Flags: HW
LayerCount: 2
Fore
SplineSet
184 1170 m 1,0,-1
 807 1535 l 1,1,2
 1041.08462238 1446.20928116 1041.08462238 1446.20928116 1305 1256 c 1,3,4
 1191 1180 1191 1180 1071 1095 c 1,5,6
 1385.05071851 852.357565511 1385.05071851 852.357565511 1385.05071851 646.880896527 c 0,7,8
 1385.05071851 570.363482671 1385.05071851 570.363482671 1341.5 499 c 0,9,10
 1181 236 1181 236 681 12 c 1,11,12
 393.246312086 267.054405197 393.246312086 267.054405197 22 289 c 1,13,-1
 276 474 l 1,14,-1
 282 965 l 2,15,16
 284 1087 284 1087 184 1170 c 1,0,-1
911 1137 m 1,17,18
 771 1241 771 1241 602 1290 c 1,19,-1
 600 926 l 1,20,-1
 911 1137 l 1,17,18
909 232 m 1,21,22
 1069.15286624 372.271820778 1069.15286624 372.271820778 1069.15286624 535.71554627 c 0,23,24
 1069.15286624 642.063694268 1069.15286624 642.063694268 1009.07643312 731.031847134 c 128,-1,25
 949 820 949 820 831.5 857 c 0,26,27
 788.87745098 870.421568627 788.87745098 870.421568627 730.580882353 870.421568627 c 128,-1,28
 672.284313725 870.421568627 672.284313725 870.421568627 599 829 c 1,29,-1
 597 561 l 1,30,-1
 496 499 l 1,31,32
 788 353 788 353 909 232 c 1,21,22
EndSplineSet
EndChar

StartChar: C
Encoding: 67 67 38
Width: 1080
Flags: HW
LayerCount: 2
Fore
SplineSet
1009 1087 m 1,0,1
 895 1184 895 1184 777 1222 c 1,2,3
 769.882352941 1127.85294118 769.882352941 1127.85294118 769.882352941 984.779411765 c 128,-1,4
 769.882352941 841.705882353 769.882352941 841.705882353 801 655 c 1,5,-1
 485 514 l 1,6,7
 565 431 565 431 697.5 389 c 0,8,9
 770.723684211 365.789473684 770.723684211 365.789473684 855.348684211 365.789473684 c 128,-1,10
 939.973684211 365.789473684 939.973684211 365.789473684 1029 381 c 1,11,-1
 855 15 l 1,12,13
 564 110 564 110 395 199.5 c 128,-1,14
 226 289 226 289 142.5 410 c 128,-1,15
 59 531 59 531 42 701.5 c 0,16,17
 31.2962962963 808.851851852 31.2962962963 808.851851852 31.2962962963 921.648148148 c 128,-1,18
 31.2962962963 1034.44444444 31.2962962963 1034.44444444 35 1130 c 1,19,-1
 857 1535 l 1,20,-1
 1097 1361 l 1,21,-1
 1009 1087 l 1,0,1
497 1212 m 1,22,23
 331.62295082 1133.1875 331.62295082 1133.1875 331.62295082 922.191615157 c 0,24,25
 331.62295082 730.559455091 331.62295082 730.559455091 426 587 c 1,26,27
 490 629 490 629 505 754 c 0,28,29
 510.921052632 803.342105263 510.921052632 803.342105263 510.921052632 906.894736842 c 128,-1,30
 510.921052632 1010.44736842 510.921052632 1010.44736842 497 1212 c 1,22,23
EndSplineSet
EndChar

StartChar: D
Encoding: 68 68 39
Width: 1295
Flags: HW
LayerCount: 2
Fore
SplineSet
224 502 m 1,0,1
 231.75862069 595.103448276 231.75862069 595.103448276 231.75862069 678.896551724 c 128,-1,2
 231.75862069 762.689655172 231.75862069 762.689655172 225 838 c 0,3,4
 211 994 211 994 120 1084 c 1,5,6
 354 1095 354 1095 569 1180 c 1,7,8
 351.355371901 1289.29752066 351.355371901 1289.29752066 46.9953555085 1289.29752066 c 0,9,10
 31.1157024793 1289.29752066 31.1157024793 1289.29752066 15 1289 c 1,11,-1
 344 1535 l 1,12,13
 805 1464 805 1464 1028.5 1208 c 128,-1,14
 1252 952 1252 952 1269 534 c 1,15,-1
 680 31 l 1,16,17
 395 175 395 175 4 270 c 1,18,-1
 224 502 l 1,0,1
616 1154 m 1,19,20
 585 1097 585 1097 566.8 1044.73333333 c 128,-1,21
 548.6 992.466666667 548.6 992.466666667 548.6 944.1 c 128,-1,22
 548.6 895.733333333 548.6 895.733333333 550.3 822.366666667 c 128,-1,23
 552 749 552 749 557 684 c 128,-1,24
 562 619 562 619 592 531 c 1,25,26
 571.152542373 532.694915254 571.152542373 532.694915254 550.678540649 532.694915254 c 0,27,28
 450.355932203 532.694915254 450.355932203 532.694915254 359 492 c 1,29,30
 599.25 317.272727273 599.25 317.272727273 731.536415289 317.272727273 c 0,31,32
 787.011363636 317.272727273 787.011363636 317.272727273 823.5 348 c 0,33,34
 936.899628253 443.494423792 936.899628253 443.494423792 936.899628253 622.457718937 c 0,35,36
 936.899628253 780.700625853 936.899628253 780.700625853 853.949814126 920.350312926 c 128,-1,37
 771 1060 771 1060 616 1154 c 1,19,20
EndSplineSet
EndChar

StartChar: E
Encoding: 69 69 40
Width: 1215
Flags: HW
LayerCount: 2
Fore
SplineSet
1211 1345 m 1,0,-1
 1041 1147 l 1,1,2
 885 1255 885 1255 736 1276 c 1,3,4
 727 1190 727 1190 724 1080 c 1,5,-1
 1137 1080 l 1,6,-1
 1137 844 l 1,7,-1
 729 844 l 1,8,9
 732 730 732 730 752 579 c 1,10,-1
 522 495 l 1,11,12
 710.907407407 324.983333333 710.907407407 324.983333333 1048.10319444 324.983333333 c 0,13,14
 1085.85 324.983333333 1085.85 324.983333333 1126 327 c 1,15,-1
 907 31 l 1,16,17
 482 77 482 77 253.5 331 c 128,-1,18
 25 585 25 585 25 1080 c 1,19,-1
 801 1535 l 1,20,21
 941.665083135 1437.87410926 941.665083135 1437.87410926 1211 1345 c 1,0,-1
445 577 m 1,22,-1
 519 602 l 1,23,24
 488.68852459 820.524590164 488.68852459 820.524590164 488.68852459 980.81147541 c 128,-1,25
 488.68852459 1141.09836066 488.68852459 1141.09836066 494 1237 c 1,26,27
 434 1207 434 1207 396.5 1167 c 128,-1,28
 359 1127 359 1127 342.434782609 1089.63043478 c 128,-1,29
 325.869565217 1052.26086957 325.869565217 1052.26086957 325.869565217 983.608695652 c 128,-1,30
 325.869565217 914.956521739 325.869565217 914.956521739 327.5 880.5 c 0,31,32
 335 722 335 722 445 577 c 1,22,-1
EndSplineSet
EndChar

StartChar: F
Encoding: 70 70 41
Width: 1022
Flags: HW
LayerCount: 2
Fore
SplineSet
568.155036524 -90.2549019608 m 0,0,1
 598.169934641 -90.2549019608 598.169934641 -90.2549019608 598.169934641 -38.8954248366 c 128,-1,2
 598.169934641 12.4640522876 598.169934641 12.4640522876 555.08496732 123.732026144 c 128,-1,3
 512 235 512 235 423 408 c 128,-1,4
 334 581 334 581 227.5 769 c 128,-1,5
 121 957 121 957 37 1111 c 1,6,7
 340 1302 340 1302 509 1535 c 1,8,9
 734 1454 734 1454 1002 1372 c 1,10,11
 898 1238 898 1238 792 1106 c 1,12,13
 760 1155 760 1155 633.684210526 1207.10526316 c 128,-1,14
 507.368421053 1259.21052632 507.368421053 1259.21052632 461.236842105 1259.21052632 c 128,-1,15
 415.105263158 1259.21052632 415.105263158 1259.21052632 402.927631579 1245.14692982 c 128,-1,16
 390.75 1231.08333333 390.75 1231.08333333 390.75 1208.97916667 c 0,17,18
 390.75 1140.66145833 390.75 1140.66145833 472 946 c 1,19,20
 522.844444444 943.311111111 522.844444444 943.311111111 635.766666667 943.311111111 c 128,-1,21
 748.688888889 943.311111111 748.688888889 943.311111111 961 969 c 1,22,23
 939 849 939 849 921 731 c 1,24,-1
 560 750 l 1,25,26
 705.770212766 440.238297872 705.770212766 440.238297872 871 202 c 1,27,28
 700.090909091 -33 700.090909091 -33 459 -371 c 1,29,30
 215 -251 215 -251 26 31 c 1,31,32
 72 146 72 146 147 336 c 1,33,34
 249 180 249 180 385.882352941 44.8725490196 c 128,-1,35
 522.764705882 -90.2549019608 522.764705882 -90.2549019608 568.155036524 -90.2549019608 c 0,0,1
EndSplineSet
EndChar

StartChar: G
Encoding: 71 71 42
Width: 1472
Flags: HW
LayerCount: 2
Fore
SplineSet
1114 1081 m 1,0,1
 1327.59036145 909.682730924 1327.59036145 909.682730924 1445 714 c 1,2,3
 1217 249 1217 249 745 31 c 1,4,5
 75.4883116883 301.415584416 75.4883116883 301.415584416 75.4883116883 848.330801147 c 0,6,7
 75.4883116883 887.94025974 75.4883116883 887.94025974 79 929 c 1,8,9
 390.911666888 1380.81322336 390.911666888 1380.81322336 771 1535 c 1,10,11
 979 1390 979 1390 1340 1297 c 1,12,-1
 1114 1081 l 1,0,1
751 1249 m 1,13,14
 741.666666667 1147.66666667 741.666666667 1147.66666667 741.666666667 1069.66666667 c 128,-1,15
 741.666666667 991.666666667 741.666666667 991.666666667 744 939 c 1,16,17
 799 990 799 990 857 1041 c 128,-1,18
 915 1092 915 1092 970 1145 c 1,19,20
 884 1212 884 1212 751 1249 c 1,13,14
746 890 m 1,21,22
 751 769 751 769 765 649 c 1,23,24
 661 630 661 630 520 512 c 1,25,26
 602 437 602 437 707.333333333 374.777777778 c 128,-1,27
 812.666666667 312.555555556 812.666666667 312.555555556 904.530864198 312.555555556 c 0,28,29
 930.777777778 312.555555556 930.777777778 312.555555556 957 317 c 0,30,31
 1122 344 1122 344 1142 464 c 0,32,33
 1147.26315789 495.578947368 1147.26315789 495.578947368 1147.26315789 525.565096953 c 0,34,35
 1147.26315789 609.526315789 1147.26315789 609.526315789 1108.13157895 675.263157895 c 128,-1,36
 1069 741 1069 741 980 803.5 c 128,-1,37
 891 866 891 866 746 890 c 1,21,22
446 585 m 1,38,39
 472 642 472 642 476 716 c 1,40,-1
 485 1064 l 2,41,42
 486 1109 486 1109 455 1180 c 1,43,44
 439 1166 439 1166 426 1147 c 0,45,46
 335.374358974 1024.55897436 335.374358974 1024.55897436 335.374358974 873.303642341 c 0,47,48
 335.374358974 708.032254972 335.374358974 708.032254972 446 585 c 1,38,39
EndSplineSet
EndChar

StartChar: H
Encoding: 72 72 43
Width: 1231
Flags: HW
LayerCount: 2
Fore
SplineSet
39 1220 m 1,0,1
 334.386075949 1385.5 334.386075949 1385.5 605 1535 c 1,2,3
 833.613293051 1431.75528701 833.613293051 1431.75528701 1042 1384 c 1,4,-1
 764 1191 l 1,5,6
 700 1205 700 1205 644.5 1233.5 c 128,-1,7
 589 1262 589 1262 547.65 1272.2 c 128,-1,8
 506.3 1282.4 506.3 1282.4 473.625 1282.4 c 128,-1,9
 440.95 1282.4 440.95 1282.4 415.370061728 1250.32962963 c 128,-1,10
 389.790123457 1218.25925926 389.790123457 1218.25925926 389.790123457 1191.05555556 c 128,-1,11
 389.790123457 1163.85185185 389.790123457 1163.85185185 391 1154 c 1,12,-1
 390 881 l 1,13,-1
 755 1110 l 1,14,15
 1000 890 1000 890 1210 599 c 1,16,17
 1126 355 1126 355 1015 128.5 c 128,-1,18
 904 -98 904 -98 731 -289 c 0,19,20
 654.942857143 -371.971428571 654.942857143 -371.971428571 585.60244898 -371.971428571 c 0,21,22
 544.628571429 -371.971428571 544.628571429 -371.971428571 511.814285714 -346.485714286 c 128,-1,23
 479 -321 479 -321 454 -297.5 c 128,-1,24
 429 -274 429 -274 402 -251 c 1,25,26
 681 -183 681 -183 791 29 c 0,27,28
 867.100628931 175.666666667 867.100628931 175.666666667 867.100628931 321.854713026 c 0,29,30
 867.100628931 386.974842767 867.100628931 386.974842767 848.050314465 470.487421384 c 128,-1,31
 829 554 829 554 720.5 725 c 0,32,33
 652.288602941 832.503676471 652.288602941 832.503676471 559.770308445 832.503676471 c 0,34,35
 505.125 832.503676471 505.125 832.503676471 442 795 c 0,36,37
 425 785 425 785 390 762 c 1,38,-1
 389 461 l 1,39,40
 387 421 387 421 409.5 408.5 c 128,-1,41
 432 396 432 396 466.5 384 c 128,-1,42
 501 372 501 372 558.5 353.5 c 128,-1,43
 616 335 616 335 697 334 c 1,44,-1
 477 31 l 1,45,46
 215 90 215 90 27 186 c 1,47,48
 96.6417322835 455.665354331 96.6417322835 455.665354331 96.6417322835 714.212598425 c 128,-1,49
 96.6417322835 972.75984252 96.6417322835 972.75984252 39 1220 c 1,0,1
EndSplineSet
EndChar

StartChar: I
Encoding: 73 73 44
Width: 1062
Flags: HW
LayerCount: 2
Fore
SplineSet
1030 1516 m 1,0,1
 937.107142857 1352.07142857 937.107142857 1352.07142857 905 1292 c 1,2,3
 927 1041 927 1041 945.846153846 877.038461538 c 128,-1,4
 964.692307692 713.076923077 964.692307692 713.076923077 964.692307692 654.89809336 c 0,5,6
 964.692307692 486.179487179 964.692307692 486.179487179 900 391 c 1,7,8
 807 326 807 326 711.5 231 c 128,-1,9
 616 136 616 136 519 31 c 1,10,11
 343.695364238 112.695364238 343.695364238 112.695364238 112 224 c 1,12,13
 28.1492537313 258.014925373 28.1492537313 258.014925373 28.1492537313 345.218756961 c 0,14,15
 28.1492537313 368.253731343 28.1492537313 368.253731343 36.5746268657 416.626865672 c 128,-1,16
 45 465 45 465 57.5 535.5 c 128,-1,17
 70 606 70 606 82 677 c 1,18,19
 191 534 191 534 315 449.5 c 128,-1,20
 439 365 439 365 571 314 c 0,21,22
 589.4 306.703448276 589.4 306.703448276 615.782758621 306.703448276 c 128,-1,23
 642.165517241 306.703448276 642.165517241 306.703448276 671.573909063 341.780927678 c 128,-1,24
 700.982300885 376.85840708 700.982300885 376.85840708 700.982300885 435.579646018 c 128,-1,25
 700.982300885 494.300884956 700.982300885 494.300884956 691.491150442 582.150442478 c 128,-1,26
 682 670 682 670 659 806 c 128,-1,27
 636 942 636 942 616 1080 c 1,28,29
 694.760154739 1142.68665377 694.760154739 1142.68665377 782 1237 c 1,30,31
 714.314049587 1229.7107438 714.314049587 1229.7107438 616.727272727 1229.7107438 c 128,-1,32
 519.140495868 1229.7107438 519.140495868 1229.7107438 422.736914601 1249.18870523 c 128,-1,33
 326.333333333 1268.66666667 326.333333333 1268.66666667 268.444444444 1268.66666667 c 0,34,35
 152.666666667 1268.66666667 152.666666667 1268.66666667 66 1216 c 1,36,37
 114 1401 114 1401 210 1562 c 1,38,39
 503.314285714 1513.94285714 503.314285714 1513.94285714 873.52 1513.94285714 c 0,40,41
 950.114285714 1513.94285714 950.114285714 1513.94285714 1030 1516 c 1,0,1
EndSplineSet
EndChar

StartChar: J
Encoding: 74 74 45
Width: 1122
Flags: HW
LayerCount: 2
Fore
SplineSet
12 1035 m 1,0,1
 289 1562 l 1,2,3
 523.565217391 1495.86956522 523.565217391 1495.86956522 725.695652174 1495.86956522 c 128,-1,4
 927.826086957 1495.86956522 927.826086957 1495.86956522 1100 1535 c 1,5,6
 1028.23958333 1389.75 1028.23958333 1389.75 1028.23958333 1276.64268663 c 0,7,8
 1028.23958333 1258.92708333 1028.23958333 1258.92708333 1034.80980918 1192.36546811 c 128,-1,9
 1041.38003503 1125.80385289 1041.38003503 1125.80385289 1041.38003503 1016.94194902 c 0,10,11
 1041.38003503 580.539404553 1041.38003503 580.539404553 858.5 262 c 0,12,13
 630 -136 630 -136 165 -395 c 1,14,15
 126 -365 126 -365 85 -335.5 c 128,-1,16
 44 -306 44 -306 6 -276 c 1,17,18
 134 -251 134 -251 249.5 -210 c 128,-1,19
 365 -169 365 -169 458.5 -63.5 c 0,20,21
 661.383108371 165.421582173 661.383108371 165.421582173 719 774 c 1,22,23
 674.454545455 776.227272727 674.454545455 776.227272727 608.590909091 776.227272727 c 0,24,25
 453.927272727 776.227272727 453.927272727 776.227272727 249 726 c 1,26,27
 296 814 296 814 343 902 c 128,-1,28
 390 990 390 990 439 1080 c 1,29,30
 574 1024 574 1024 744 1022 c 1,31,32
 762 1167 762 1167 794 1240 c 1,33,34
 745.271028037 1242.26168224 745.271028037 1242.26168224 698.698052232 1242.26168224 c 0,35,36
 518.757009346 1242.26168224 518.757009346 1242.26168224 351.878504673 1204.13084112 c 128,-1,37
 185 1166 185 1166 12 1035 c 1,0,1
EndSplineSet
EndChar

StartChar: K
Encoding: 75 75 46
Width: 1446
Flags: HW
LayerCount: 2
Fore
SplineSet
52 1200 m 1,0,1
 71.046875 1267.90625 71.046875 1267.90625 141 1535 c 1,2,3
 285 1524 285 1524 429.5 1512 c 128,-1,4
 574 1500 574 1500 719 1489 c 1,5,6
 645 1360 645 1360 632.62195122 1253.29268293 c 128,-1,7
 620.243902439 1146.58536585 620.243902439 1146.58536585 620.243902439 1086.20731707 c 128,-1,8
 620.243902439 1025.82926829 620.243902439 1025.82926829 622 991 c 1,9,10
 725 1097 725 1097 825 1239 c 128,-1,11
 925 1381 925 1381 1025 1535 c 1,12,13
 1223.43943191 1223.4962406 1223.43943191 1223.4962406 1411 1024 c 1,14,-1
 1056 856 l 1,15,-1
 1409 224 l 1,16,17
 1188.89473684 92.4736842105 1188.89473684 92.4736842105 1089 31 c 1,18,19
 934.008025682 425.317817014 934.008025682 425.317817014 779 725 c 1,20,-1
 626 652 l 1,21,22
 617 585 617 585 596 528.5 c 128,-1,23
 575 472 575 472 520 431.5 c 128,-1,24
 465 391 465 391 421 345 c 1,25,26
 488.6 322.466666667 488.6 322.466666667 529.55 322.466666667 c 0,27,28
 638.915555556 322.466666667 638.915555556 322.466666667 747 342 c 1,29,-1
 577 31 l 1,30,31
 357.165829146 95.3417085427 357.165829146 95.3417085427 44 111 c 1,32,33
 247 289 247 289 286.512195122 590.280487805 c 128,-1,34
 326.024390244 891.56097561 326.024390244 891.56097561 326.024390244 1209.11005354 c 0,35,36
 326.024390244 1217.04878049 326.024390244 1217.04878049 326 1225 c 1,37,38
 307.230769231 1226.23076923 307.230769231 1226.23076923 275.346153846 1226.23076923 c 0,39,40
 226.076923077 1226.23076923 226.076923077 1226.23076923 52 1200 c 1,0,1
632 780 m 1,41,42
 849 875 849 875 1022 991 c 1,43,44
 955 1044 955 1044 904 1141 c 1,45,-1
 631 807 l 1,46,47
 631 790 631 790 632 780 c 1,41,42
EndSplineSet
EndChar

StartChar: L
Encoding: 76 76 47
Width: 1166
Flags: HW
LayerCount: 2
Fore
SplineSet
1122 1375 m 1,0,1
 980 1372 980 1372 845 1342 c 1,2,3
 835.478873239 1270.22535211 835.478873239 1270.22535211 835.478873239 1163.25352113 c 128,-1,4
 835.478873239 1056.28169014 835.478873239 1056.28169014 853.23943662 959.14084507 c 128,-1,5
 871 862 871 862 871 814.083333333 c 0,6,7
 871 732.192307692 871 732.192307692 749 636 c 1,8,9
 674 572 674 572 598 511 c 128,-1,10
 522 450 522 450 447 389 c 1,11,12
 753.580645161 305.731182796 753.580645161 305.731182796 1095.97583536 305.731182796 c 0,13,14
 1115.43010753 305.731182796 1115.43010753 305.731182796 1135 306 c 1,15,16
 1089 232 1089 232 1060.5 192 c 128,-1,17
 1032 152 1032 152 987 80 c 1,18,19
 954.425742574 31.4851485149 954.425742574 31.4851485149 887.266640525 31.4851485149 c 0,20,21
 857.524752475 31.4851485149 857.524752475 31.4851485149 739.262376238 56.2425742574 c 128,-1,22
 621 81 621 81 420.5 121.5 c 128,-1,23
 220 162 220 162 21 204 c 1,24,25
 189 407 189 407 229 546.5 c 0,26,27
 245.161616162 602.863636364 245.161616162 602.863636364 245.161616162 671.906565657 c 128,-1,28
 245.161616162 740.949494949 245.161616162 740.949494949 197.580808081 849.974747475 c 128,-1,29
 150 959 150 959 130.714285714 1038.07142857 c 128,-1,30
 111.428571429 1117.14285714 111.428571429 1117.14285714 111.428571429 1145.02040816 c 0,31,32
 111.428571429 1214.71428571 111.428571429 1214.71428571 165 1239 c 0,33,34
 331 1312 331 1312 510 1373.5 c 128,-1,35
 689 1435 689 1435 808.803191489 1485.44148936 c 128,-1,36
 928.606382979 1535.88297872 928.606382979 1535.88297872 971.949468085 1535.88297872 c 128,-1,37
 1015.29255319 1535.88297872 1015.29255319 1535.88297872 1039.5 1518 c 0,38,39
 1095 1477 1095 1477 1122 1375 c 1,0,1
607.592592593 898.320987654 m 1,40,-1
 593.272727273 1130.85123967 l 1,41,42
 593.272727273 1193 593.272727273 1193 602 1257 c 1,43,44
 580 1246 580 1246 537 1221 c 0,45,46
 452.414634146 1170.41463415 452.414634146 1170.41463415 452.414634146 1094.38488995 c 0,47,48
 452.414634146 1068.48780488 452.414634146 1068.48780488 501 862 c 1,49,50
 519.688888889 777.577777778 519.688888889 777.577777778 519.688888889 715.944444444 c 128,-1,51
 519.688888889 654.311111111 519.688888889 654.311111111 514 612 c 1,52,53
 565 649 565 649 586.296296296 746.685185185 c 128,-1,54
 607.592592593 844.37037037 607.592592593 844.37037037 607.592592593 898.320987654 c 1,40,-1
EndSplineSet
EndChar

StartChar: M
Encoding: 77 77 48
Width: 1886
Flags: HW
LayerCount: 2
Fore
SplineSet
671 331 m 1,0,-1
 504 31 l 1,1,2
 215.234042553 176.617021277 215.234042553 176.617021277 42 267 c 1,3,4
 264 474 264 474 289 558 c 0,5,6
 293.340277778 572.583333333 293.340277778 572.583333333 293.340277778 592.561873071 c 0,7,8
 293.340277778 687.659722222 293.340277778 687.659722222 210.170138889 870.829861111 c 128,-1,9
 127 1054 127 1054 99.7 1122.64 c 128,-1,10
 72.4 1191.28 72.4 1191.28 72.4 1228 c 128,-1,11
 72.4 1264.72 72.4 1264.72 84.5 1292 c 0,12,13
 112 1354 112 1354 216 1405.5 c 128,-1,14
 320 1457 320 1457 532 1535 c 1,15,16
 562 1465 562 1465 576 1430 c 1,17,18
 442 1386 442 1386 429 1320 c 0,19,20
 426.229508197 1305.93442623 426.229508197 1305.93442623 426.229508197 1290.37006181 c 0,21,22
 426.229508197 1232.90163934 426.229508197 1232.90163934 464 1155 c 1,23,24
 817.032258065 1500.67741935 817.032258065 1500.67741935 850 1535 c 1,25,26
 939 1476 939 1476 1001.5 1422.5 c 128,-1,27
 1064 1369 1064 1369 1152 1325 c 1,28,-1
 1352 1535 l 1,29,30
 1472 1470 1472 1470 1593 1405.5 c 128,-1,31
 1714 1341 1714 1341 1845 1295 c 1,32,33
 1684 1185 1684 1185 1675 922 c 1,34,-1
 1664 550 l 2,35,36
 1663.56756757 538.756756757 1663.56756757 538.756756757 1663.56756757 528.150474799 c 0,37,38
 1663.56756757 365.847526772 1663.56756757 365.847526772 1779 331 c 1,39,-1
 1620 31 l 1,40,41
 1475 84 1475 84 1419.3699187 195.743902439 c 128,-1,42
 1363.7398374 307.487804878 1363.7398374 307.487804878 1363.7398374 504.201731773 c 0,43,44
 1363.7398374 517.886178862 1363.7398374 517.886178862 1364 532 c 2,45,-1
 1366 784 l 2,46,47
 1366 875 1366 875 1399 943 c 128,-1,48
 1432 1011 1432 1011 1485 1080 c 1,49,50
 1284.00956023 1226.87762906 1284.00956023 1226.87762906 1184 1239 c 1,51,52
 1146 1182 1146 1182 1145.5 1104 c 128,-1,53
 1145 1026 1145 1026 1141 922 c 2,54,-1
 1130 550 l 2,55,56
 1129.6635514 538.728971963 1129.6635514 538.728971963 1129.6635514 527.986199668 c 0,57,58
 1129.6635514 347.14953271 1129.6635514 347.14953271 1225 316 c 1,59,-1
 991 31 l 1,60,61
 937 99 937 99 869 160 c 128,-1,62
 801 221 801 221 741 272 c 1,63,64
 771 307 771 307 800 382 c 128,-1,65
 829 457 829 457 830 532 c 1,66,-1
 865 1151 l 1,67,68
 778.014778325 1215.64039409 778.014778325 1215.64039409 730.195903807 1215.64039409 c 0,69,70
 718.093596059 1215.64039409 718.093596059 1215.64039409 708.5 1211.5 c 0,71,72
 661 1191 661 1191 517 1052 c 1,73,-1
 530 1029 l 1,74,75
 604.926829268 889.292682927 604.926829268 889.292682927 604.926829268 797.404521118 c 0,76,77
 604.926829268 771.56097561 604.926829268 771.56097561 599 749.5 c 0,78,79
 572 649 572 649 409 437 c 1,80,81
 503.04851752 368.601078167 503.04851752 368.601078167 671 331 c 1,0,-1
EndSplineSet
EndChar

StartChar: N
Encoding: 78 78 49
Width: 1374
Flags: HW
LayerCount: 2
Fore
SplineSet
666 331 m 1,0,-1
 499 31 l 1,1,2
 210.234042553 176.617021277 210.234042553 176.617021277 37 267 c 1,3,4
 259 474 259 474 284 558 c 0,5,6
 288.340277778 572.583333333 288.340277778 572.583333333 288.340277778 592.561873071 c 0,7,8
 288.340277778 687.659722222 288.340277778 687.659722222 205.170138889 870.829861111 c 128,-1,9
 122 1054 122 1054 94.7 1122.64 c 128,-1,10
 67.4 1191.28 67.4 1191.28 67.4 1228 c 128,-1,11
 67.4 1264.72 67.4 1264.72 79.5 1292 c 0,12,13
 107 1354 107 1354 211 1405.5 c 128,-1,14
 315 1457 315 1457 527 1535 c 1,15,16
 557 1465 557 1465 571 1430 c 1,17,18
 431 1384 431 1384 423 1314 c 0,19,20
 421.933333333 1304.66666667 421.933333333 1304.66666667 421.933333333 1294.65777778 c 0,21,22
 421.933333333 1229.6 421.933333333 1229.6 467 1136 c 1,23,24
 559 1234 559 1234 660.5 1344.5 c 128,-1,25
 762 1455 762 1455 840 1535 c 1,26,27
 960 1470 960 1470 1083 1405.5 c 128,-1,28
 1206 1341 1206 1341 1339 1295 c 1,29,30
 1176 1185 1176 1185 1169 922 c 1,31,-1
 1156 550 l 2,32,33
 1155.57894737 539.052631579 1155.57894737 539.052631579 1155.57894737 528.709141274 c 0,34,35
 1155.57894737 366.821862348 1155.57894737 366.821862348 1272 331 c 1,36,37
 1190 181 1190 181 1114 31 c 1,38,39
 969 84 969 84 912.925619835 196.636363636 c 128,-1,40
 856.851239669 309.272727273 856.851239669 309.272727273 856.851239669 510.72891196 c 0,41,42
 856.851239669 521.239669421 856.851239669 521.239669421 857 532 c 2,43,-1
 860 784 l 1,44,45
 860 875 860 875 892.5 943 c 128,-1,46
 925 1011 925 1011 977 1080 c 1,47,48
 872.977142857 1156.84571429 872.977142857 1156.84571429 773.345469388 1156.84571429 c 0,49,50
 660.38607443 1156.84571429 660.38607443 1156.84571429 524 1032 c 1,51,-1
 525 1029 l 1,52,53
 599.926829268 889.292682927 599.926829268 889.292682927 599.926829268 797.404521118 c 0,54,55
 599.926829268 771.56097561 599.926829268 771.56097561 594 749.5 c 0,56,57
 567 649 567 649 404 437 c 1,58,59
 498.04851752 368.601078167 498.04851752 368.601078167 666 331 c 1,0,-1
EndSplineSet
EndChar

StartChar: O
Encoding: 79 79 50
Width: 1626
Flags: HW
LayerCount: 2
Fore
SplineSet
936 1535 m 1,0,1
 927 1406 927 1406 926 1315 c 1,2,3
 974 1362 974 1362 1022 1411.5 c 128,-1,4
 1070 1461 1070 1461 1117 1502 c 1,5,6
 1261 1209 1261 1209 1594 1009 c 1,7,8
 1592 769 1592 769 1508.5 585.5 c 128,-1,9
 1425 402 1425 402 1307 278.5 c 128,-1,10
 1189 155 1189 155 1060 92.5 c 128,-1,11
 931 30 931 30 840 30 c 0,12,13
 416 30 416 30 248.5 300.5 c 128,-1,14
 81 571 81 571 34 932 c 1,15,16
 195 1165 195 1165 411 1327 c 128,-1,17
 627 1489 627 1489 936 1535 c 1,0,1
925 1187 m 1,18,19
 929 730 929 730 1035 495 c 1,20,21
 784 435 784 435 707 290 c 1,22,23
 804.828571429 231.485714286 804.828571429 231.485714286 915.195918367 231.485714286 c 0,24,25
 925.542857143 231.485714286 925.542857143 231.485714286 936 232 c 0,26,27
 1094 237 1094 237 1196.5 323 c 0,28,29
 1316.15311005 423.391877699 1316.15311005 423.391877699 1316.15311005 582.190036858 c 0,30,31
 1316.15311005 701.258373206 1316.15311005 701.258373206 1233.07655502 858.129186603 c 128,-1,32
 1150 1015 1150 1015 925 1187 c 1,18,19
617 359 m 1,33,34
 655.347826087 464.913043478 655.347826087 464.913043478 655.347826087 634.183364839 c 0,35,36
 655.347826087 650.304347826 655.347826087 650.304347826 652.673913043 737.652173913 c 128,-1,37
 650 825 650 825 648 986 c 128,-1,38
 646 1147 646 1147 624 1305 c 1,39,40
 404.023300971 1177.45048544 404.023300971 1177.45048544 404.023300971 899.547964935 c 0,41,42
 404.023300971 876.778640777 404.023300971 876.778640777 405.5 853 c 0,43,44
 425 539 425 539 617 359 c 1,33,34
EndSplineSet
EndChar

StartChar: P
Encoding: 80 80 51
Width: 1297
Flags: HW
LayerCount: 2
Fore
SplineSet
152 -350 m 1,0,1
 230.084713973 -123.965301657 230.084713973 -123.965301657 254 255 c 1,2,-1
 49 329 l 1,3,-1
 264 534 l 1,4,5
 264.473684211 580.105263158 264.473684211 580.105263158 264.473684211 733.921052632 c 128,-1,6
 264.473684211 887.736842105 264.473684211 887.736842105 251 1217 c 1,7,8
 199 1241 199 1241 145.5 1265.5 c 128,-1,9
 92 1290 92 1290 40 1316 c 1,10,-1
 212 1535 l 1,11,12
 486.276995305 1454.90140845 486.276995305 1454.90140845 607 1417 c 1,13,14
 604 1385 604 1385 602 1353 c 128,-1,15
 600 1321 600 1321 597 1291 c 1,16,-1
 901 1535 l 1,17,18
 1240.84615385 1278.30769231 1240.84615385 1278.30769231 1240.84615385 923.991309172 c 0,19,20
 1240.84615385 886.298076923 1240.84615385 886.298076923 1237 847.5 c 0,21,22
 1197 444 1197 444 881 31 c 1,23,-1
 560 146 l 1,24,25
 569 -15 569 -15 599 -69 c 1,26,27
 435.366120219 -170.366120219 435.366120219 -170.366120219 152 -350 c 1,0,1
890.651330612 330.908571429 m 0,28,29
 1014.79562044 330.908571429 1014.79562044 330.908571429 1014.79562044 520.488731419 c 0,30,31
 1014.79562044 680.562043796 1014.79562044 680.562043796 952.897810219 850.781021898 c 128,-1,32
 891 1021 891 1021 785 1118.5 c 0,33,34
 743.242424242 1156.90909091 743.242424242 1156.90909091 702.8815427 1156.90909091 c 0,35,36
 640.787878788 1156.90909091 640.787878788 1156.90909091 582 1066 c 1,37,38
 561 737 561 737 556 484 c 1,39,-1
 885 331 l 1,40,41
 887.857142857 330.908571429 887.857142857 330.908571429 890.651330612 330.908571429 c 0,28,29
EndSplineSet
EndChar

StartChar: Q
Encoding: 81 81 52
Width: 1616
Flags: HW
LayerCount: 2
Fore
SplineSet
926 1535 m 1,0,1
 917 1406 917 1406 916 1315 c 1,2,3
 964 1362 964 1362 1012 1411.5 c 128,-1,4
 1060 1461 1060 1461 1107 1502 c 1,5,6
 1251 1209 1251 1209 1584 1009 c 1,7,8
 1582 784 1582 784 1509 610 c 128,-1,9
 1436 436 1436 436 1329 314 c 1,10,11
 1591.21004566 -201.561643836 1591.21004566 -201.561643836 2295.21796877 -201.561643836 c 0,12,13
 2385.94063927 -201.561643836 2385.94063927 -201.561643836 2484 -193 c 1,14,-1
 2481 -291 l 1,15,16
 2273.64248705 -330.21761658 2273.64248705 -330.21761658 2068.20984456 -330.21761658 c 128,-1,17
 1862.77720207 -330.21761658 1862.77720207 -330.21761658 1670 -272 c 0,18,19
 1319 -166 1319 -166 1059 96 c 1,20,21
 930 30 930 30 830 30 c 0,22,23
 406 30 406 30 238.5 300.5 c 128,-1,24
 71 571 71 571 24 932 c 1,25,26
 185 1165 185 1165 401 1327 c 128,-1,27
 617 1489 617 1489 926 1535 c 1,0,1
915 1187 m 1,28,29
 919 730 919 730 1025 495 c 1,30,31
 774 435 774 435 697 290 c 1,32,33
 794.828571429 231.485714286 794.828571429 231.485714286 905.195918367 231.485714286 c 0,34,35
 915.542857143 231.485714286 915.542857143 231.485714286 926 232 c 0,36,37
 1084 237 1084 237 1186.5 323 c 0,38,39
 1306.15311005 423.391877699 1306.15311005 423.391877699 1306.15311005 582.190036858 c 0,40,41
 1306.15311005 701.258373206 1306.15311005 701.258373206 1223.07655502 858.129186603 c 128,-1,42
 1140 1015 1140 1015 915 1187 c 1,28,29
607 359 m 1,43,44
 645.347826087 464.913043478 645.347826087 464.913043478 645.347826087 634.183364839 c 0,45,46
 645.347826087 650.304347826 645.347826087 650.304347826 642.673913043 737.652173913 c 128,-1,47
 640 825 640 825 638 986 c 128,-1,48
 636 1147 636 1147 614 1305 c 1,49,50
 394.023300971 1177.45048544 394.023300971 1177.45048544 394.023300971 899.547964935 c 0,51,52
 394.023300971 876.778640777 394.023300971 876.778640777 395.5 853 c 0,53,54
 415 539 415 539 607 359 c 1,43,44
EndSplineSet
EndChar

StartChar: R
Encoding: 82 82 53
Width: 1439
Flags: HW
LayerCount: 2
Fore
SplineSet
36 220 m 1,0,1
 310.929919137 474.910750268 310.929919137 474.910750268 310.929919137 816.090641597 c 0,2,3
 310.929919137 1011.30997305 310.929919137 1011.30997305 217 1244 c 1,4,5
 156.25 1270.03571429 156.25 1270.03571429 49.9375 1270.03571429 c 0,6,7
 46 1270.03571429 46 1270.03571429 42 1270 c 1,8,-1
 375 1535 l 1,9,10
 532 1435 532 1435 584 1277 c 1,11,-1
 772 1535 l 1,12,13
 1155 1336.03896104 1155 1336.03896104 1389 1216 c 1,14,15
 1120.12244898 1074.33333333 1120.12244898 1074.33333333 1024 1022 c 1,16,17
 1097 857 1097 857 1166.5 691.5 c 128,-1,18
 1236 526 1236 526 1319 367 c 0,19,20
 1360 287 1360 287 1461 267 c 1,21,22
 1375 207 1375 207 1288.5 148.5 c 128,-1,23
 1202 90 1202 90 1116 31 c 1,24,25
 932 494 932 494 706 932 c 1,26,27
 776 977 776 977 846 1023.5 c 128,-1,28
 916 1070 916 1070 987 1116 c 1,29,30
 853.897297297 1191.79459459 853.897297297 1191.79459459 700 1285 c 1,31,-1
 605 1155 l 1,32,33
 605.831168831 1139.41558442 605.831168831 1139.41558442 605.831168831 1123.38859841 c 0,34,35
 605.831168831 830.896103896 605.831168831 830.896103896 329 391 c 1,36,-1
 595 301 l 2,37,38
 617.857142857 292.836734694 617.857142857 292.836734694 656.06122449 292.836734694 c 128,-1,39
 694.265306122 292.836734694 694.265306122 292.836734694 757 310 c 1,40,-1
 516 31 l 1,41,-1
 36 220 l 1,0,1
EndSplineSet
EndChar

StartChar: S
Encoding: 83 83 54
Width: 1475
Flags: HW
LayerCount: 2
Fore
SplineSet
994 1475 m 1,0,1
 1086.8 1428.6 1086.8 1428.6 1183.24285714 1428.6 c 128,-1,2
 1279.68571429 1428.6 1279.68571429 1428.6 1416 1502 c 1,3,-1
 1455 1455 l 1,4,5
 1306.99384615 1134.32 1306.99384615 1134.32 1094.6592 1134.32 c 0,6,7
 1036.44 1134.32 1036.44 1134.32 938.72 1168.16 c 0,8,9
 669.752267854 1261.30232558 669.752267854 1261.30232558 548.685235262 1261.30232558 c 0,10,11
 491.930232558 1261.30232558 491.930232558 1261.30232558 435 1250 c 0,12,13
 278.678321678 1217.43298368 278.678321678 1217.43298368 278.678321678 1065.67289354 c 0,14,15
 278.678321678 1011.57342657 278.678321678 1011.57342657 307 965 c 0,16,17
 357.178571429 878.979591837 357.178571429 878.979591837 465.033163265 878.979591837 c 128,-1,18
 572.887755102 878.979591837 572.887755102 878.979591837 659 1071 c 1,19,20
 752.038167939 1085.77862595 752.038167939 1085.77862595 834.923081406 1085.77862595 c 0,21,22
 998.809160305 1085.77862595 998.809160305 1085.77862595 1123 1028 c 0,23,24
 1310 941 1310 941 1370 784 c 0,25,26
 1394.82758621 719.034482759 1394.82758621 719.034482759 1394.82758621 632.568965517 c 128,-1,27
 1394.82758621 546.103448276 1394.82758621 546.103448276 1345 431.5 c 0,28,29
 1260 236 1260 236 996 62 c 0,30,31
 947.217391304 30.4347826087 947.217391304 30.4347826087 885.168241966 30.4347826087 c 0,32,33
 821.095652174 30.4347826087 821.095652174 30.4347826087 746 47 c 0,34,35
 546 89 546 89 376 200 c 128,-1,36
 206 311 206 311 94 506 c 1,37,38
 41.2575757576 595.393939394 41.2575757576 595.393939394 41.2575757576 703.167814509 c 0,39,40
 41.2575757576 715.954545455 41.2575757576 715.954545455 42 729 c 0,41,42
 77 1215 77 1215 426 1509 c 0,43,44
 492 1565 492 1565 608.5 1563.5 c 0,45,46
 801.911621741 1561.00972161 801.911621741 1561.00972161 994 1475 c 1,0,1
322 769 m 1,47,48
 360 594 360 594 610.5 457 c 0,49,50
 799.063186813 353.873626374 799.063186813 353.873626374 962.411408646 353.873626374 c 0,51,52
 1016.06593407 353.873626374 1016.06593407 353.873626374 1067 365 c 0,53,54
 1169 386 1169 386 1222.5 445 c 0,55,56
 1280.2519685 508.689086761 1280.2519685 508.689086761 1280.2519685 579.517771727 c 128,-1,57
 1280.2519685 650.346456693 1280.2519685 650.346456693 1222.62598425 717.173228346 c 128,-1,58
 1165 784 1165 784 1041 805 c 0,59,60
 1029.2 806.8 1029.2 806.8 996.1 806.8 c 128,-1,61
 963 806.8 963 806.8 887 778 c 0,62,63
 792 742 792 742 736 620 c 1,64,65
 726.981818182 619.612121212 726.981818182 619.612121212 717.864903581 619.612121212 c 0,66,67
 538.945454545 619.612121212 538.945454545 619.612121212 322 769 c 1,47,48
EndSplineSet
EndChar

StartChar: T
Encoding: 84 84 55
Width: 1261
Flags: HW
LayerCount: 2
Fore
SplineSet
26 732 m 1,0,1
 210.850993377 985.509933775 210.850993377 985.509933775 509 1259 c 1,2,3
 459.568888889 1298.90222222 459.568888889 1298.90222222 404.966666667 1298.90222222 c 0,4,5
 326.962888889 1298.90222222 326.962888889 1298.90222222 75 1195 c 1,6,-1
 316 1562 l 1,7,8
 607.296296296 1531.75 607.296296296 1531.75 857.523148148 1531.75 c 128,-1,9
 1107.75 1531.75 1107.75 1531.75 1336 1562 c 1,10,11
 1225.06666667 1306 1225.06666667 1306 1182 1204 c 1,12,13
 1071 1250 1071 1250 951 1276 c 1,14,-1
 959 455 l 1,15,16
 782 435 782 435 624 326 c 1,17,18
 751.630402385 220.704918033 751.630402385 220.704918033 930.774217586 220.704918033 c 128,-1,19
 1109.91803279 220.704918033 1109.91803279 220.704918033 1321 331 c 1,20,21
 1317 263 1317 263 1315 195 c 1,22,23
 765 -58 765 -58 465 114 c 128,-1,24
 165 286 165 286 26 732 c 1,0,1
611 1155 m 1,25,26
 456 1009 456 1009 427.5 853 c 0,27,28
 417.77245509 799.754491018 417.77245509 799.754491018 417.77245509 725.679640719 c 128,-1,29
 417.77245509 651.604790419 417.77245509 651.604790419 455.886227545 558.30239521 c 128,-1,30
 494 465 494 465 554 395 c 1,31,32
 626 466 626 466 630 614 c 0,33,34
 637.470588235 890.411764706 637.470588235 890.411764706 637.470588235 988.294117647 c 128,-1,35
 637.470588235 1086.17647059 637.470588235 1086.17647059 611 1155 c 1,25,26
EndSplineSet
EndChar

StartChar: U
Encoding: 85 85 56
Width: 1406
Flags: HW
LayerCount: 2
Fore
SplineSet
1152 31 m 1,0,1
 1012 119 1012 119 872 209 c 1,2,3
 900 304 900 304 917 407 c 1,4,-1
 577 31 l 1,5,6
 491 107 491 107 359 166 c 128,-1,7
 227 225 227 225 77 277 c 1,8,9
 276 410 276 410 326.5 582.5 c 0,10,11
 340.101333333 628.96 340.101333333 628.96 340.101333333 677.559943111 c 0,12,13
 340.101333333 809.405333333 340.101333333 809.405333333 235.444165975 964.237936376 c 128,-1,14
 130.786998617 1119.07053942 130.786998617 1119.07053942 130.786998617 1256.21694989 c 0,15,16
 130.786998617 1471.94190871 130.786998617 1471.94190871 401 1626 c 1,17,18
 453 1596 453 1596 509 1566 c 1,19,20
 351.237424547 1457.63782696 351.237424547 1457.63782696 351.237424547 1369.27372687 c 0,21,22
 351.237424547 1346.73641851 351.237424547 1346.73641851 361.5 1325.5 c 0,23,24
 412 1221 412 1221 656 1142 c 1,25,26
 656.165137615 1131.9266055 656.165137615 1131.9266055 656.165137615 1121.92441714 c 0,27,28
 656.165137615 808.883080862 656.165137615 808.883080862 470 495 c 1,29,30
 629.501557632 392.919003115 629.501557632 392.919003115 706.320687882 392.919003115 c 0,31,32
 777.770866205 392.919003115 777.770866205 392.919003115 937 586 c 1,33,34
 943.422222222 675.911111111 943.422222222 675.911111111 943.422222222 809.077777778 c 128,-1,35
 943.422222222 942.244444444 943.422222222 942.244444444 926 1137 c 1,36,37
 927.219047619 1145.68571429 927.219047619 1145.68571429 927.219047619 1153.76770975 c 0,38,39
 927.219047619 1198.72380952 927.219047619 1198.72380952 886.10952381 1227.36190476 c 128,-1,40
 845 1256 845 1256 801 1290 c 1,41,-1
 1040 1554 l 1,42,43
 1146.5 1486.5 1146.5 1486.5 1329 1379 c 1,44,45
 1264 1292 1264 1292 1255.5 1208 c 128,-1,46
 1247 1124 1247 1124 1247 1035 c 1,47,-1
 1241 645 l 2,48,49
 1240.52238806 627.328358209 1240.52238806 627.328358209 1240.52238806 610.747382491 c 0,50,51
 1240.52238806 488.462686567 1240.52238806 488.462686567 1268.26119403 421.231343284 c 128,-1,52
 1296 354 1296 354 1366 327 c 1,53,-1
 1152 31 l 1,0,1
EndSplineSet
EndChar

StartChar: V
Encoding: 86 86 57
Width: 1232
Flags: HW
LayerCount: 2
Fore
SplineSet
361 1584 m 1,0,1
 327.98089172 1539.05732484 327.98089172 1539.05732484 327.98089172 1494.87261146 c 128,-1,2
 327.98089172 1450.68789809 327.98089172 1450.68789809 370.99044586 1410.84394904 c 0,3,4
 474.670425806 1314.79506129 474.670425806 1314.79506129 514 1205 c 1,5,-1
 830 1562 l 1,6,7
 992 1387 992 1387 1085.94736842 1217 c 128,-1,8
 1179.89473684 1047 1179.89473684 1047 1179.89473684 875.185595568 c 0,9,10
 1179.89473684 829.368421053 1179.89473684 829.368421053 1174 782 c 0,11,12
 1152 624 1152 624 1019 454.5 c 128,-1,13
 886 285 886 285 732 54 c 1,14,15
 582.021619025 141.196733125 582.021619025 141.196733125 87 216 c 1,16,17
 136 281 136 281 179 364 c 128,-1,18
 222 447 222 447 226 551 c 2,19,-1
 237 890 l 2,20,21
 237.223214286 896.205357143 237.223214286 896.205357143 237.223214286 902.299107143 c 0,22,23
 237.223214286 1032.70535714 237.223214286 1032.70535714 135 1112 c 1,24,25
 46.3515151515 1183.18741965 46.3515151515 1183.18741965 46.3515151515 1274.59177227 c 0,26,27
 46.3515151515 1336.07878788 46.3515151515 1336.07878788 96 1409 c 2,28,-1
 184 1536 l 2,29,30
 224.257416268 1595.84210526 224.257416268 1595.84210526 287.745152355 1595.84210526 c 0,31,32
 324.684210526 1595.84210526 324.684210526 1595.84210526 361 1584 c 1,0,1
721 1146 m 0,33,34
 701.0625 1183.8125 701.0625 1183.8125 663.381355932 1183.8125 c 128,-1,35
 625.700211864 1183.8125 625.700211864 1183.8125 537 1092 c 1,36,37
 540.2 1058.4 540.2 1058.4 540.2 1038.2 c 128,-1,38
 540.2 1018 540.2 1018 540 1010 c 2,39,-1
 519 459 l 1,40,-1
 820 361 l 1,41,42
 907.296187683 451.158357771 907.296187683 451.158357771 907.296187683 584.068807458 c 0,43,44
 907.296187683 636.906158358 907.296187683 636.906158358 893.5 696.5 c 0,45,46
 845 906 845 906 721 1146 c 0,33,34
EndSplineSet
EndChar

StartChar: W
Encoding: 87 87 58
Width: 1797
Flags: HW
LayerCount: 2
Fore
SplineSet
1222 31 m 1,0,1
 1031.18032787 117.557377049 1031.18032787 117.557377049 766 217 c 1,2,-1
 622 31 l 1,3,4
 257.2 122.2 257.2 122.2 64 174 c 1,5,6
 206 319 206 319 260.465306122 391.489795918 c 128,-1,7
 314.930612245 463.979591837 314.930612245 463.979591837 314.930612245 516.044897959 c 128,-1,8
 314.930612245 568.110204082 314.930612245 568.110204082 292 617 c 1,9,-1
 76 1140 l 2,10,11
 46.4819277108 1212.53012048 46.4819277108 1212.53012048 46.4819277108 1235.28915663 c 128,-1,12
 46.4819277108 1258.04819277 46.4819277108 1258.04819277 47.5 1264 c 0,13,14
 54 1302 54 1302 111 1357 c 1,15,-1
 377 1605 l 1,16,17
 415 1594 415 1594 453.5 1584 c 128,-1,18
 492 1574 492 1574 531 1562 c 1,19,20
 397.043165468 1409.40569284 397.043165468 1409.40569284 397.043165468 1324.99482428 c 0,21,22
 397.043165468 1262.4676259 397.043165468 1262.4676259 439 1177 c 1,23,24
 606 1307 606 1307 797 1562 c 1,25,-1
 1081 1274 l 1,26,27
 1211.3190184 1349.18404908 1211.3190184 1349.18404908 1431 1562 c 1,28,29
 1615 1250 1615 1250 1688.5 987 c 0,30,31
 1715.99236641 888.625954198 1715.99236641 888.625954198 1715.99236641 803.403472991 c 0,32,33
 1715.99236641 660.786259542 1715.99236641 660.786259542 1628.49618321 539.893129771 c 128,-1,34
 1541 419 1541 419 1433.5 290 c 128,-1,35
 1326 161 1326 161 1222 31 c 1,0,1
1114 1121 m 1,36,-1
 1090 412 l 1,37,38
 1172 374 1172 374 1307 322 c 1,39,40
 1429.97536946 441.862068966 1429.97536946 441.862068966 1429.97536946 604.735227742 c 0,41,42
 1429.97536946 651.123152709 1429.97536946 651.123152709 1420 701 c 0,43,44
 1375 926 1375 926 1214 1195 c 1,45,-1
 1114 1121 l 1,36,-1
514 1035 m 1,46,47
 614.972413793 843.903448276 614.972413793 843.903448276 614.972413793 752.465258122 c 128,-1,48
 614.972413793 661.027067969 614.972413793 661.027067969 414 395 c 1,49,50
 573.919463087 321.496644295 573.919463087 321.496644295 652.442592676 321.496644295 c 0,51,52
 731.629474273 321.496644295 731.629474273 321.496644295 785 394 c 1,53,54
 809.56097561 656.495426829 809.56097561 656.495426829 809.56097561 809.174542683 c 128,-1,55
 809.56097561 961.853658537 809.56097561 961.853658537 800 1080 c 1,56,57
 719.333333333 1175.33333333 719.333333333 1175.33333333 670 1237 c 1,58,-1
 511 1040 l 1,59,-1
 514 1035 l 1,46,47
EndSplineSet
EndChar

StartChar: X
Encoding: 88 88 59
Width: 1387
Flags: HW
LayerCount: 2
Fore
SplineSet
420.5 460 m 0,0,1
 418.216216216 417.486486486 418.216216216 417.486486486 418.216216216 362.927027027 c 128,-1,2
 418.216216216 308.367567568 418.216216216 308.367567568 434 160 c 1,3,4
 263.807017544 119.403508772 263.807017544 119.403508772 39 7 c 1,5,6
 125.700803213 372.381956397 125.700803213 372.381956397 482 899 c 1,7,-1
 489 910 l 1,8,-1
 381 1080 l 1,9,10
 324 1165 324 1165 272 1236 c 0,11,12
 241 1277 241 1277 189 1286 c 128,-1,13
 137 1295 137 1295 85 1295 c 1,14,15
 149 1372 149 1372 232 1444.5 c 128,-1,16
 315 1517 315 1517 455 1591 c 1,17,18
 527.666666667 1457.29333333 527.666666667 1457.29333333 554.333333333 1409.64666667 c 0,19,20
 615.804226227 1299.81354879 615.804226227 1299.81354879 666 1215 c 1,21,-1
 685 1184 l 1,22,-1
 706 1214 l 1,23,24
 742 1261 742 1261 779.5 1310 c 128,-1,25
 817 1359 817 1359 854.5 1405.5 c 128,-1,26
 892 1452 892 1452 929.5 1499 c 128,-1,27
 967 1546 967 1546 1007 1594 c 1,28,29
 1054 1575 1054 1575 1099 1556 c 128,-1,30
 1144 1537 1144 1537 1187 1519 c 0,31,32
 1284.94444444 1478 1284.94444444 1478 1351 1449 c 1,33,-1
 1161 1134 l 1,34,35
 1035.43181818 1249.52272727 1035.43181818 1249.52272727 911 1291 c 1,36,37
 869.134328358 1245.32835821 869.134328358 1245.32835821 835.567164179 1203.6641791 c 128,-1,38
 802 1162 802 1162 784 1140.5 c 128,-1,39
 766 1119 766 1119 742 1087 c 1,40,-1
 750 1075 l 1,41,42
 919.203007519 787.180451128 919.203007519 787.180451128 1136 487 c 0,43,44
 1190 412 1190 412 1260 380 c 1,45,46
 1296 359 1296 359 1344 351 c 1,47,48
 1154.72384937 150.589958159 1154.72384937 150.589958159 965 1 c 1,49,50
 941 49 941 49 916.5 97.5 c 128,-1,51
 892 146 892 146 844.5 241.5 c 0,52,53
 672.55 587.21 672.55 587.21 571 770 c 1,54,-1
 550 807 l 1,55,-1
 529 770 l 1,56,57
 427 581 427 581 420.5 460 c 0,0,1
EndSplineSet
EndChar

StartChar: Y
Encoding: 89 89 60
Width: 1346
Flags: HW
LayerCount: 2
Fore
SplineSet
689.273186683 -565.017241379 m 0,0,1
 525.789981019 -565.017241379 525.789981019 -565.017241379 342.950704225 -467.61971831 c 0,2,3
 270.901408451 -429.23943662 270.901408451 -429.23943662 183.623795404 -429.23943662 c 128,-1,4
 96.3461823573 -429.23943662 96.3461823573 -429.23943662 -24 -503 c 1,5,-1
 -59 -456 l 1,6,7
 9.06451612903 -285.838709677 9.06451612903 -285.838709677 89.4413489736 -210.282991202 c 128,-1,8
 169.818181818 -134.727272727 169.818181818 -134.727272727 263.074380165 -134.727272727 c 0,9,10
 316.363636364 -134.727272727 316.363636364 -134.727272727 404.181818182 -168.863636364 c 0,11,12
 643.703072748 -261.969465649 643.703072748 -261.969465649 753.441582658 -261.969465649 c 0,13,14
 956.857013872 -261.969465649 956.857013872 -261.969465649 989 -132 c 0,15,16
 997.672131148 -96.9344262295 997.672131148 -96.9344262295 997.672131148 -54.2049180328 c 128,-1,17
 997.672131148 -11.4754098361 997.672131148 -11.4754098361 977.336065574 25.262295082 c 128,-1,18
 957 62 957 62 908.341463415 197.780487805 c 128,-1,19
 859.682926829 333.56097561 859.682926829 333.56097561 859.682926829 389.756692445 c 0,20,21
 859.682926829 399.390243902 859.682926829 399.390243902 861 407 c 1,22,-1
 521 31 l 1,23,24
 435 107 435 107 302.5 166 c 128,-1,25
 170 225 170 225 21 277 c 1,26,27
 220 410 220 410 270.5 582.5 c 0,28,29
 284.101333333 628.96 284.101333333 628.96 284.101333333 677.559943111 c 0,30,31
 284.101333333 809.405333333 284.101333333 809.405333333 178.968823475 963.976394315 c 128,-1,32
 73.8363136176 1118.5474553 73.8363136176 1118.5474553 73.8363136176 1255.69827578 c 0,33,34
 73.8363136176 1470.87482806 73.8363136176 1470.87482806 345 1626 c 1,35,36
 371 1611 371 1611 398 1596 c 128,-1,37
 425 1581 425 1581 451 1566 c 1,38,39
 294.512096774 1457.96774194 294.512096774 1457.96774194 294.512096774 1369.81197158 c 0,40,41
 294.512096774 1346.98991935 294.512096774 1346.98991935 305 1325.5 c 0,42,43
 356 1221 356 1221 600 1142 c 1,44,45
 600.019417476 1138.44660194 600.019417476 1138.44660194 600.019417476 1134.90206429 c 0,46,47
 600.019417476 808.63738993 600.019417476 808.63738993 414 495 c 1,48,49
 573.501557632 392.919003115 573.501557632 392.919003115 650.320687882 392.919003115 c 0,50,51
 721.770866205 392.919003115 721.770866205 392.919003115 881 586 c 1,52,53
 886.818181818 678.363636364 886.818181818 678.363636364 886.818181818 813.181818182 c 128,-1,54
 886.818181818 948 886.818181818 948 869 1137 c 1,55,56
 870.230769231 1145.76923077 870.230769231 1145.76923077 870.230769231 1153.92307692 c 0,57,58
 870.230769231 1198.76923077 870.230769231 1198.76923077 829.615384615 1227.38461538 c 128,-1,59
 789 1256 789 1256 744 1290 c 1,60,-1
 984 1554 l 1,61,62
 1066.01069519 1502.02139037 1066.01069519 1502.02139037 1272 1379 c 1,63,64
 1207 1292 1207 1292 1199 1208 c 128,-1,65
 1191 1124 1191 1124 1190 1035 c 2,66,-1
 1185 645 l 2,67,68
 1184.52238806 627.328358209 1184.52238806 627.328358209 1184.52238806 610.747382491 c 0,69,70
 1184.52238806 488.462686567 1184.52238806 488.462686567 1212.26119403 421.231343284 c 128,-1,71
 1240 354 1240 354 1310 327 c 1,72,73
 1224.72992701 210.722627737 1224.72992701 210.722627737 1132.3649635 -90.1386861314 c 128,-1,74
 1040 -391 1040 -391 867 -509 c 1,75,76
 782.482758621 -565.017241379 782.482758621 -565.017241379 689.273186683 -565.017241379 c 0,0,1
EndSplineSet
EndChar

StartChar: Z
Encoding: 90 90 61
Width: 1214
Flags: HW
LayerCount: 2
Fore
SplineSet
618.174107143 1517.35714286 m 1,0,-1
 866.66 1520.4 l 1,1,2
 1013.6 1520.4 1013.6 1520.4 1160 1515 c 1,3,-1
 760 1087 l 1,4,5
 1011 912 1011 912 1098 748 c 128,-1,6
 1185 584 1185 584 1183 417 c 128,-1,7
 1181 250 1181 250 1090.5 74.5 c 128,-1,8
 1000 -101 1000 -101 857 -232.5 c 128,-1,9
 714 -364 714 -364 534 -425 c 0,10,11
 440.153846154 -456.803418803 440.153846154 -456.803418803 349.632478632 -456.803418803 c 128,-1,12
 259.111111111 -456.803418803 259.111111111 -456.803418803 172 -430 c 1,13,14
 54.1294964029 -392.244604317 54.1294964029 -392.244604317 54.1294964029 -202.275141038 c 0,15,16
 54.1294964029 -185.949640288 54.1294964029 -185.949640288 55 -168.5 c 0,17,18
 66 52 66 52 130 194 c 0,19,20
 246 451 246 451 612 656 c 1,21,22
 517.304347826 729.173913043 517.304347826 729.173913043 324 806 c 1,23,-1
 716 1175 l 1,24,25
 597.218181818 1215.16363636 597.218181818 1215.16363636 444.479834711 1215.16363636 c 0,26,27
 221.883636364 1215.16363636 221.883636364 1215.16363636 50 1116 c 1,28,-1
 204 1562 l 1,29,30
 401.321428571 1517.35714286 401.321428571 1517.35714286 618.174107143 1517.35714286 c 1,0,-1
379 -193 m 0,31,32
 450.446540881 -233.251572327 450.446540881 -233.251572327 523.836477987 -233.251572327 c 128,-1,33
 597.226415094 -233.251572327 597.226415094 -233.251572327 672.5 -194 c 0,34,35
 824 -115 824 -115 854 -46 c 1,36,37
 896.735042735 29.2136752137 896.735042735 29.2136752137 896.735042735 145.336109285 c 0,38,39
 896.735042735 317.056818182 896.735042735 317.056818182 799 447 c 1,40,41
 753.181818182 456.503030303 753.181818182 456.503030303 686.106060606 456.503030303 c 128,-1,42
 619.03030303 456.503030303 619.03030303 456.503030303 509.015151515 411.251515152 c 128,-1,43
 399 366 399 366 336.5 292.5 c 128,-1,44
 274 219 274 219 240 62 c 0,45,46
 234.415458937 36.2125603865 234.415458937 36.2125603865 234.415458937 12.0168498681 c 0,47,48
 234.415458937 -111.096618357 234.415458937 -111.096618357 379 -193 c 0,31,32
EndSplineSet
EndChar

StartChar: bracketleft
Encoding: 91 91 62
Width: 477
Flags: HW
LayerCount: 2
Fore
SplineSet
128 -78 m 2,0,1
 108 -78 108 -78 108 -59 c 2,2,-1
 108 1505 l 2,3,4
 108 1524 108 1524 128 1524 c 2,5,-1
 495 1524 l 2,6,7
 515 1524 515 1524 515 1505 c 2,8,-1
 515 1460 l 2,9,10
 515 1440 515 1440 495 1440 c 2,11,-1
 351 1436 l 1,12,-1
 351 10 l 1,13,-1
 491 10 l 2,14,15
 511 10 511 10 511 -10 c 2,16,-1
 511 -59 l 2,17,18
 511 -78 511 -78 491 -78 c 2,19,-1
 128 -78 l 2,0,1
EndSplineSet
EndChar

StartChar: backslash
Encoding: 92 92 63
Width: 792
Flags: HW
LayerCount: 2
Fore
SplineSet
752 1 m 1,0,-1
 614 1 l 1,1,-1
 29 1539 l 1,2,-1
 167 1539 l 1,3,-1
 752 1 l 1,0,-1
EndSplineSet
EndChar

StartChar: bracketright
Encoding: 93 93 64
Width: 500
Flags: HW
LayerCount: 2
Fore
SplineSet
12 -77 m 2,0,1
 -8 -77 -8 -77 -8 -58 c 2,2,-1
 -8 -9 l 2,3,4
 -8 11 -8 11 12 11 c 2,5,-1
 163 11 l 1,6,-1
 163 1435 l 1,7,-1
 12 1435 l 2,8,9
 -8 1435 -8 1435 -8 1455 c 2,10,-1
 -8 1506 l 2,11,12
 -8 1525 -8 1525 12 1525 c 2,13,-1
 377 1525 l 2,14,15
 395 1525 395 1525 395 1506 c 2,16,-1
 395 -58 l 2,17,18
 395 -77 395 -77 377 -77 c 2,19,-1
 12 -77 l 2,0,1
EndSplineSet
EndChar

StartChar: asciicircum
Encoding: 94 94 65
Width: 598
Flags: HW
LayerCount: 2
Fore
SplineSet
60 1165 m 2,0,1
 38.3703703704 1165 38.3703703704 1165 38.3703703704 1182.26474623 c 0,2,3
 38.3703703704 1187.2962963 38.3703703704 1187.2962963 42 1193 c 2,4,-1
 226 1519 l 2,5,6
 231.333333333 1527 231.333333333 1527 242 1527 c 2,7,-1
 343 1527 l 2,8,9
 355.666666667 1527 355.666666667 1527 361 1519 c 2,10,-1
 541 1193 l 2,11,12
 544.272727273 1187 544.272727273 1187 544.272727273 1181.74380165 c 0,13,14
 544.272727273 1165 544.272727273 1165 525 1165 c 2,15,-1
 480 1165 l 2,16,17
 470 1165 470 1165 466 1169 c 2,18,-1
 291 1347 l 1,19,20
 119.648648649 1168.03303303 119.648648649 1168.03303303 112.824324324 1166.51651652 c 128,-1,21
 106 1165 106 1165 103 1165 c 2,22,-1
 60 1165 l 2,0,1
EndSplineSet
EndChar

StartChar: underscore
Encoding: 95 95 66
Width: 1210
Flags: HW
LayerCount: 2
Fore
SplineSet
-12 -289 m 2,0,1
 -12 -270 -12 -270 8 -270 c 2,2,-1
 1206 -270 l 2,3,4
 1227 -270 1227 -270 1227 -289 c 2,5,-1
 1223 -379 l 2,6,7
 1223 -399 1223 -399 1202 -399 c 2,8,-1
 8 -399 l 2,9,10
 -12 -399 -12 -399 -12 -379 c 2,11,-1
 -12 -289 l 2,0,1
EndSplineSet
EndChar

StartChar: grave
Encoding: 96 96 67
Width: 520
Flags: HW
LayerCount: 2
Fore
SplineSet
405 1680 m 1,0,1
 455.333333333 1516.41666667 455.333333333 1516.41666667 455.333333333 1324.52777778 c 0,2,3
 455.333333333 1308.33333333 455.333333333 1308.33333333 455 1292 c 1,4,-1
 175 1643 l 1,5,-1
 405 1680 l 1,0,1
EndSplineSet
EndChar

StartChar: a
Encoding: 97 97 68
Width: 922
Flags: HW
LayerCount: 2
Fore
SplineSet
37 759 m 1,0,-1
 427 1076 l 1,1,-1
 869 869 l 1,2,3
 791 801 791 801 790 716 c 2,4,-1
 786 385 l 2,5,6
 786 351 786 351 821.5 308 c 128,-1,7
 857 265 857 265 889 239 c 1,8,-1
 687 31 l 1,9,-1
 532 190 l 1,10,11
 476 145 476 145 419 107.5 c 128,-1,12
 362 70 362 70 317 29 c 1,13,14
 167 85 167 85 37 202 c 1,15,16
 74 249 74 249 80 339 c 1,17,-1
 77 641 l 2,18,19
 77.1956521739 645.108695652 77.1956521739 645.108695652 77.1956521739 649.183364839 c 0,20,21
 77.1956521739 707.586956522 77.1956521739 707.586956522 37 759 c 1,0,-1
380 836 m 1,22,23
 322 749 322 749 322 681 c 2,24,-1
 322 436 l 2,25,26
 322 361 322 361 349 329 c 1,27,28
 372 296 372 296 391.5 270 c 128,-1,29
 411 244 411 244 454 232 c 1,30,-1
 536 291 l 1,31,-1
 536 751 l 1,32,-1
 380 836 l 1,22,23
EndSplineSet
EndChar

StartChar: b
Encoding: 98 98 69
Width: 877
Flags: HW
LayerCount: 2
Fore
SplineSet
31 1294 m 1,0,-1
 42 1341 l 1,1,2
 241 1411 241 1411 471 1535 c 1,3,-1
 534 1496 l 1,4,5
 392 1411 392 1411 391 1175 c 2,6,-1
 390 969 l 1,7,-1
 556 1101 l 1,8,9
 632 1069 632 1069 696 977 c 0,10,11
 827.062787136 788.597243492 827.062787136 788.597243492 849 578 c 0,12,13
 851.564102564 553.384615385 851.564102564 553.384615385 851.564102564 512.948717949 c 128,-1,14
 851.564102564 472.512820513 851.564102564 472.512820513 830 445 c 2,15,-1
 499 14 l 1,16,-1
 70 227 l 1,17,18
 95 281 95 281 117 342.5 c 128,-1,19
 139 404 139 404 139 476 c 2,20,-1
 131 1170 l 2,21,22
 131 1244 131 1244 31 1294 c 1,0,-1
390 850 m 1,23,-1
 387 417 l 1,24,25
 396 367 396 367 455.4625 339.4875 c 128,-1,26
 514.925 311.975 514.925 311.975 535.6375 311.975 c 128,-1,27
 556.35 311.975 556.35 311.975 564 314 c 0,28,29
 650.082706767 335.721804511 650.082706767 335.721804511 650.082706767 426.050879077 c 0,30,31
 650.082706767 448 650.082706767 448 645 474 c 0,32,33
 611 642 611 642 546.5 728 c 128,-1,34
 482 814 482 814 390 850 c 1,23,-1
EndSplineSet
EndChar

StartChar: c
Encoding: 99 99 70
Width: 785
Flags: HW
LayerCount: 2
Fore
SplineSet
692 362 m 1,0,-1
 354 29 l 1,1,2
 33.9512195122 241.37804878 33.9512195122 241.37804878 33.9512195122 523.034949435 c 0,3,4
 33.9512195122 661.926829268 33.9512195122 661.926829268 123.975609756 796.963414634 c 128,-1,5
 214 932 214 932 414 1092 c 1,6,7
 500 1036 500 1036 591 982.5 c 128,-1,8
 682 929 682 929 770 876 c 1,9,-1
 570 700 l 1,10,11
 510 737 510 737 474.5 763.5 c 128,-1,12
 439 790 439 790 399.717391304 807.782608696 c 128,-1,13
 360.434782609 825.565217391 360.434782609 825.565217391 342.5 825.565217391 c 128,-1,14
 324.565217391 825.565217391 324.565217391 825.565217391 305 806 c 0,15,16
 242.848739496 743.12605042 242.848739496 743.12605042 242.848739496 664.322576089 c 0,17,18
 242.848739496 525.097478992 242.848739496 525.097478992 405 367 c 0,19,20
 445.657534247 328.520547945 445.657534247 328.520547945 484.470163258 328.520547945 c 0,21,22
 550.788386833 328.520547945 550.788386833 328.520547945 606 421 c 1,23,24
 627 406 627 406 648.5 391.5 c 128,-1,25
 670 377 670 377 692 362 c 1,0,-1
EndSplineSet
EndChar

StartChar: d
Encoding: 100 100 71
Width: 842
Flags: HW
LayerCount: 2
Fore
SplineSet
357 1025 m 1,0,1
 280 1156 280 1156 154 1301 c 1,2,-1
 419 1440 l 1,3,4
 779 1001 779 1001 819 404 c 1,5,6
 694 310 694 310 607.5 230 c 128,-1,7
 521 150 521 150 465 31 c 1,8,9
 355 80 355 80 245.5 130.5 c 128,-1,10
 136 181 136 181 44 265 c 1,11,12
 40 416 40 416 38 568 c 128,-1,13
 36 720 36 720 34 872 c 1,14,15
 273.941624365 981.852791878 273.941624365 981.852791878 357 1025 c 1,0,1
562 286 m 1,17,18
 562.148809524 296.357142857 562.148809524 296.357142857 562.148809524 306.682397959 c 0,19,20
 562.148809524 643.285714286 562.148809524 643.285714286 404 946 c 1,21,22
 295 894 295 894 274.5 757.5 c 0,23,24
 266.644859813 705.196261682 266.644859813 705.196261682 266.644859813 622.864485981 c 0,25,26
 266.644859813 540.53271028 266.644859813 540.53271028 287 411 c 1,27,28
 427 300 427 300 562 286 c 1,17,18
EndSplineSet
EndChar

StartChar: e
Encoding: 101 101 72
Width: 794
Flags: HW
LayerCount: 2
Fore
SplineSet
520 31 m 1,0,-1
 41 222 l 1,1,2
 67.5350877193 371.561403509 67.5350877193 371.561403509 67.5350877193 534.280701754 c 128,-1,3
 67.5350877193 697 67.5350877193 697 37 874 c 1,4,-1
 382 1077 l 1,5,-1
 382 1080 l 1,6,-1
 384 1079 l 1,7,-1
 385 1079 l 1,8,-1
 774 800 l 1,9,-1
 369 374 l 1,10,11
 410 325 410 325 460.192307692 320.038461538 c 128,-1,12
 510.384615385 315.076923077 510.384615385 315.076923077 542.538461538 315.076923077 c 128,-1,13
 574.692307692 315.076923077 574.692307692 315.076923077 619.346153846 318.538461538 c 128,-1,14
 664 322 664 322 729 324 c 1,15,16
 676 250 676 250 624 177 c 128,-1,17
 572 104 572 104 520 31 c 1,0,-1
354.065250846 810.01754386 m 0,18,19
 295.739726027 810.01754386 295.739726027 810.01754386 295.739726027 651.859448302 c 0,20,21
 295.739726027 562.136986301 295.739726027 562.136986301 326 472 c 1,22,23
 326 463 326 463 329 457 c 1,24,-1
 490 627 l 2,25,26
 506.666666667 645.333333333 506.666666667 645.333333333 506.666666667 663.361111111 c 128,-1,27
 506.666666667 681.388888889 506.666666667 681.388888889 489.333333333 709.194444444 c 128,-1,28
 472 737 472 737 454 755 c 1,29,30
 391.122807018 810.01754386 391.122807018 810.01754386 354.065250846 810.01754386 c 0,18,19
EndSplineSet
EndChar

StartChar: f
Encoding: 102 102 73
Width: 555
Flags: HW
LayerCount: 2
Fore
SplineSet
586 1202 m 1,0,1
 511 1247 511 1247 410 1259 c 1,2,3
 392 1232 392 1232 357 1182 c 1,4,5
 376 1141 376 1141 386 1081 c 1,6,-1
 549 1081 l 1,7,-1
 549 829 l 1,8,-1
 401 829 l 1,9,10
 401 735 401 735 397.5 638.5 c 128,-1,11
 394 542 394 542 392 458 c 0,12,13
 387.47446703 267.92761527 387.47446703 267.92761527 117 -395 c 1,14,15
 80 -358 80 -358 35 -346 c 1,16,17
 104 -100 104 -100 117.386792453 183.556603774 c 128,-1,18
 130.773584906 467.113207547 130.773584906 467.113207547 130.773584906 655.094339623 c 128,-1,19
 130.773584906 843.075471698 130.773584906 843.075471698 127 991 c 0,20,21
 125 1072 125 1072 46 1136 c 1,22,23
 132 1227 132 1227 203.5 1316 c 128,-1,24
 275 1405 275 1405 361 1497 c 1,25,26
 454 1486 454 1486 559.5 1465 c 128,-1,27
 665 1444 665 1444 766 1424 c 1,28,29
 721 1367 721 1367 676 1312 c 128,-1,30
 631 1257 631 1257 586 1202 c 1,0,1
EndSplineSet
EndChar

StartChar: g
Encoding: 103 103 74
Width: 970
Flags: HW
LayerCount: 2
Fore
SplineSet
67 759 m 1,0,-1
 457 1076 l 1,1,-1
 876 869 l 1,2,3
 799 801 799 801 799 716 c 1,4,-1
 795 385 l 2,5,6
 794 351 794 351 854 250 c 128,-1,7
 914 149 914 149 944 122 c 1,8,-1
 549 -331 l 1,9,10
 315 -279 315 -279 32 -259 c 1,11,-1
 290 66 l 1,12,13
 161 119 161 119 69 202 c 1,14,15
 102 246 102 246 111 339 c 1,16,-1
 109 641 l 1,17,18
 110 707 110 707 67 759 c 1,0,-1
701 -15 m 1,19,20
 585 117 585 117 575 307 c 1,21,-1
 301 -43 l 1,22,23
 459 -43 459 -43 640 -93 c 1,24,-1
 701 -15 l 1,19,20
569 421 m 1,25,-1
 566 751 l 1,26,-1
 389 836 l 1,27,28
 331 749 331 749 331 681 c 2,29,-1
 331 436 l 2,30,31
 331 362 331 362 353.5 333 c 0,32,33
 376 304 376 304 393 284.5 c 128,-1,34
 410 265 410 265 436 252 c 1,35,-1
 569 421 l 1,25,-1
EndSplineSet
EndChar

StartChar: h
Encoding: 104 104 75
Width: 892
Flags: HW
LayerCount: 2
Fore
SplineSet
537 259 m 1,0,1
 365 68.5714285714 365 68.5714285714 315 15 c 1,2,3
 241 71 241 71 167.5 127.5 c 128,-1,4
 94 184 94 184 21 240 c 1,5,6
 89 299 89 299 110 349 c 128,-1,7
 131 399 131 399 132 444 c 2,8,-1
 137 1049 l 2,9,10
 137 1114 137 1114 131.5 1204 c 128,-1,11
 126 1294 126 1294 87 1356 c 1,12,-1
 417 1535 l 1,13,14
 390 1415 390 1415 385.5 1286 c 128,-1,15
 381 1157 381 1157 381 1024 c 2,16,-1
 381 931 l 1,17,-1
 576 1080 l 1,18,19
 855.476874003 814.685805423 855.476874003 814.685805423 855.476874003 477.60801162 c 0,20,21
 855.476874003 104.358279148 855.476874003 104.358279148 564 -343 c 1,22,-1
 415 -296 l 1,23,24
 640.106382979 -49.3617021277 640.106382979 -49.3617021277 640.106382979 268.640108646 c 0,25,26
 640.106382979 604.554443054 640.106382979 604.554443054 380 831 c 1,27,-1
 377 437 l 2,28,29
 377 362 377 362 391 352 c 128,-1,30
 405 342 405 342 537 259 c 1,0,1
EndSplineSet
EndChar

StartChar: i
Encoding: 105 105 76
Width: 470
Flags: HW
LayerCount: 2
Fore
SplineSet
29 890 m 1,0,-1
 180 1080 l 1,1,-1
 404 975 l 1,2,3
 392 934 392 934 378 895 c 128,-1,4
 364 856 364 856 364 815 c 1,5,-1
 350 409 l 2,6,7
 349.739130435 404.391304348 349.739130435 404.391304348 349.739130435 399.937618147 c 0,8,9
 349.739130435 353.173913043 349.739130435 353.173913043 379.869565217 322.086956522 c 0,10,11
 410 291 410 291 449 275 c 1,12,-1
 249 31 l 1,13,-1
 37 202 l 1,14,15
 95 271 95 271 95 340 c 1,16,-1
 102 794 l 2,17,18
 102 842 102 842 29 890 c 1,0,-1
59 1089 m 1,19,-1
 139 1484 l 1,20,-1
 436 1365 l 1,21,-1
 59 1089 l 1,19,-1
EndSplineSet
EndChar

StartChar: j
Encoding: 106 106 77
Width: 480
Flags: HW
LayerCount: 2
Fore
SplineSet
60 890 m 1,0,-1
 211 1080 l 1,1,-1
 435 975 l 1,2,3
 424 934 424 934 411.5 895 c 128,-1,4
 399 856 399 856 392 790.5 c 0,5,6
 385 725 385 725 385 635.5 c 128,-1,7
 385 546 385 546 383 460 c 0,8,9
 381 374 381 374 335 177 c 128,-1,10
 289 -20 289 -20 136 -395 c 1,11,12
 104 -364 104 -364 30 -346 c 1,13,14
 95 -111 95 -111 111 133 c 128,-1,15
 127 377 127 377 131 620 c 2,16,-1
 134 794 l 2,17,18
 134 842 134 842 60 890 c 1,0,-1
90 1089 m 1,19,-1
 170 1484 l 1,20,-1
 469 1365 l 1,21,-1
 90 1089 l 1,19,-1
EndSplineSet
EndChar

StartChar: k
Encoding: 107 107 78
Width: 711
Flags: HW
LayerCount: 2
Fore
SplineSet
546 259 m 1,0,1
 374 68.5714285714 374 68.5714285714 324 15 c 1,2,3
 149.571428571 147 149.571428571 147 30 240 c 1,4,5
 138.591677943 335.625507442 138.591677943 335.625507442 141 444 c 1,6,-1
 144 719 l 1,7,-1
 50 719 l 1,8,-1
 145 899 l 1,9,-1
 146 1049 l 2,10,11
 146 1114 146 1114 140.5 1204 c 128,-1,12
 135 1294 135 1294 96 1356 c 1,13,-1
 426 1535 l 1,14,15
 401 1432 401 1432 396 1301 c 1,16,-1
 556 1461 l 1,17,-1
 751 1215 l 1,18,-1
 514 935 l 1,19,-1
 712 935 l 1,20,-1
 599 719 l 1,21,-1
 389 719 l 1,22,-1
 386 437 l 2,23,24
 386 362 386 362 399 344 c 128,-1,25
 412 326 412 326 546 259 c 1,0,1
391 1180 m 1,26,27
 390 1141 390 1141 390 1102.5 c 2,28,-1
 390 935 l 1,29,-1
 439 935 l 1,30,-1
 551 1066 l 1,31,32
 531 1197 531 1197 447 1227 c 1,33,-1
 391 1180 l 1,26,27
EndSplineSet
EndChar

StartChar: l
Encoding: 108 108 79
Width: 556
Flags: HW
LayerCount: 2
Fore
SplineSet
537 259 m 1,0,1
 365 68.5714285714 365 68.5714285714 315 15 c 1,2,3
 241 71 241 71 167.5 127.5 c 128,-1,4
 94 184 94 184 21 240 c 1,5,6
 89 299 89 299 110 349 c 128,-1,7
 131 399 131 399 132 444 c 2,8,-1
 137 1049 l 2,9,10
 137 1114 137 1114 131.5 1204 c 128,-1,11
 126 1294 126 1294 87 1356 c 1,12,-1
 417 1535 l 1,13,14
 390 1415 390 1415 385.5 1286 c 128,-1,15
 381 1157 381 1157 381 1024 c 2,16,-1
 377 437 l 2,17,18
 377 362 377 362 391 352 c 128,-1,19
 405 342 405 342 537 259 c 1,0,1
EndSplineSet
EndChar

StartChar: m
Encoding: 109 109 80
Width: 1350
Flags: HW
LayerCount: 2
Fore
SplineSet
410 931 m 1,0,-1
 529 1080 l 1,1,-1
 785 891 l 1,2,-1
 936 1080 l 1,3,-1
 1255 849 l 1,4,-1
 1225 731 l 1,5,-1
 1212 409 l 2,6,7
 1211.73913043 404.391304348 1211.73913043 404.391304348 1211.73913043 399.937618147 c 0,8,9
 1211.73913043 353.173913043 1211.73913043 353.173913043 1241.86956522 322.086956522 c 128,-1,10
 1272 291 1272 291 1310 275 c 1,11,-1
 1110 31 l 1,12,13
 1036 89 1036 89 996.397727273 133.914772727 c 128,-1,14
 956.795454545 178.829545455 956.795454545 178.829545455 956.795454545 318.972882231 c 0,15,16
 956.795454545 329.227272727 956.795454545 329.227272727 957 340 c 2,17,-1
 964 710 l 2,18,19
 964 750.05 964 750.05 857 841 c 1,20,-1
 816 770 l 1,21,-1
 801 409 l 2,22,23
 800.878787879 405.787878788 800.878787879 405.787878788 800.878787879 402.651056015 c 0,24,25
 800.878787879 354.03030303 800.878787879 354.03030303 830.939393939 322.515151515 c 128,-1,26
 861 291 861 291 900 275 c 1,27,-1
 700 31 l 1,28,-1
 487 202 l 1,29,30
 544 269 544 269 546 340 c 2,31,-1
 552 710 l 2,32,33
 552 754.135135135 552 754.135135135 435 849 c 1,34,-1
 376 779 l 1,35,-1
 367 409 l 2,36,37
 366 356 366 356 396.5 323.5 c 128,-1,38
 427 291 427 291 466 275 c 1,39,-1
 266 31 l 1,40,-1
 55 202 l 1,41,42
 112 271 112 271 112 340 c 1,43,-1
 120 794 l 2,44,45
 120 842 120 842 46 890 c 1,46,-1
 197 1080 l 1,47,-1
 410 932 l 1,48,-1
 410 931 l 1,0,-1
EndSplineSet
EndChar

StartChar: n
Encoding: 110 110 81
Width: 929
Flags: HW
LayerCount: 2
Fore
SplineSet
404 934 m 1,0,-1
 521 1080 l 1,1,-1
 840 849 l 1,2,-1
 810 731 l 1,3,-1
 797 409 l 2,4,5
 796.878787879 405.787878788 796.878787879 405.787878788 796.878787879 402.651056015 c 0,6,7
 796.878787879 354.03030303 796.878787879 354.03030303 826.939393939 322.515151515 c 128,-1,8
 857 291 857 291 895 275 c 1,9,-1
 695 31 l 1,10,11
 621 89 621 89 581.397727273 133.914772727 c 128,-1,12
 541.795454545 178.829545455 541.795454545 178.829545455 541.795454545 318.972882231 c 0,13,14
 541.795454545 329.227272727 541.795454545 329.227272727 542 340 c 2,15,-1
 549 710 l 2,16,17
 549 751.538461538 549 751.538461538 421 850 c 1,18,-1
 381 787 l 1,19,-1
 362 409 l 2,20,21
 361.878787879 405.787878788 361.878787879 405.787878788 361.878787879 402.651056015 c 0,22,23
 361.878787879 354.03030303 361.878787879 354.03030303 391.939393939 322.515151515 c 128,-1,24
 422 291 422 291 461 275 c 1,25,-1
 261 31 l 1,26,-1
 50 202 l 1,27,28
 107 271 107 271 107 340 c 1,29,-1
 115 794 l 2,30,31
 115 842 115 842 41 890 c 1,32,-1
 192 1080 l 1,33,-1
 404 934 l 1,0,-1
EndSplineSet
EndChar

StartChar: o
Encoding: 111 111 82
Width: 864
Flags: HW
LayerCount: 2
Fore
SplineSet
80 801 m 1,0,1
 313.370588235 957.382352941 313.370588235 957.382352941 467 1084 c 1,2,3
 544 1051 544 1051 622.5 966.5 c 0,4,5
 791.338313979 784.756846736 791.338313979 784.756846736 822 587.5 c 0,6,7
 825.571428571 564.523809524 825.571428571 564.523809524 825.571428571 543.9569161 c 0,8,9
 825.571428571 478.142857143 825.571428571 478.142857143 789 437 c 1,10,-1
 457 14 l 1,11,-1
 29 225 l 1,12,13
 97 366.44 97 366.44 97 469 c 2,14,-1
 95 702 l 1,15,16
 92 774 92 774 80 801 c 1,0,1
349 836 m 1,17,-1
 346 411 l 1,18,19
 355 362 355 362 415.038961039 334.668831169 c 128,-1,20
 475.077922078 307.337662338 475.077922078 307.337662338 494.714285714 307.337662338 c 128,-1,21
 514.350649351 307.337662338 514.350649351 307.337662338 521 309 c 0,22,23
 609.007407407 329.185185185 609.007407407 329.185185185 609.007407407 419.776296296 c 0,24,25
 609.007407407 441.385185185 609.007407407 441.385185185 604 467 c 0,26,27
 570 632 570 632 505.5 716.5 c 128,-1,28
 441 801 441 801 349 836 c 1,17,-1
EndSplineSet
EndChar

StartChar: p
Encoding: 112 112 83
Width: 943
Flags: HW
LayerCount: 2
Fore
SplineSet
419 -251 m 1,0,1
 247.607178969 -277.504044489 247.607178969 -277.504044489 68 -398 c 1,2,-1
 18 -344 l 1,3,4
 48 -326 48 -326 100.5 -222.5 c 128,-1,5
 153 -119 153 -119 153 -36 c 1,6,-1
 156 169 l 1,7,-1
 14 225 l 1,8,9
 48 292 48 292 88.5 343 c 128,-1,10
 129 394 129 394 158 457 c 1,11,-1
 159 662 l 2,12,13
 159 742 159 742 93.5 789 c 128,-1,14
 28 836 28 836 2 854 c 1,15,-1
 226 1084 l 1,16,-1
 418 909 l 1,17,-1
 559 1084 l 1,18,19
 636 1051 636 1051 714.5 966.5 c 0,20,21
 883.338313979 784.756846736 883.338313979 784.756846736 914 587.5 c 0,22,23
 917.571428571 564.523809524 917.571428571 564.523809524 917.571428571 543.9569161 c 0,24,25
 917.571428571 478.142857143 917.571428571 478.142857143 881 437 c 1,26,-1
 549 14 l 1,27,-1
 408 70 l 1,28,-1
 407 31 l 2,29,30
 406.833333333 22.6666666667 406.833333333 22.6666666667 406.833333333 9.52777777778 c 128,-1,31
 406.833333333 -3.61111111111 406.833333333 -3.61111111111 419 -251 c 1,0,1
414 371 m 1,32,33
 552.339622642 307.150943396 552.339622642 307.150943396 599.97009612 307.150943396 c 0,34,35
 608.188679245 307.150943396 608.188679245 307.150943396 614 309 c 0,36,37
 701.044776119 329.149253731 701.044776119 329.149253731 701.044776119 419.453998663 c 0,38,39
 701.044776119 441.194029851 701.044776119 441.194029851 696 467 c 0,40,41
 671 594 671 594 606 677 c 128,-1,42
 541 760 541 760 467 807 c 1,43,44
 451 780 451 780 436 752 c 128,-1,45
 421 724 421 724 421 682 c 2,46,-1
 414 371 l 1,32,33
EndSplineSet
EndChar

StartChar: q
Encoding: 113 113 84
Width: 881
Flags: HW
LayerCount: 2
Fore
SplineSet
16 759 m 1,0,-1
 406 1076 l 1,1,-1
 825 869 l 1,2,3
 764 816 764 816 762 716 c 1,4,-1
 760 -28 l 2,5,6
 760 -60 760 -60 787 -102.5 c 128,-1,7
 814 -145 814 -145 845 -174 c 1,8,-1
 667 -381 l 1,9,10
 614 -340 614 -340 563 -290.5 c 128,-1,11
 512 -241 512 -241 512 -149 c 2,12,-1
 511 190 l 1,13,14
 455 145 455 145 398 107.5 c 128,-1,15
 341 70 341 70 296 29 c 1,16,17
 146 85 146 85 16 202 c 1,18,19
 52 249 52 249 59 339 c 1,20,-1
 56 641 l 2,21,22
 56.1956521739 645.108695652 56.1956521739 645.108695652 56.1956521739 649.183364839 c 0,23,24
 56.1956521739 707.586956522 56.1956521739 707.586956522 16 759 c 1,0,-1
354 836 m 1,25,26
 295 750 295 750 295 681 c 2,27,-1
 295 436 l 2,28,29
 295 362 295 362 320.5 329 c 0,30,31
 346 296 346 296 368 270 c 128,-1,32
 390 244 390 244 432 232 c 1,33,-1
 515 291 l 1,34,-1
 515 751 l 1,35,-1
 354 836 l 1,25,26
EndSplineSet
EndChar

StartChar: r
Encoding: 114 114 85
Width: 811
Flags: HW
LayerCount: 2
Fore
SplineSet
395 934 m 1,0,-1
 525 1066 l 1,1,2
 726 927 726 927 797 784 c 1,3,-1
 637 570 l 1,4,5
 610 649 610 649 563.5 709 c 128,-1,6
 517 769 517 769 409 832 c 1,7,-1
 376 787 l 1,8,-1
 357 446 l 2,9,10
 354 394 354 394 423 338 c 128,-1,11
 492 282 492 282 530 266 c 1,12,-1
 364 31 l 1,13,-1
 54 272 l 1,14,15
 110 339 110 339 112 410 c 1,16,-1
 110 794 l 1,17,18
 107 842 107 842 36 890 c 1,19,-1
 187 1080 l 1,20,-1
 395 934 l 1,0,-1
EndSplineSet
EndChar

StartChar: s
Encoding: 115 115 86
Width: 897
Flags: HW
LayerCount: 2
Fore
SplineSet
26 217 m 1,0,-1
 200 399 l 1,1,2
 106 525 106 525 67 684 c 1,3,4
 187 882 187 882 422 1080 c 1,5,6
 607 1029 607 1029 846 984 c 1,7,-1
 870 990 l 1,8,-1
 682 797 l 1,9,-1
 846 386 l 1,10,11
 660 247 660 247 504 31 c 1,12,13
 309 146 309 146 26 217 c 1,0,-1
555.104581165 285.828282828 m 0,14,15
 656.320512821 285.828282828 656.320512821 285.828282828 656.320512821 357.887409599 c 0,16,17
 656.320512821 421.206243032 656.320512821 421.206243032 512 622 c 1,18,-1
 272 375 l 1,19,20
 426.564309764 285.828282828 426.564309764 285.828282828 555.104581165 285.828282828 c 0,14,15
397 604 m 1,21,-1
 591 804 l 1,22,23
 417.050420168 851.268907563 417.050420168 851.268907563 358.147058824 851.268907563 c 128,-1,24
 299.243697479 851.268907563 299.243697479 851.268907563 292.763784223 839.650582814 c 128,-1,25
 286.283870968 828.032258065 286.283870968 828.032258065 286.283870968 817.684037461 c 0,26,27
 286.283870968 761.2 286.283870968 761.2 397 604 c 1,21,-1
EndSplineSet
EndChar

StartChar: t
Encoding: 116 116 87
Width: 580
Flags: HW
LayerCount: 2
Fore
SplineSet
535 275 m 1,0,-1
 312 31 l 1,1,2
 239 87 239 87 165 143.5 c 128,-1,3
 91 200 91 200 19 256 c 1,4,5
 127.591677943 351.625507442 127.591677943 351.625507442 130 460 c 1,6,-1
 134 875 l 1,7,-1
 47 875 l 1,8,-1
 47 954 l 1,9,10
 182.683937824 1148.94818653 182.683937824 1148.94818653 391 1459 c 1,11,-1
 442 1451 l 1,12,13
 419 1342 419 1342 401.5 1271.5 c 128,-1,14
 384 1201 384 1201 380 1096 c 1,15,-1
 556 1096 l 1,16,-1
 556 880 l 1,17,-1
 377 880 l 1,18,-1
 375 454 l 2,19,20
 375 379 375 379 388.5 369 c 128,-1,21
 402 359 402 359 535 275 c 1,0,-1
EndSplineSet
EndChar

StartChar: u
Encoding: 117 117 88
Width: 979
Flags: HW
LayerCount: 2
Fore
SplineSet
520 890 m 1,0,-1
 671 1080 l 1,1,-1
 895 975 l 1,2,3
 884 934 884 934 869.5 895 c 128,-1,4
 855 856 855 856 855 815 c 1,5,-1
 841 409 l 2,6,7
 840.878787879 405.787878788 840.878787879 405.787878788 840.878787879 402.651056015 c 0,8,9
 840.878787879 354.03030303 840.878787879 354.03030303 870.939393939 322.515151515 c 0,10,11
 901 291 901 291 940 275 c 1,12,-1
 740 31 l 1,13,-1
 522 221 l 1,14,-1
 262 31 l 1,15,-1
 51 202 l 1,16,17
 109 271 109 271 109 340 c 1,18,-1
 116 794 l 2,19,20
 116 842 116 842 42 890 c 1,21,-1
 194 1080 l 1,22,-1
 417 975 l 1,23,24
 406 934 406 934 391.5 895 c 128,-1,25
 377 856 377 856 377 815 c 1,26,-1
 364 409 l 2,27,28
 362 361 362 361 400.5 308.5 c 0,29,30
 411.698060942 293.229916898 411.698060942 293.229916898 432.159690303 293.229916898 c 0,31,32
 482.047091413 293.229916898 482.047091413 293.229916898 587 384 c 1,33,-1
 594 794 l 2,34,35
 594 842 594 842 520 890 c 1,0,-1
EndSplineSet
EndChar

StartChar: v
Encoding: 118 118 89
Width: 938
Flags: HW
LayerCount: 2
Fore
SplineSet
529 14 m 1,0,1
 184.874263261 147.497053045 184.874263261 147.497053045 64 199 c 1,2,3
 98 266 98 266 116.5 305.5 c 128,-1,4
 135 345 135 345 138 457 c 1,5,-1
 139 662 l 2,6,7
 139 742 139 742 73.5 789 c 128,-1,8
 8 836 8 836 -18 854 c 1,9,-1
 205 1084 l 1,10,-1
 398 909 l 1,11,-1
 539 1084 l 1,12,13
 615 1051 615 1051 694 966.5 c 0,14,15
 863.223568282 785.495044053 863.223568282 785.495044053 894 587.5 c 0,16,17
 897.515625 564.8828125 897.515625 564.8828125 897.515625 544.600219727 c 0,18,19
 897.515625 478.34375 897.515625 478.34375 860 437 c 1,20,-1
 529 14 l 1,0,1
394 371 m 1,21,22
 532.339622642 307.150943396 532.339622642 307.150943396 579.97009612 307.150943396 c 0,23,24
 588.188679245 307.150943396 588.188679245 307.150943396 594 309 c 0,25,26
 680.4 329 680.4 329 680.4 418.12 c 0,27,28
 680.4 440.4 680.4 440.4 675 467 c 0,29,30
 650 594 650 594 585 677 c 128,-1,31
 520 760 520 760 447 807 c 1,32,33
 402 765 402 765 400 704 c 2,34,-1
 394 371 l 1,21,22
EndSplineSet
EndChar

StartChar: w
Encoding: 119 119 90
Width: 1290
Flags: HW
LayerCount: 2
Fore
SplineSet
401 914 m 1,0,1
 541.047619048 1068.46428571 541.047619048 1068.46428571 551 1080 c 1,2,-1
 785 909 l 1,3,-1
 915 1084 l 1,4,5
 985 1051 985 1051 1057 966.5 c 0,6,7
 1211.2848222 785.429618387 1211.2848222 785.429618387 1240 587.5 c 0,8,9
 1243.3220339 564.601694915 1243.3220339 564.601694915 1243.3220339 544.09638035 c 0,10,11
 1243.3220339 478.186440678 1243.3220339 478.186440678 1209 437 c 1,12,-1
 905 14 l 1,13,14
 884 21 884 21 726.5 113.5 c 128,-1,15
 569 206 569 206 571 210 c 1,16,-1
 402 31 l 1,17,-1
 54 260 l 1,18,19
 115.749347258 343.361618799 115.749347258 343.361618799 119 410 c 1,20,-1
 124 790 l 2,21,22
 124 821 124 821 94.5 841.5 c 128,-1,23
 65 862 65 862 41 880 c 1,24,-1
 187 1080 l 1,25,-1
 401 914 l 1,0,1
522 297 m 1,26,27
 537 331 537 331 541 355.5 c 128,-1,28
 545 380 545 380 545 457 c 2,29,-1
 546 662 l 2,30,31
 546 701 546 701 529 735 c 1,32,33
 506 759 506 759 494 772.5 c 128,-1,34
 482 786 482 786 442 812 c 1,35,36
 379 770 379 770 377 724 c 2,37,-1
 366 446 l 2,38,39
 364 397 364 397 424.5 357 c 128,-1,40
 485 317 485 317 522 297 c 1,26,27
781 371 m 1,41,42
 908.698113208 307.150943396 908.698113208 307.150943396 951.77750089 307.150943396 c 0,43,44
 959.452830189 307.150943396 959.452830189 307.150943396 965 309 c 0,45,46
 1044.06722689 329.378151261 1044.06722689 329.378151261 1044.06722689 421.514794153 c 0,47,48
 1044.06722689 442.411764706 1044.06722689 442.411764706 1040 467 c 0,49,50
 1016 594 1016 594 956 677 c 128,-1,51
 896 760 896 760 829 807 c 1,52,53
 787 764 787 764 786 704 c 2,54,-1
 781 371 l 1,41,42
EndSplineSet
EndChar

StartChar: x
Encoding: 120 120 91
Width: 836
Flags: HW
LayerCount: 2
Fore
SplineSet
261.95483871 323.33760666 m 1,0,-1
 274 144 l 1,1,2
 157.868852459 113.704918033 157.868852459 113.704918033 9 31 c 1,3,4
 56 275 56 275 276 630 c 1,5,6
 207 750 207 750 154 827 c 0,7,8
 135 854 135 854 98 856.5 c 128,-1,9
 61 859 61 859 27 859 c 1,10,11
 66 914 66 914 121 969 c 128,-1,12
 176 1024 176 1024 277 1080 c 1,13,14
 330 972 330 972 407 829 c 1,15,16
 494 950 494 950 591 1080 c 1,17,18
 720 1022 720 1022 817 977 c 1,19,-1
 689 747 l 1,20,21
 616 825 616 825 544 855 c 1,22,23
 491 787 491 787 456 740 c 1,24,25
 569 539 569 539 684 369 c 1,26,27
 735 291 735 291 821 285 c 1,28,29
 686.491803279 132.557377049 686.491803279 132.557377049 566 31 c 1,30,31
 507 155 507 155 449.5 282 c 128,-1,32
 392 409 392 409 327 534 c 1,33,34
 261.95483871 403.909677419 261.95483871 403.909677419 261.95483871 323.33760666 c 1,0,-1
EndSplineSet
EndChar

StartChar: y
Encoding: 121 121 92
Width: 976
Flags: HW
LayerCount: 2
Fore
SplineSet
464 34 m 1,0,-1
 352 85 l 1,1,-1
 111 159 l 1,2,3
 171 234 171 234 171 340 c 1,4,-1
 179 794 l 2,5,6
 179 844 179 844 105 890 c 1,7,-1
 256 1080 l 1,8,-1
 496 921 l 1,9,10
 485 880 485 880 465.5 862.5 c 128,-1,11
 446 845 446 845 442 804 c 2,12,-1
 397 335 l 2,13,14
 394 304 394 304 437.5 239 c 128,-1,15
 481 174 481 174 547 171 c 1,16,17
 651 410 651 410 657 794 c 1,18,19
 659 841 659 841 585 890 c 1,20,-1
 736 1080 l 1,21,-1
 962 921 l 1,22,23
 951 880 951 880 939 867.5 c 128,-1,24
 927 855 927 855 902 743.5 c 0,25,26
 877 632 877 632 794.5 436 c 128,-1,27
 712 240 712 240 613.5 69.5 c 128,-1,28
 515 -101 515 -101 412.5 -227.5 c 128,-1,29
 310 -354 310 -354 229 -396 c 1,30,-1
 35 -238 l 1,31,32
 327 -131 327 -131 464 34 c 1,0,-1
EndSplineSet
EndChar

StartChar: z
Encoding: 122 122 93
Width: 776
Flags: HW
LayerCount: 2
Fore
SplineSet
391 461 m 1,0,1
 333.352668213 511.617169374 333.352668213 511.617169374 210 567 c 1,2,-1
 456 829 l 1,3,4
 414.673469388 836.43877551 414.673469388 836.43877551 367.274468971 836.43877551 c 0,5,6
 242.632653061 836.43877551 242.632653061 836.43877551 76 785 c 1,7,-1
 135 1104 l 1,8,9
 254.111111111 1057.77777778 254.111111111 1057.77777778 389.814814815 1057.77777778 c 0,10,11
 406.777777778 1057.77777778 406.777777778 1057.77777778 492.888888889 1061.38888889 c 128,-1,12
 579 1065 579 1065 735 1070 c 1,13,-1
 484 767 l 1,14,15
 641 642 641 642 695.5 525.5 c 128,-1,16
 750 409 750 409 750 296 c 1,17,18
 746 49 746 49 544 -170.5 c 0,19,20
 396.449251248 -330.833610649 396.449251248 -330.833610649 235.55959978 -330.833610649 c 0,21,22
 176.188019967 -330.833610649 176.188019967 -330.833610649 108.812400788 -306.123701876 c 128,-1,23
 41.4367816092 -281.413793103 41.4367816092 -281.413793103 41.4367816092 -147.710529793 c 0,24,25
 41.4367816092 13.091954023 41.4367816092 13.091954023 89 132 c 0,26,27
 162 316 162 316 391 461 c 1,0,1
245 -141 m 0,28,29
 288.404255319 -171.638297872 288.404255319 -171.638297872 329.882978723 -171.638297872 c 128,-1,30
 371.361702128 -171.638297872 371.361702128 -171.638297872 411 -143.5 c 0,31,32
 560.460227273 -37.4016905163 560.460227273 -37.4016905163 560.460227273 117.721300362 c 0,33,34
 560.460227273 208.9375 560.460227273 208.9375 507 312 c 1,35,36
 482.153846154 317.553846154 482.153846154 317.553846154 440.165384615 317.553846154 c 128,-1,37
 398.176923077 317.553846154 398.176923077 317.553846154 328.588461538 278.276923077 c 128,-1,38
 259 239 259 239 220 186.5 c 128,-1,39
 181 134 181 134 160.5 34 c 0,40,41
 157.151394422 17.6653386454 157.151394422 17.6653386454 157.151394422 1.99773019476 c 0,42,43
 157.151394422 -78.2509960159 157.151394422 -78.2509960159 245 -141 c 0,28,29
EndSplineSet
EndChar

StartChar: braceleft
Encoding: 123 123 94
Width: 555
Flags: HW
LayerCount: 2
Fore
SplineSet
563 -49 m 2,0,1
 563 -69 563 -69 534.5 -72 c 128,-1,2
 506 -75 506 -75 501 -75 c 2,3,-1
 473 -77 l 1,4,-1
 452 -77 l 2,5,6
 371.555555556 -77 371.555555556 -77 288 -45 c 1,7,8
 238.959183673 -17.7551020408 238.959183673 -17.7551020408 211 13 c 1,9,10
 183.8 36.8 183.8 36.8 172 84 c 1,11,-1
 170 516 l 2,12,13
 170 547.375 170 547.375 159 586.6875 c 0,14,15
 144.503311258 638.496688742 144.503311258 638.496688742 126.251655629 657.248344371 c 0,16,17
 96.7691912332 687.538474246 96.7691912332 687.538474246 59.3845956166 699.269237123 c 128,-1,18
 22 711 22 711 19.375 716.25 c 128,-1,19
 16.75 721.5 16.75 721.5 16.75 727.96875 c 0,20,21
 16.75 743.6875 16.75 743.6875 38.375 748.34375 c 0,22,23
 96.9576427256 760.957642726 96.9576427256 760.957642726 125 789 c 1,24,25
 157 831.666666667 157 831.666666667 157 895 c 2,26,-1
 157 1383 l 1,27,28
 161.432835821 1408.11940299 161.432835821 1408.11940299 189.71641791 1441.05970149 c 0,29,30
 238.205122998 1497.53177122 238.205122998 1497.53177122 286 1510 c 1,31,32
 394 1528 394 1528 520 1528 c 2,33,-1
 551 1528 l 2,34,35
 571 1528 571 1528 571 1508 c 2,36,-1
 571 1485 l 2,37,38
 571 1477 571 1477 565 1471 c 128,-1,39
 559 1465 559 1465 546 1464.5 c 128,-1,40
 533 1464 533 1464 512.5 1460 c 128,-1,41
 492 1456 492 1456 471.5 1450 c 0,42,43
 437.971962617 1440.18691589 437.971962617 1440.18691589 399 1422 c 1,44,45
 377.433962264 1395.64150943 377.433962264 1395.64150943 368 1373 c 1,46,-1
 368 902 l 1,47,48
 351.164383562 804.353424658 351.164383562 804.353424658 264 723 c 1,49,50
 308.983606557 684.442622951 308.983606557 684.442622951 342 641 c 1,51,52
 370 596.2 370 596.2 370 529 c 2,53,-1
 370 95 l 1,54,55
 383.181818182 52.8181818182 383.181818182 52.8181818182 396.090909091 38.4090909091 c 0,56,57
 411.966057441 20.6892950392 411.966057441 20.6892950392 440 2 c 1,58,59
 452 -2 452 -2 462.5 -3 c 128,-1,60
 473 -4 473 -4 483 -4 c 2,61,-1
 512 -4 l 1,62,63
 532 0 532 0 535.5 0 c 2,64,-1
 542 0 l 2,65,66
 563 0 563 0 563 -20 c 2,67,-1
 563 -49 l 2,0,1
EndSplineSet
EndChar

StartChar: bar
Encoding: 124 124 95
Width: 236
Flags: HW
LayerCount: 2
Fore
SplineSet
171 0 m 1,0,-1
 49 0 l 1,1,-1
 49 1534 l 1,2,-1
 171 1534 l 1,3,-1
 171 0 l 1,0,-1
EndSplineSet
EndChar

StartChar: braceright
Encoding: 125 125 96
Width: 596
Flags: HW
LayerCount: 2
Fore
SplineSet
220 -68 m 1,0,1
 200 -72 200 -72 171.125 -72 c 2,2,-1
 94.5 -72 l 2,3,4
 74 -72 74 -72 47.5 -70 c 128,-1,5
 21 -68 21 -68 21 -48 c 2,6,-1
 21 -19 l 2,7,8
 21 -10 21 -10 28.5 -3.5 c 128,-1,9
 36 3 36 3 45.5 1 c 0,10,11
 64.5 -3 64.5 -3 76 -3 c 2,12,-1
 95 -3 l 1,13,-1
 111 -1 l 258,14,15
 113 -1 113 -1 114 0 c 128,-1,16
 115 1 115 1 117 1 c 2,17,-1
 113 1 l 1,18,19
 119 3 119 3 129 4.5 c 128,-1,20
 139 6 139 6 150 9.5 c 0,21,22
 179.671942541 18.9410726265 179.671942541 18.9410726265 205 77 c 1,23,-1
 205 558 l 1,24,25
 208.273972603 590.739726027 208.273972603 590.739726027 228 628 c 1,26,27
 276.532110092 693.412844037 276.532110092 693.412844037 363 728 c 1,28,29
 333.142857143 741.571428571 333.142857143 741.571428571 316 753 c 1,30,-1
 316 751 l 1,31,32
 277.755813953 771.860465116 277.755813953 771.860465116 236 829 c 0,33,34
 234 832 234 832 233 836 c 128,-1,35
 232 840 232 840 230 843 c 2,36,-1
 218 872 l 2,37,38
 214 880 214 880 214 892 c 1,39,-1
 212 903 l 1,40,-1
 212 1326 l 2,41,42
 212 1371 212 1371 187 1412 c 1,43,44
 175.218928024 1426.21128187 175.218928024 1426.21128187 140 1449 c 1,45,-1
 144 1449 l 1,46,47
 127.909090909 1454.36363636 127.909090909 1454.36363636 97 1458 c 1,48,-1
 48 1460 l 1,49,-1
 31 1460 l 2,50,51
 11 1460 11 1460 11 1480 c 2,52,-1
 11 1511 l 2,53,54
 11 1531 11 1531 31 1531 c 2,55,-1
 68 1531 l 1,56,-1
 109 1533 l 1,57,58
 197.5 1533 197.5 1533 248.75 1521.5 c 128,-1,59
 300 1510 300 1510 345 1488 c 1,60,61
 385.384615385 1461.07692308 385.384615385 1461.07692308 396.692307692 1432.03846154 c 0,62,63
 416 1382.45578231 416 1382.45578231 416 1318 c 2,64,-1
 416 929 l 1,65,66
 418 915 418 915 420.5 900.5 c 128,-1,67
 423 886 423 886 425 876 c 128,-1,68
 427 866 427 866 429 853 c 128,-1,69
 431 840 431 840 437 823 c 1,70,-1
 435 825 l 1,71,72
 441 806 441 806 453 794 c 1,73,74
 499.495934959 767.081300813 499.495934959 767.081300813 531.24796748 757.040650407 c 128,-1,75
 563 747 563 747 565.785714286 741.428571429 c 128,-1,76
 568.571428571 735.857142857 568.571428571 735.857142857 568.571428571 728.746031746 c 0,77,78
 568.571428571 712.367346939 568.571428571 712.367346939 552 710 c 1,79,80
 475.045226131 704.08040201 475.045226131 704.08040201 439 640 c 1,81,-1
 441 642 l 1,82,83
 420 603 420 603 414 546 c 1,84,85
 416 498 416 498 416 452.5 c 2,86,-1
 416 213 l 2,87,88
 416 159 416 159 414 102 c 1,89,-1
 414 89 l 1,90,91
 409.795918367 55.3673469388 409.795918367 55.3673469388 399.897959184 38.6836734694 c 0,92,93
 388 18.6288659794 388 18.6288659794 388 16 c 1,94,-1
 390 18 l 1,95,96
 369.388379205 -21.1620795107 369.388379205 -21.1620795107 330 -40 c 1,97,-1
 332 -40 l 1,98,99
 283.466666667 -68 283.466666667 -68 220 -68 c 1,0,1
EndSplineSet
EndChar

StartChar: asciitilde
Encoding: 126 126 97
Width: 635
Flags: HW
LayerCount: 2
Fore
SplineSet
177 835 m 1,0,-1
 171 833 l 1,1,2
 158 817 158 817 143 801 c 128,-1,3
 128 785 128 785 121.5 775.5 c 0,4,5
 111.578947368 761 111.578947368 761 101 761 c 2,6,-1
 93 761 l 2,7,8
 61 761 61 761 48 782 c 1,9,10
 44.4 785.6 44.4 785.6 44.4 791.6 c 128,-1,11
 44.4 797.6 44.4 797.6 52.7 815.8 c 0,12,13
 75.8706353749 866.607899256 75.8706353749 866.607899256 156 962 c 1,14,15
 166 971 166 971 169 973 c 0,16,17
 205 997 205 997 215.5 996.5 c 128,-1,18
 226 996 226 996 226.86037961 995.620126537 c 128,-1,19
 227.72075922 995.240253073 227.72075922 995.240253073 230 995 c 1,20,-1
 212 974 l 1,21,-1
 236 993 l 1,22,-1
 238 995 l 1,23,-1
 484 892 l 1,24,-1
 490 892 l 2,25,26
 501 892 501 892 519 898 c 1,27,28
 527 906 527 906 535.5 920.5 c 128,-1,29
 544 935 544 935 550.5 946.5 c 0,30,31
 561.280487805 965.573170732 561.280487805 965.573170732 578 960 c 2,32,-1
 617 947 l 2,33,34
 631.777777778 942.074074074 631.777777778 942.074074074 631.777777778 928.691358025 c 0,35,36
 631.777777778 902.369369369 631.777777778 902.369369369 509 763 c 1,37,38
 486.352941176 728 486.352941176 728 453 728 c 2,39,-1
 437 728 l 2,40,41
 425.8 728 425.8 728 410.4 736 c 128,-1,42
 395 744 395 744 381 748.5 c 128,-1,43
 367 753 367 753 355.5 758 c 128,-1,44
 344 763 344 763 340.5 764 c 128,-1,45
 337 765 337 765 314.5 774 c 0,46,47
 255.095238095 797.761904762 255.095238095 797.761904762 185 835 c 1,48,-1
 177 835 l 1,0,-1
233 994 m 1,49,50
 232 994.25 232 994.25 232 995 c 1,51,52
 232 994 232 994 233 994 c 1,49,50
185 835 m 1,53,-1
 183 835 l 1,54,-1
 185 835 l 1,53,-1
EndSplineSet
EndChar

StartChar: exclamdown
Encoding: 161 161 99
Width: 454
Flags: HW
LayerCount: 2
Fore
SplineSet
218 681 m 1,0,-1
 12 886 l 1,1,-1
 218 1092 l 1,2,-1
 424 886 l 1,3,-1
 218 681 l 1,0,-1
436 -224 m 1,4,-1
 94 -514 l 1,5,-1
 126 486 l 1,6,-1
 306 647 l 1,7,8
 306 367 306 367 324.5 125 c 128,-1,9
 343 -117 343 -117 436 -224 c 1,4,-1
EndSplineSet
EndChar

StartChar: cent
Encoding: 162 162 100
Width: 875
Flags: HW
LayerCount: 2
Fore
SplineSet
533 345 m 1,0,1
 650.054852321 381.016877637 650.054852321 381.016877637 699 463 c 1,2,3
 720 448 720 448 741.5 433.5 c 128,-1,4
 763 419 763 419 785 404 c 1,5,6
 700 321 700 321 625.5 261 c 128,-1,7
 551 201 551 201 533 186 c 1,8,-1
 533 0 l 1,9,-1
 411 0 l 1,10,-1
 411 82 l 1,11,12
 380 54 380 54 354 29 c 1,13,14
 33.9512195122 241.37804878 33.9512195122 241.37804878 33.9512195122 523.034949435 c 0,15,16
 33.9512195122 661.938339271 33.9512195122 661.938339271 123.475609756 796.469169636 c 128,-1,17
 213 931 213 931 412 1090 c 1,18,-1
 412 1124 l 1,19,-1
 534 1124 l 1,20,-1
 534 1016 l 1,21,22
 628.902654867 958.380530973 628.902654867 958.380530973 832 846 c 1,23,-1
 632 670 l 1,24,25
 572 702 572 702 533 725 c 1,26,-1
 533 345 l 1,0,1
412 801 m 1,27,28
 394 810 394 810 377.217391304 817.782608696 c 128,-1,29
 360.434782609 825.565217391 360.434782609 825.565217391 342.5 825.565217391 c 128,-1,30
 324.565217391 825.565217391 324.565217391 825.565217391 305 806 c 0,31,32
 242.848739496 743.12605042 242.848739496 743.12605042 242.848739496 664.322576089 c 0,33,34
 242.848739496 525.097478992 242.848739496 525.097478992 405 367 c 0,35,36
 408 364 408 364 411 361 c 1,37,-1
 412 801 l 1,27,28
EndSplineSet
EndChar

StartChar: sterling
Encoding: 163 163 101
Width: 1166
Flags: HW
LayerCount: 2
Fore
SplineSet
99 533 m 1,0,-1
 152 689 l 1,1,-1
 244 688 l 1,2,3
 239 755 239 755 194.5 857 c 128,-1,4
 150 959 150 959 130.714285714 1038.07142857 c 128,-1,5
 111.428571429 1117.14285714 111.428571429 1117.14285714 111.428571429 1145.02040816 c 0,6,7
 111.428571429 1214.71428571 111.428571429 1214.71428571 165 1239 c 0,8,9
 331 1312 331 1312 510 1373.5 c 128,-1,10
 689 1435 689 1435 808.803191489 1485.44148936 c 128,-1,11
 928.606382979 1535.88297872 928.606382979 1535.88297872 971.949468085 1535.88297872 c 128,-1,12
 1015.29255319 1535.88297872 1015.29255319 1535.88297872 1039.5 1518 c 0,13,14
 1095 1477 1095 1477 1122 1375 c 1,15,16
 980 1372 980 1372 840 1342 c 128,-1,17
 700 1312 700 1312 602 1257 c 1,18,19
 580 1246 580 1246 537 1221 c 0,20,21
 452.414634146 1170.41463415 452.414634146 1170.41463415 452.414634146 1094.38488995 c 0,22,23
 452.414634146 1068.48780488 452.414634146 1068.48780488 501 862 c 0,24,25
 516.695652174 790.956521739 516.695652174 790.956521739 516.695652174 746.304347826 c 128,-1,26
 516.695652174 701.652173913 516.695652174 701.652173913 516 686 c 1,27,-1
 742 685 l 1,28,-1
 689 529 l 1,29,-1
 493 530 l 1,30,31
 467 439 467 439 416 401 c 1,32,33
 754.095238095 305.761904762 754.095238095 305.761904762 1100.3537415 305.761904762 c 0,34,35
 1117.66666667 305.761904762 1117.66666667 305.761904762 1135 306 c 1,36,37
 1089 232 1089 232 1060.5 192 c 128,-1,38
 1032 152 1032 152 987 80 c 1,39,40
 954.425742574 31.4851485149 954.425742574 31.4851485149 887.266640525 31.4851485149 c 0,41,42
 857.524752475 31.4851485149 857.524752475 31.4851485149 739.262376238 56.2425742574 c 128,-1,43
 621 81 621 81 420.5 121.5 c 128,-1,44
 220 162 220 162 21 204 c 1,45,46
 180 396 180 396 224 532 c 1,47,-1
 99 533 l 1,0,-1
EndSplineSet
EndChar

StartChar: currency
Encoding: 164 164 102
Width: 1024
Flags: HW
LayerCount: 2
Fore
SplineSet
905 702 m 0,0,1
 905 559.153846154 905 559.153846154 825 473 c 1,2,-1
 997 307 l 2,3,4
 1001.05 303.4 1001.05 303.4 1001.05 298.05 c 128,-1,5
 1001.05 292.7 1001.05 292.7 995 285 c 2,6,-1
 928 213 l 2,7,8
 922.666666667 205.888888889 922.666666667 205.888888889 919 205.888888889 c 0,9,10
 908.481481481 205.888888889 908.481481481 205.888888889 899 213 c 1,11,-1
 723 379 l 1,12,13
 647 322 647 322 509.25 322 c 128,-1,14
 371.5 322 371.5 322 291 385 c 1,15,-1
 123 211 l 1,16,17
 112.545454545 198.454545455 112.545454545 198.454545455 98 213 c 1,18,-1
 31 289 l 2,19,20
 25.4615384615 294.538461538 25.4615384615 294.538461538 25.4615384615 300.538461538 c 128,-1,21
 25.4615384615 306.538461538 25.4615384615 306.538461538 33 313 c 2,22,-1
 201 475 l 1,23,24
 124.933189655 556.137931034 124.933189655 556.137931034 121 682 c 1,25,26
 125.947447447 830.423423423 125.947447447 830.423423423 207 915 c 1,27,-1
 37 1067 l 2,28,29
 26.4782608696 1077.52173913 26.4782608696 1077.52173913 26.4782608696 1085.41304348 c 128,-1,30
 26.4782608696 1093.30434783 26.4782608696 1093.30434783 33 1102 c 1,31,-1
 102 1176 l 2,32,33
 107.076923077 1181.53846154 107.076923077 1181.53846154 113.269230769 1181.53846154 c 128,-1,34
 119.461538462 1181.53846154 119.461538462 1181.53846154 127 1174 c 2,35,-1
 307 1004 l 1,36,37
 392 1059 392 1059 517.847826087 1059 c 128,-1,38
 643.695652174 1059 643.695652174 1059 725 1004 c 1,39,-1
 897 1171 l 2,40,41
 902.5 1177 902.5 1177 908.25 1177 c 128,-1,42
 914 1177 914 1177 920 1171 c 2,43,-1
 987 1104 l 2,44,45
 1001.5 1089.5 1001.5 1089.5 991 1079 c 2,46,-1
 827 926 l 1,47,48
 880.343963554 866.728929385 880.343963554 866.728929385 899.5 760.5 c 0,49,50
 905 730 905 730 905 702 c 0,0,1
516 465 m 0,51,52
 565 465 565 465 603 481.5 c 128,-1,53
 641 498 641 498 666.5 527.5 c 0,54,55
 717 585.921568627 717 585.921568627 717 690 c 0,56,57
 717 844.533333333 717 844.533333333 603.5 897.5 c 0,58,59
 566 915 566 915 516 915 c 128,-1,60
 466 915 466 915 427 897 c 128,-1,61
 388 879 388 879 362.5 848 c 0,62,63
 311 785.392156863 311 785.392156863 311 690 c 256,64,65
 311 596.754716981 311 596.754716981 365.5 533 c 0,66,67
 423.629032258 465 423.629032258 465 516 465 c 0,51,52
EndSplineSet
EndChar

StartChar: yen
Encoding: 165 165 103
Width: 1085
Flags: HW
LayerCount: 2
Fore
SplineSet
127 827 m 1,0,-1
 359 827 l 1,1,-1
 161 1297 l 1,2,-1
 68 1297 l 1,3,-1
 68 1365 l 1,4,-1
 494 1365 l 1,5,-1
 494 1297 l 1,6,-1
 407 1297 l 1,7,-1
 636 746 l 1,8,-1
 788 1114 l 2,9,10
 827 1208 827 1208 827 1229 c 0,11,12
 827 1283 827 1283 792 1293 c 0,13,14
 776 1297 776 1297 717 1297 c 1,15,-1
 717 1365 l 1,16,-1
 1045 1365 l 1,17,-1
 1045 1297 l 1,18,19
 985 1294 985 1294 974 1291 c 0,20,21
 947 1284 947 1284 910.5 1218 c 0,22,23
 874 1152 874 1152 868 1133 c 1,24,-1
 742 827 l 1,25,-1
 986 827 l 1,26,-1
 986 741 l 1,27,-1
 706 741 l 1,28,-1
 667 646 l 1,29,-1
 667 517 l 1,30,-1
 986 517 l 1,31,-1
 986 431 l 1,32,-1
 667 431 l 1,33,-1
 667 68 l 1,34,-1
 788 68 l 1,35,-1
 788 0 l 1,36,-1
 332 0 l 1,37,-1
 332 68 l 1,38,-1
 454 68 l 1,39,-1
 454 431 l 1,40,-1
 127 431 l 1,41,-1
 127 517 l 1,42,-1
 454 517 l 1,43,-1
 454 602 l 1,44,-1
 395 741 l 1,45,-1
 127 741 l 1,46,-1
 127 827 l 1,0,-1
EndSplineSet
EndChar

StartChar: brokenbar
Encoding: 166 166 104
Width: 1024
Flags: HW
LayerCount: 2
Fore
SplineSet
457 1365 m 1,0,-1
 566 1365 l 1,1,-1
 566 693 l 1,2,-1
 457 693 l 1,3,-1
 457 1365 l 1,0,-1
457 314 m 1,4,-1
 566 314 l 1,5,-1
 566 -341 l 1,6,-1
 457 -341 l 1,7,-1
 457 314 l 1,4,-1
EndSplineSet
EndChar

StartChar: section
Encoding: 167 167 105
Width: 973
Flags: HW
LayerCount: 2
Fore
SplineSet
618 1119 m 1,0,-1
 629 1206 l 1,1,2
 629 1241 629 1241 597 1265.5 c 128,-1,3
 565 1290 565 1290 494.5 1290 c 128,-1,4
 424 1290 424 1290 371.5 1248.5 c 128,-1,5
 319 1207 319 1207 319 1166.5 c 0,6,7
 319 1097.65217391 319 1097.65217391 361 1052 c 1,8,9
 398.844421699 1006.18833163 398.844421699 1006.18833163 557 919 c 1,10,11
 927 719 927 719 927 518 c 0,12,13
 927 439 927 439 877 371 c 128,-1,14
 827 303 827 303 705 230 c 1,15,16
 783.927007299 165.423357664 783.927007299 165.423357664 829 99 c 1,17,18
 862 43 862 43 862 -27 c 128,-1,19
 862 -97 862 -97 817.5 -159 c 128,-1,20
 773 -221 773 -221 685 -256.5 c 128,-1,21
 597 -292 597 -292 459 -292 c 128,-1,22
 321 -292 321 -292 232.5 -226.5 c 128,-1,23
 144 -161 144 -161 144 -76 c 0,24,25
 144 -28 144 -28 178.5 3.5 c 128,-1,26
 213 35 213 35 263 35 c 128,-1,27
 313 35 313 35 348 5.5 c 128,-1,28
 383 -24 383 -24 383 -52 c 128,-1,29
 383 -80 383 -80 370 -112.5 c 128,-1,30
 357 -145 357 -145 357 -166 c 128,-1,31
 357 -187 357 -187 389 -208 c 128,-1,32
 421 -229 421 -229 496 -229 c 128,-1,33
 571 -229 571 -229 622.5 -191 c 128,-1,34
 674 -153 674 -153 674 -96.5 c 128,-1,35
 674 -40 674 -40 641 1 c 1,36,37
 594 52 594 52 426 142 c 128,-1,38
 258 232 258 232 159.5 334.5 c 128,-1,39
 61 437 61 437 61 519 c 128,-1,40
 61 601 61 601 111 672 c 128,-1,41
 161 743 161 743 282 831 c 1,42,43
 125 944.186046512 125 944.186046512 125 1063.59302326 c 128,-1,44
 125 1183 125 1183 231.5 1267.5 c 128,-1,45
 338 1352 338 1352 497.5 1352 c 128,-1,46
 657 1352 657 1352 754 1283 c 128,-1,47
 851 1214 851 1214 851 1134 c 0,48,49
 851 1086 851 1086 816.5 1055 c 128,-1,50
 782 1024 782 1024 732 1024 c 256,51,52
 682 1024 682 1024 650 1052 c 128,-1,53
 618 1080 618 1080 618 1119 c 1,0,-1
338 791 m 1,54,55
 239 718 239 718 239 635 c 0,56,57
 239 592 239 592 269 545 c 1,58,59
 300 501 300 501 371 450 c 1,60,-1
 654 267 l 1,61,62
 710.875 315.125 710.875 315.125 725.9375 342.0625 c 0,63,64
 754 392.248962656 754 392.248962656 754 428.624481328 c 0,65,66
 754 516.012987013 754 516.012987013 616 611 c 1,67,-1
 338 791 l 1,54,55
EndSplineSet
EndChar

StartChar: dieresis
Encoding: 168 168 106
Width: 882
Flags: HW
LayerCount: 2
Fore
SplineSet
544 1106 m 1,0,-1
 614 1426 l 1,1,2
 747 1399 747 1399 855 1337 c 1,3,4
 711 1201 711 1201 544 1106 c 1,0,-1
259 1076 m 1,5,-1
 305 1445 l 1,6,7
 432 1414 432 1414 531 1359 c 1,8,9
 411 1206 411 1206 259 1076 c 1,5,-1
EndSplineSet
EndChar

StartChar: copyright
Encoding: 169 169 107
Width: 1311
Flags: HW
LayerCount: 2
Fore
SplineSet
620 974 m 256,0,1
 486 974 486 974 486 755 c 0,2,3
 486 681.6 486 681.6 501.5 613.8 c 128,-1,4
 517 546 517 546 534.5 512.5 c 128,-1,5
 552 479 552 479 574.5 452.5 c 0,6,7
 619.924528302 399 619.924528302 399 679.462264151 399 c 0,8,9
 795.875 399 795.875 399 845 530 c 1,10,-1
 847 539 l 1,11,-1
 889 539 l 1,12,-1
 911 540 l 1,13,-1
 902 519 l 1,14,15
 864 424 864 424 792.5 370 c 128,-1,16
 721 316 721 316 647.5 316 c 128,-1,17
 574 316 574 316 520 344 c 128,-1,18
 466 372 466 372 426.5 421.5 c 0,19,20
 340 529.898734177 340 529.898734177 340 676 c 0,21,22
 340 780.361702128 340 780.361702128 408.5 895.5 c 0,23,24
 490.898734177 1034 490.898734177 1034 629 1034 c 0,25,26
 703 1034 703 1034 775.5 984 c 0,27,28
 790 974 790 974 805.5 974 c 0,29,30
 838.275862069 974 838.275862069 974 860 1019 c 1,31,-1
 864 1025 l 1,32,-1
 924 1025 l 1,33,-1
 834 850 l 1,34,-1
 829 841 l 1,35,-1
 787 841 l 1,36,37
 755.454148472 946.152838428 755.454148472 946.152838428 681 967 c 0,38,39
 656 974 656 974 620 974 c 256,0,1
655 1181 m 0,40,41
 759 1181 759 1181 849.5 1141 c 128,-1,42
 940 1101 940 1101 1007.5 1033 c 0,43,44
 1152 887.42962963 1152 887.42962963 1152 676 c 0,45,46
 1152 465.140740741 1152 465.140740741 1007.5 318.5 c 0,47,48
 862.153284672 171 862.153284672 171 656 171 c 0,49,50
 447.846715328 171 447.846715328 171 302.5 318.5 c 0,51,52
 159 464.125925926 159 464.125925926 159 676 c 0,53,54
 159 884.311111111 159 884.311111111 302.5 1031 c 0,55,56
 449.239130435 1181 449.239130435 1181 655 1181 c 0,40,41
975 1000 m 0,57,58
 841 1136 841 1136 656 1136 c 0,59,60
 466.419354839 1136 466.419354839 1136 333.5 1002 c 0,61,62
 202 869.430894309 202 869.430894309 202 676 c 0,63,64
 202 491.495867769 202 491.495867769 330.5 354.5 c 0,65,66
 461.348837209 215 461.348837209 215 656 215 c 0,67,68
 843.666666667 215 843.666666667 215 973.5 348 c 0,69,70
 1107 484.756097561 1107 484.756097561 1107 676 c 0,71,72
 1107 770 1107 770 1071 855 c 128,-1,73
 1035 940 1035 940 975 1000 c 0,57,58
EndSplineSet
EndChar

StartChar: ordfeminine
Encoding: 170 170 108
Width: 609
Flags: HW
LayerCount: 2
Fore
SplineSet
24 1316 m 1,0,-1
 282 1525 l 1,1,-1
 574 1389 l 1,2,3
 522 1344 522 1344 521 1288 c 2,4,-1
 519 1069 l 2,5,6
 519 1047 519 1047 542.5 1018.5 c 128,-1,7
 566 990 566 990 587 973 c 1,8,-1
 453 835 l 1,9,-1
 351 940 l 1,10,11
 314 911 314 911 276.5 886 c 128,-1,12
 239 861 239 861 209 834 c 1,13,14
 110 871 110 871 24 948 c 1,15,16
 49 979 49 979 53 1039 c 1,17,-1
 51 1238 l 2,18,19
 51.1290322581 1240.70967742 51.1290322581 1240.70967742 51.1290322581 1243.39438085 c 0,20,21
 51.1290322581 1282.32258065 51.1290322581 1282.32258065 24 1316 c 1,0,-1
251 1367 m 1,22,23
 213 1309 213 1309 213 1264 c 2,24,-1
 213 1103 l 2,25,26
 213 1053 213 1053 229.5 1031.5 c 0,27,28
 246 1010 246 1010 258.5 993 c 128,-1,29
 271 976 271 976 300 968 c 1,30,-1
 354 1007 l 1,31,-1
 354 1311 l 1,32,-1
 251 1367 l 1,22,23
EndSplineSet
EndChar

StartChar: guillemotleft
Encoding: 171 171 109
Width: 1235
Flags: HW
LayerCount: 2
Fore
SplineSet
39 575 m 1,0,-1
 502 1063 l 1,1,-1
 668 958 l 1,2,-1
 367 580 l 1,3,-1
 668 193 l 1,4,-1
 502 88 l 1,5,-1
 39 575 l 1,0,-1
530 575 m 1,6,-1
 993 1063 l 1,7,-1
 1159 958 l 1,8,-1
 858 580 l 1,9,-1
 1159 193 l 1,10,-1
 993 88 l 1,11,-1
 530 575 l 1,6,-1
EndSplineSet
EndChar

StartChar: logicalnot
Encoding: 172 172 110
Width: 690
Flags: HW
LayerCount: 2
Fore
SplineSet
96 701 m 1,0,-1
 594 701 l 1,1,-1
 594 474 l 1,2,-1
 509 474 l 1,3,-1
 509 601 l 1,4,-1
 96 601 l 1,5,-1
 96 701 l 1,0,-1
EndSplineSet
EndChar

StartChar: uni00AD
Encoding: 173 173 111
Width: 690
Flags: HW
LayerCount: 2
Fore
SplineSet
96 701 m 1,0,-1
 591 701 l 1,1,-1
 591 601 l 1,2,-1
 96 601 l 1,3,-1
 96 701 l 1,0,-1
EndSplineSet
EndChar

StartChar: registered
Encoding: 174 174 112
Width: 1311
Flags: HW
LayerCount: 2
Fore
SplineSet
631.5 1186 m 0,0,1
 741 1186 741 1186 838 1146.5 c 128,-1,2
 935 1107 935 1107 1005.5 1040.5 c 0,3,4
 1159 895.709219858 1159 895.709219858 1159 691 c 128,-1,5
 1159 486.468085106 1159 486.468085106 1005.5 339.5 c 0,6,7
 854.577777778 195 854.577777778 195 632 195 c 0,8,9
 413.133333333 195 413.133333333 195 259 339.5 c 0,10,11
 106 482.9375 106 482.9375 106 691 c 0,12,13
 106 893.992957746 106 893.992957746 258 1038.5 c 0,14,15
 413.148148148 1186 413.148148148 1186 631.5 1186 c 0,0,1
555 676 m 1,16,-1
 676 676 l 1,17,18
 772 687 772 687 772 795 c 0,19,20
 772 804 772 804 771 813 c 128,-1,21
 770 822 770 822 767 853 c 128,-1,22
 764 884 764 884 754.5 912 c 128,-1,23
 745 940 745 940 726 953 c 0,24,25
 699.692307692 971 699.692307692 971 610 971 c 2,26,-1
 555 971 l 1,27,-1
 555 676 l 1,16,-1
904 462 m 1,28,29
 916 481 916 481 916 512 c 2,30,-1
 916 527 l 1,31,-1
 960 524 l 1,32,-1
 974 522 l 1,33,-1
 974 509 l 2,34,35
 974 426 974 426 945 378.5 c 128,-1,36
 916 331 916 331 847.5 331 c 128,-1,37
 779 331 779 331 735.5 370 c 128,-1,38
 692 409 692 409 684 455 c 128,-1,39
 676 501 676 501 671 528 c 128,-1,40
 666 555 666 555 658 575 c 0,41,42
 640.4 619 640.4 619 602 619 c 2,43,-1
 552 619 l 1,44,-1
 551 416 l 2,45,46
 551 409 551 409 570 402 c 128,-1,47
 589 395 589 395 596 395 c 2,48,-1
 612 395 l 1,49,-1
 612 339 l 1,50,-1
 340 339 l 1,51,-1
 340 395 l 1,52,-1
 356 395 l 2,53,54
 366 395 366 395 383.5 402 c 128,-1,55
 401 409 401 409 401 416 c 2,56,-1
 401 960 l 2,57,58
 401 962 401 962 385.5 966.5 c 128,-1,59
 370 971 370 971 356 971 c 2,60,-1
 340 971 l 1,61,-1
 340 1027 l 1,62,-1
 711 1027 l 1,63,64
 847.973751058 1018.69856054 847.973751058 1018.69856054 897 928 c 0,65,66
 917 891 917 891 917 836 c 0,67,68
 917 652 917 652 754 622 c 1,69,70
 782 602 782 602 794.5 572 c 128,-1,71
 807 542 807 542 816.5 515.5 c 128,-1,72
 826 489 826 489 838.5 469.5 c 128,-1,73
 851 450 851 450 872.5 450 c 128,-1,74
 894 450 894 450 904 462 c 1,28,29
971 1009 m 1,75,76
 830 1141 830 1141 632 1141 c 0,77,78
 430.951612903 1141 430.951612903 1141 291.5 1009 c 0,79,80
 151 876.007633588 151 876.007633588 151 691 c 0,81,82
 151 509.834645669 151 509.834645669 288.5 374.5 c 128,-1,83
 426.168 239 426.168 239 632 239 c 0,84,85
 830.983606557 239 830.983606557 239 969.5 368 c 0,86,87
 1114 502.572519084 1114 502.572519084 1114 686.520634542 c 128,-1,88
 1114 870.46875 1114 870.46875 971 1009 c 1,75,76
EndSplineSet
EndChar

StartChar: macron
Encoding: 175 175 113
Width: 690
Flags: HW
LayerCount: 2
Fore
SplineSet
88 1413 m 1,0,-1
 583 1413 l 1,1,-1
 583 1313 l 1,2,-1
 88 1313 l 1,3,-1
 88 1413 l 1,0,-1
EndSplineSet
EndChar

StartChar: degree
Encoding: 176 176 114
Width: 683
Flags: HW
LayerCount: 2
Fore
SplineSet
274 1512 m 0,0,1
 302.231404959 1537.91735537 302.231404959 1537.91735537 336.202479339 1537.91735537 c 128,-1,2
 370.173553719 1537.91735537 370.173553719 1537.91735537 411 1503 c 0,3,4
 661.983546618 1281.71297989 661.983546618 1281.71297989 661.983546618 1070.06152556 c 0,5,6
 661.983546618 841.903062906 661.983546618 841.903062906 406 609 c 0,7,8
 363.5 571.5 363.5 571.5 324 571.5 c 128,-1,9
 284.5 571.5 284.5 571.5 248 609 c 0,10,11
 27.8186695279 835.013948498 27.8186695279 835.013948498 27.8186695279 1060.95225322 c 128,-1,12
 27.8186695279 1286.89055794 27.8186695279 1286.89055794 274 1512 c 0,0,1
188 1308 m 0,13,14
 143.727659574 1278.91914894 143.727659574 1278.91914894 143.727659574 1207.65744681 c 128,-1,15
 143.727659574 1136.39574468 143.727659574 1136.39574468 219 1000 c 0,16,17
 318.508305648 818.086378738 318.508305648 818.086378738 402.303142349 818.086378738 c 0,18,19
 426.295681063 818.086378738 426.295681063 818.086378738 449 833 c 0,20,21
 494.532188841 862.618025751 494.532188841 862.618025751 494.532188841 934.577253219 c 128,-1,22
 494.532188841 1006.53648069 494.532188841 1006.53648069 422 1141 c 1,23,24
 321.409836066 1323.60983607 321.409836066 1323.60983607 236.386412255 1323.60983607 c 0,25,26
 211.527868852 1323.60983607 211.527868852 1323.60983607 188 1308 c 0,13,14
EndSplineSet
EndChar

StartChar: plusminus
Encoding: 177 177 115
Width: 1024
Flags: HW
LayerCount: 2
Fore
SplineSet
430 311 m 1,0,-1
 430 596 l 1,1,-1
 106 596 l 1,2,-1
 106 752 l 1,3,-1
 430 752 l 1,4,-1
 430 1018 l 1,5,-1
 598 1018 l 1,6,-1
 598 752 l 1,7,-1
 920 752 l 1,8,-1
 920 596 l 1,9,-1
 598 596 l 1,10,-1
 598 311 l 1,11,-1
 430 311 l 1,0,-1
920 166 m 1,12,-1
 920 10 l 1,13,-1
 106 10 l 1,14,-1
 106 166 l 1,15,-1
 920 166 l 1,12,-1
EndSplineSet
EndChar

StartChar: uni00B2
Encoding: 178 178 116
Width: 723
Flags: HW
LayerCount: 2
Fore
SplineSet
668 922 m 1,0,1
 657.813953488 859.186046512 657.813953488 859.186046512 617 630 c 1,2,3
 476.555555556 651.333333333 476.555555556 651.333333333 401.111111111 651.333333333 c 0,4,5
 186.037037037 651.333333333 186.037037037 651.333333333 13 630 c 1,6,7
 220.655723159 822.461401952 220.655723159 822.461401952 326.632306024 960.506256532 c 128,-1,8
 432.608888889 1098.55111111 432.608888889 1098.55111111 432.608888889 1193.45054815 c 0,9,10
 432.608888889 1294.02012346 432.608888889 1294.02012346 285 1375 c 0,11,12
 264.178082192 1385.95890411 264.178082192 1385.95890411 249.287671233 1385.95890411 c 128,-1,13
 234.397260274 1385.95890411 234.397260274 1385.95890411 224 1378.5 c 0,14,15
 201 1362 201 1362 218.5 1321.5 c 128,-1,16
 236 1281 236 1281 274.5 1254.5 c 128,-1,17
 313 1228 313 1228 350 1207 c 1,18,19
 316 1159 316 1159 282 1112.5 c 128,-1,20
 248 1066 248 1066 215 1020 c 1,21,22
 62.2647058824 1154.45008285 62.2647058824 1154.45008285 62.2647058824 1237.0779826 c 128,-1,23
 62.2647058824 1319.70588235 62.2647058824 1319.70588235 174.282352941 1436.91960784 c 128,-1,24
 286.3 1554.13333333 286.3 1554.13333333 359.96 1554.13333333 c 0,25,26
 435.534099617 1554.13333333 435.534099617 1554.13333333 540.44886799 1456.7030303 c 128,-1,27
 645.363636364 1359.27272727 645.363636364 1359.27272727 645.363636364 1264.25206612 c 0,28,29
 645.363636364 1209.95454545 645.363636364 1209.95454545 609 1158.5 c 0,30,31
 509 1017 509 1017 347 849 c 1,32,-1
 466.222222222 848.333333333 l 2,33,34
 496 848.333333333 496 848.333333333 526 849 c 0,35,36
 609 850 609 850 643 940 c 1,37,38
 651 933 651 933 668 922 c 1,0,1
EndSplineSet
EndChar

StartChar: uni00B3
Encoding: 179 179 117
Width: 678
Flags: HW
LayerCount: 2
Fore
SplineSet
472 1277 m 1,0,1
 647.846153846 1120.45403377 647.846153846 1120.45403377 647.846153846 971.384615385 c 0,2,3
 647.846153846 845.846153846 647.846153846 845.846153846 518.127755286 742.841205578 c 128,-1,4
 388.409356725 639.83625731 388.409356725 639.83625731 276.436441982 639.83625731 c 0,5,6
 247.619883041 639.83625731 247.619883041 639.83625731 220.5 647 c 0,7,8
 88 682 88 682 13 842 c 1,9,10
 57 890 57 890 101 937.5 c 128,-1,11
 145 985 145 985 189 1034 c 1,12,13
 218 843 218 843 292 773.5 c 0,14,15
 324.447949527 743.025236593 324.447949527 743.025236593 363.859621451 743.025236593 c 128,-1,16
 403.271293375 743.025236593 403.271293375 743.025236593 451 793 c 256,17,18
 495.875776398 839.98757764 495.875776398 839.98757764 495.875776398 884.355590062 c 128,-1,19
 495.875776398 928.723602484 495.875776398 928.723602484 460 970.5 c 0,20,21
 384 1059 384 1059 222 1122 c 1,22,23
 304.142857143 1218.92857143 304.142857143 1218.92857143 413 1355 c 1,24,25
 333.070175439 1365.14035088 333.070175439 1365.14035088 281.728070175 1365.14035088 c 128,-1,26
 230.385964912 1365.14035088 230.385964912 1365.14035088 197.5 1360.5 c 0,27,28
 116 1349 116 1349 117 1280 c 1,29,-1
 73 1300 l 1,30,31
 96 1385 96 1385 115.5 1458 c 128,-1,32
 135 1531 135 1531 158 1616 c 1,33,34
 262 1535 262 1535 395.5 1530.5 c 128,-1,35
 529 1526 529 1526 666 1523 c 1,36,37
 488.293333333 1298.14666667 488.293333333 1298.14666667 472 1277 c 1,0,1
EndSplineSet
EndChar

StartChar: acute
Encoding: 180 180 118
Width: 1420
Flags: HW
LayerCount: 2
Fore
SplineSet
1149 1351 m 1,0,1
 1148.66666667 1367.33333333 1148.66666667 1367.33333333 1148.66666667 1415.91666667 c 0,2,3
 1148.66666667 1575.41666667 1148.66666667 1575.41666667 1199 1739 c 1,4,-1
 1429 1702 l 1,5,-1
 1149 1351 l 1,0,1
EndSplineSet
EndChar

StartChar: uni00B5
Encoding: 181 181 119
Width: 983
Flags: HW
LayerCount: 2
Fore
SplineSet
45 890 m 1,0,-1
 196 1080 l 1,1,-1
 197 1079 l 1,2,-1
 198 1080 l 1,3,-1
 421 975 l 1,4,-1
 381 825 l 1,5,-1
 381 815 l 1,6,-1
 368 409 l 2,7,8
 366 361 366 361 404.5 308.5 c 0,9,10
 415.698060942 293.229916898 415.698060942 293.229916898 436.159690303 293.229916898 c 0,11,12
 486.047091413 293.229916898 486.047091413 293.229916898 591 384 c 1,13,-1
 598 794 l 2,14,15
 598 842 598 842 524 890 c 1,16,-1
 675 1080 l 1,17,-1
 899 975 l 1,18,19
 888 934 888 934 873.5 895 c 128,-1,20
 859 856 859 856 859 815 c 1,21,-1
 845 409 l 2,22,23
 844.878787879 405.787878788 844.878787879 405.787878788 844.878787879 402.651056015 c 0,24,25
 844.878787879 354.03030303 844.878787879 354.03030303 874.939393939 322.515151515 c 0,26,27
 905 291 905 291 944 275 c 1,28,-1
 744 31 l 1,29,-1
 526 221 l 1,30,-1
 283 43 l 1,31,32
 228 -131 228 -131 121 -395 c 1,33,34
 89 -364 89 -364 15 -346 c 1,35,36
 80 -111 80 -111 96.5 171.5 c 128,-1,37
 113 454 113 454 116 620 c 2,38,-1
 119 794 l 2,39,40
 119 842 119 842 45 890 c 1,0,-1
EndSplineSet
EndChar

StartChar: paragraph
Encoding: 182 182 120
Width: 1575
Flags: HW
LayerCount: 2
Fore
SplineSet
1297 254 m 0,0,1
 1297 229 1297 229 1323 229 c 1,2,3
 1433 235 1433 235 1483 248 c 1,4,5
 1506 252 1506 252 1525 239 c 1,6,7
 1543 224 1543 224 1543 201 c 2,8,-1
 1543 186 l 2,9,10
 1543 146 1543 146 1504 138 c 0,11,12
 1447 127 1447 127 1313 120 c 1,13,14
 1291 120 1291 120 1289.5 87 c 128,-1,15
 1288 54 1288 54 1286 17.5 c 128,-1,16
 1284 -19 1284 -19 1283 -48 c 1,17,18
 1279 -93 1279 -93 1233 -93 c 128,-1,19
 1187 -93 1187 -93 1186 -47 c 1,20,21
 1182 -4 1182 -4 1179 92 c 1,22,23
 1177 116 1177 116 1147 115 c 128,-1,24
 1117 114 1117 114 1080.5 114 c 2,25,-1
 1009 114 l 2,26,27
 985 114 985 114 983.5 81.5 c 128,-1,28
 982 49 982 49 980.5 14 c 128,-1,29
 979 -21 979 -21 977 -48 c 0,30,31
 975 -93 975 -93 928 -93 c 128,-1,32
 881 -93 881 -93 880 -47 c 1,33,34
 877 4 877 4 874 91 c 1,35,36
 872 114 872 114 849 114 c 256,37,38
 810 114 810 114 771 114 c 0,39,40
 468 114 468 114 254.5 299.5 c 128,-1,41
 41 485 41 485 41 746.5 c 128,-1,42
 41 1008 41 1008 254.5 1193.5 c 128,-1,43
 468 1379 468 1379 771 1379 c 0,44,45
 783.5 1379 783.5 1379 795.25 1379 c 0,46,47
 820 1379 820 1379 820 1405 c 1,48,49
 815 1454 815 1454 813 1472.5 c 128,-1,50
 811 1491 811 1491 828.105263158 1505.92105263 c 128,-1,51
 845.210526316 1520.84210526 845.210526316 1520.84210526 863.783933518 1520.84210526 c 1,52,-1
 934.07133059 1512.74074074 l 1,53,-1
 997.3125 1520.25 l 1,54,55
 1014 1520.25 1014 1520.25 1030.5 1506.125 c 128,-1,56
 1047 1492 1047 1492 1044.5 1462.5 c 128,-1,57
 1042 1433 1042 1433 1040.5 1415 c 128,-1,58
 1039 1397 1039 1397 1047 1388.5 c 128,-1,59
 1055 1380 1055 1380 1069 1380 c 2,60,-1
 1101 1380 l 2,61,62
 1111 1380 1111 1380 1118 1387.5 c 128,-1,63
 1125 1395 1125 1395 1124 1409 c 128,-1,64
 1123 1423 1123 1423 1122 1438.5 c 128,-1,65
 1121 1454 1121 1454 1119.5 1473 c 128,-1,66
 1118 1492 1118 1492 1134.10526316 1506.42105263 c 128,-1,67
 1150.21052632 1520.84210526 1150.21052632 1520.84210526 1168.78393352 1520.84210526 c 1,68,-1
 1239.83950617 1512.74074074 l 1,69,-1
 1302.9375 1520.25 l 1,70,71
 1319.25 1520.25 1319.25 1520.25 1335 1509 c 1,72,73
 1352 1492 1352 1492 1350 1465 c 128,-1,74
 1348 1438 1348 1438 1345.5 1405 c 128,-1,75
 1343 1372 1343 1372 1367 1371 c 1,76,77
 1422 1366 1422 1366 1461.5 1359 c 128,-1,78
 1501 1352 1501 1352 1501 1311 c 2,79,-1
 1501 1308 l 2,80,81
 1501 1285 1501 1285 1481.5 1270 c 128,-1,82
 1462 1255 1462 1255 1435 1261.5 c 0,83,84
 1359.48962656 1279.67842324 1359.48962656 1279.67842324 1345 1267 c 256,85,86
 1337 1260 1337 1260 1337 1250 c 0,87,88
 1325 1040 1325 1040 1315.5 760.5 c 128,-1,89
 1306 481 1306 481 1297 254 c 0,0,1
1032 1261 m 1,90,91
 1027.5915493 1183.11737089 1027.5915493 1183.11737089 991 248 c 0,92,93
 991 237 991 237 998.5 229.5 c 128,-1,94
 1006 222 1006 222 1025.5 222 c 2,95,-1
 1079 222 l 2,96,97
 1158.125 222 1158.125 222 1165.5625 230 c 128,-1,98
 1173 238 1173 238 1173 248 c 0,99,100
 1164 478 1164 478 1154.5 763.5 c 128,-1,101
 1145 1049 1145 1049 1134 1261 c 0,102,103
 1132 1282 1132 1282 1113.5 1283 c 128,-1,104
 1095 1284 1095 1284 1081.5 1284 c 2,105,-1
 1056 1284 l 1,106,107
 1032 1282 1032 1282 1032 1261 c 1,90,91
797 1267 m 1,108,109
 710 1237 710 1237 654.5 1124.5 c 128,-1,110
 599 1012 599 1012 599 736.5 c 128,-1,111
 599 461 599 461 667.5 353 c 128,-1,112
 736 245 736 245 839 228 c 0,113,114
 841.727272727 227.181818182 841.727272727 227.181818182 844.454545455 227.181818182 c 1,115,-1
 859 233 l 1,116,117
 867.1 239.3 867.1 239.3 867.1 250.46 c 2,118,-1
 848.5 756.5 l 2,119,120
 839 1035 839 1035 829 1245 c 0,121,122
 829 1255 829 1255 819 1264 c 1,123,124
 811.666666667 1268 811.666666667 1268 804.333333333 1268 c 2,125,-1
 797 1267 l 1,108,109
EndSplineSet
EndChar

StartChar: periodcentered
Encoding: 183 183 121
Width: 507
Flags: HW
LayerCount: 2
Fore
SplineSet
254 1164 m 1,0,-1
 494 924 l 1,1,-1
 254 684 l 1,2,-1
 14 924 l 1,3,-1
 254 1164 l 1,0,-1
EndSplineSet
EndChar

StartChar: cedilla
Encoding: 184 184 122
Width: 1024
Flags: HW
LayerCount: 2
Fore
SplineSet
555 0 m 1,0,-1
 623 0 l 1,1,-1
 524 -154 l 1,2,3
 578 -139 578 -139 635 -139 c 128,-1,4
 692 -139 692 -139 744.5 -177.5 c 128,-1,5
 797 -216 797 -216 797 -280 c 0,6,7
 797 -371 797 -371 708 -411 c 0,8,9
 647 -439 647 -439 565.5 -439 c 0,10,11
 406 -439 406 -439 322 -403 c 1,12,-1
 342 -358 l 1,13,14
 398 -377 398 -377 458 -377 c 0,15,16
 593 -377 593 -377 593 -285 c 0,17,18
 593 -249 593 -249 568.5 -230.5 c 128,-1,19
 544 -212 544 -212 512 -212 c 128,-1,20
 480 -212 480 -212 455 -225 c 1,21,-1
 425 -196 l 1,22,-1
 555 0 l 1,0,-1
EndSplineSet
EndChar

StartChar: uni00B9
Encoding: 185 185 123
Width: 486
Flags: HW
LayerCount: 2
Fore
SplineSet
94 647 m 1,0,1
 261.689922481 663.124031008 261.689922481 663.124031008 261.689922481 1114.34372934 c 0,2,3
 261.689922481 1215.00775194 261.689922481 1215.00775194 252 1334 c 1,4,-1
 11 1336 l 1,5,-1
 1 1390 l 1,6,7
 257 1441 257 1441 462 1595 c 1,8,-1
 453 684 l 1,9,10
 309.114383562 678.799315068 309.114383562 678.799315068 133 593 c 1,11,-1
 94 647 l 1,0,1
EndSplineSet
EndChar

StartChar: ordmasculine
Encoding: 186 186 124
Width: 570
Flags: HW
LayerCount: 2
Fore
SplineSet
53 1338 m 1,0,1
 206.669064748 1441.24640288 206.669064748 1441.24640288 308 1524 c 1,2,3
 359 1503 359 1503 411 1447 c 0,4,5
 523.081588448 1326.2967509 523.081588448 1326.2967509 542.5 1196.5 c 0,6,7
 544.728395062 1181.60493827 544.728395062 1181.60493827 544.728395062 1153.08024691 c 128,-1,8
 544.728395062 1124.55555556 544.728395062 1124.55555556 521 1097 c 1,9,-1
 302 818 l 1,10,-1
 19 957 l 1,11,12
 64 1049.64705882 64 1049.64705882 64 1119 c 2,13,-1
 63 1272 l 1,14,15
 61 1320 61 1320 53 1338 c 1,0,1
230 1361 m 1,16,-1
 228 1080 l 1,17,18
 234 1048 234 1048 274.05 1030 c 128,-1,19
 314.1 1012 314.1 1012 326.95 1012 c 128,-1,20
 339.8 1012 339.8 1012 344 1013 c 0,21,22
 402.247191011 1025.94382022 402.247191011 1025.94382022 402.247191011 1086.00896351 c 0,23,24
 402.247191011 1100.19101124 402.247191011 1100.19101124 399 1117 c 0,25,26
 357.671405229 1312.86160131 357.671405229 1312.86160131 230 1361 c 1,16,-1
EndSplineSet
EndChar

StartChar: guillemotright
Encoding: 187 187 125
Width: 1235
Flags: HW
LayerCount: 2
Fore
SplineSet
733 88 m 1,0,-1
 567 193 l 1,1,-1
 868 580 l 1,2,-1
 567 958 l 1,3,-1
 733 1063 l 1,4,-1
 1196 575 l 1,5,-1
 733 88 l 1,0,-1
242 88 m 1,6,-1
 76 193 l 1,7,-1
 377 580 l 1,8,-1
 76 958 l 1,9,-1
 242 1063 l 1,10,-1
 705 575 l 1,11,-1
 242 88 l 1,6,-1
EndSplineSet
EndChar

StartChar: onequarter
Encoding: 188 188 126
Width: 1412
Flags: HW
LayerCount: 2
Fore
SplineSet
138 647 m 1,0,1
 305.689922481 663.124031008 305.689922481 663.124031008 305.689922481 1114.34372934 c 0,2,3
 305.689922481 1215.00775194 305.689922481 1215.00775194 296 1334 c 1,4,-1
 55 1336 l 1,5,-1
 45 1390 l 1,6,7
 301 1441 301 1441 506 1595 c 1,8,-1
 497 684 l 1,9,10
 353.114383562 678.799315068 353.114383562 678.799315068 177 593 c 1,11,-1
 138 647 l 1,0,1
1055 429 m 1,12,13
 1055.28571429 443 1055.28571429 443 1055.28571429 477.071428571 c 128,-1,14
 1055.28571429 511.142857143 1055.28571429 511.142857143 1046 617 c 1,15,-1
 1250 843 l 1,16,17
 1233 609 1233 609 1230 440 c 1,18,19
 1285 445 1285 445 1346 457 c 1,20,-1
 1341 257 l 1,21,-1
 1232 259 l 1,22,23
 1236 139 1236 139 1250 63 c 1,24,25
 1136.92571429 51.36 1136.92571429 51.36 955 3 c 1,26,27
 1016 119 1016 119 1040 262 c 1,28,-1
 717 267 l 1,29,-1
 1015 967 l 1,30,-1
 1271 975 l 1,31,32
 1026 723 1026 723 890 433 c 1,33,34
 959 428.5 959 428.5 997.875 428.5 c 128,-1,35
 1036.75 428.5 1036.75 428.5 1055 429 c 1,12,13
257 -70 m 2,36,37
 236.619047619 -70 236.619047619 -70 236.619047619 -49.2494331066 c 0,38,39
 236.619047619 -44.2380952381 236.619047619 -44.2380952381 239 -39 c 2,40,-1
 988 1415 l 1,41,42
 992 1425 992 1425 1005 1425 c 2,43,-1
 1076 1425 l 2,44,45
 1098 1425 1098 1425 1098 1406.125 c 0,46,47
 1098 1401.5 1098 1401.5 1095 1397 c 2,48,-1
 349 -59 l 1,49,50
 344.6 -70 344.6 -70 333 -70 c 2,51,-1
 257 -70 l 2,36,37
EndSplineSet
EndChar

StartChar: onehalf
Encoding: 189 189 127
Width: 1535
Flags: HW
LayerCount: 2
Fore
SplineSet
144 647 m 1,0,1
 311.689922481 663.124031008 311.689922481 663.124031008 311.689922481 1114.34372934 c 0,2,3
 311.689922481 1215.00775194 311.689922481 1215.00775194 302 1334 c 1,4,-1
 61 1336 l 1,5,-1
 51 1390 l 1,6,7
 307 1441 307 1441 512 1595 c 1,8,-1
 503 684 l 1,9,10
 359.114383562 678.799315068 359.114383562 678.799315068 183 593 c 1,11,-1
 144 647 l 1,0,1
257 -70 m 2,12,13
 236.619047619 -70 236.619047619 -70 236.619047619 -49.2494331066 c 0,14,15
 236.619047619 -44.2380952381 236.619047619 -44.2380952381 239 -39 c 2,16,-1
 988 1415 l 1,17,18
 992 1425 992 1425 1005 1425 c 2,19,-1
 1076 1425 l 2,20,21
 1089 1425 1089 1425 1095 1415.5 c 128,-1,22
 1101 1406 1101 1406 1095 1397 c 1,23,-1
 349 -59 l 1,24,25
 344.6 -70 344.6 -70 333 -70 c 2,26,-1
 257 -70 l 2,12,13
1401 291 m 1,27,28
 1390.81395349 228.186046512 1390.81395349 228.186046512 1350 -1 c 1,29,30
 1209.55555556 20.3333333333 1209.55555556 20.3333333333 1134.11111111 20.3333333333 c 0,31,32
 919.037037037 20.3333333333 919.037037037 20.3333333333 746 -1 c 1,33,34
 953.655723159 191.461401952 953.655723159 191.461401952 1059.63230602 329.506256532 c 128,-1,35
 1165.60888889 467.551111111 1165.60888889 467.551111111 1165.60888889 562.450548148 c 0,36,37
 1165.60888889 663.020123457 1165.60888889 663.020123457 1018 744 c 0,38,39
 997.178082192 754.95890411 997.178082192 754.95890411 982.287671233 754.95890411 c 128,-1,40
 967.397260274 754.95890411 967.397260274 754.95890411 957 747.5 c 0,41,42
 934 731 934 731 951.5 690.5 c 128,-1,43
 969 650 969 650 1007.5 623.5 c 128,-1,44
 1046 597 1046 597 1083 576 c 1,45,46
 1049 528 1049 528 1015 481.5 c 128,-1,47
 981 435 981 435 948 389 c 1,48,49
 795.264705882 523.45008285 795.264705882 523.45008285 795.264705882 606.077982601 c 128,-1,50
 795.264705882 688.705882353 795.264705882 688.705882353 907.282352941 805.919607843 c 128,-1,51
 1019.3 923.133333333 1019.3 923.133333333 1092.96 923.133333333 c 0,52,53
 1168.53409962 923.133333333 1168.53409962 923.133333333 1273.44886799 825.703030303 c 128,-1,54
 1378.36363636 728.272727273 1378.36363636 728.272727273 1378.36363636 633.252066116 c 0,55,56
 1378.36363636 578.954545455 1378.36363636 578.954545455 1342 527.5 c 0,57,58
 1242 386 1242 386 1080 218 c 1,59,-1
 1199.22222222 217.333333333 l 2,60,61
 1229 217.333333333 1229 217.333333333 1259 218 c 0,62,63
 1342 219 1342 219 1376 309 c 1,64,65
 1384 302 1384 302 1401 291 c 1,27,28
EndSplineSet
EndChar

StartChar: threequarters
Encoding: 190 190 128
Width: 1446
Flags: HW
LayerCount: 2
Fore
SplineSet
1081 429 m 1,0,1
 1081.28571429 443 1081.28571429 443 1081.28571429 477.071428571 c 128,-1,2
 1081.28571429 511.142857143 1081.28571429 511.142857143 1072 617 c 1,3,-1
 1276 843 l 1,4,5
 1259 609 1259 609 1256 440 c 1,6,7
 1311 445 1311 445 1372 457 c 1,8,-1
 1367 257 l 1,9,-1
 1258 259 l 1,10,11
 1262 139 1262 139 1276 63 c 1,12,13
 1162.92571429 51.36 1162.92571429 51.36 981 3 c 1,14,15
 1042 119 1042 119 1066 262 c 1,16,-1
 743 267 l 1,17,-1
 1041 967 l 1,18,-1
 1297 975 l 1,19,20
 1052 723 1052 723 916 433 c 1,21,22
 985 428.5 985 428.5 1023.875 428.5 c 128,-1,23
 1062.75 428.5 1062.75 428.5 1081 429 c 1,0,1
1136 1425 m 2,24,25
 1158 1425 1158 1425 1158 1406.125 c 0,26,27
 1158 1401.5 1158 1401.5 1155 1397 c 2,28,-1
 409 -59 l 1,29,30
 404.6 -70 404.6 -70 393 -70 c 2,31,-1
 317 -70 l 2,32,33
 305 -70 305 -70 299.5 -60 c 128,-1,34
 294 -50 294 -50 299 -39 c 2,35,-1
 1048 1415 l 1,36,37
 1052 1425 1052 1425 1065 1425 c 2,38,-1
 1136 1425 l 2,24,25
532 1277 m 1,39,40
 707.846153846 1120.45403377 707.846153846 1120.45403377 707.846153846 971.384615385 c 0,41,42
 707.846153846 845.846153846 707.846153846 845.846153846 578.127755286 742.841205578 c 128,-1,43
 448.409356725 639.83625731 448.409356725 639.83625731 336.436441982 639.83625731 c 0,44,45
 307.619883041 639.83625731 307.619883041 639.83625731 280.5 647 c 0,46,47
 148 682 148 682 73 842 c 1,48,49
 117 890 117 890 161 937.5 c 128,-1,50
 205 985 205 985 249 1034 c 1,51,52
 278 843 278 843 352 773.5 c 0,53,54
 384.447949527 743.025236593 384.447949527 743.025236593 423.859621451 743.025236593 c 128,-1,55
 463.271293375 743.025236593 463.271293375 743.025236593 511 793 c 256,56,57
 555.875776398 839.98757764 555.875776398 839.98757764 555.875776398 884.355590062 c 128,-1,58
 555.875776398 928.723602484 555.875776398 928.723602484 520 970.5 c 0,59,60
 444 1059 444 1059 282 1122 c 1,61,62
 364.142857143 1218.92857143 364.142857143 1218.92857143 473 1355 c 1,63,64
 393.070175439 1365.14035088 393.070175439 1365.14035088 341.728070175 1365.14035088 c 128,-1,65
 290.385964912 1365.14035088 290.385964912 1365.14035088 257.5 1360.5 c 0,66,67
 176 1349 176 1349 177 1280 c 1,68,-1
 133 1300 l 1,69,70
 156 1385 156 1385 175.5 1458 c 128,-1,71
 195 1531 195 1531 218 1616 c 1,72,73
 322 1535 322 1535 455.5 1530.5 c 128,-1,74
 589 1526 589 1526 726 1523 c 1,75,76
 548.293333333 1298.14666667 548.293333333 1298.14666667 532 1277 c 1,39,40
EndSplineSet
EndChar

StartChar: questiondown
Encoding: 191 191 129
Width: 546
Flags: HW
LayerCount: 2
Fore
SplineSet
265 680 m 1,0,-1
 59 885 l 1,1,-1
 265 1091 l 1,2,-1
 471 885 l 1,3,-1
 265 680 l 1,0,-1
74 415 m 1,4,-1
 290 650 l 1,5,6
 411 598 411 598 497 457 c 1,7,8
 242.795389049 98.3746397695 242.795389049 98.3746397695 242.795389049 -67.9489614564 c 0,9,10
 242.795389049 -95.9495677233 242.795389049 -95.9495677233 250 -118.5 c 0,11,12
 300 -275 300 -275 529 -288 c 1,13,-1
 246 -570 l 1,14,15
 80 -478 80 -478 46 -315.5 c 0,16,17
 40.3883495146 -288.67961165 40.3883495146 -288.67961165 40.3883495146 -258.304269959 c 0,18,19
 40.3883495146 -104.640776699 40.3883495146 -104.640776699 184 140 c 0,20,21
 250.72327044 254.660377358 250.72327044 254.660377358 250.72327044 301.701257862 c 128,-1,22
 250.72327044 348.742138365 250.72327044 348.742138365 231 366 c 0,23,24
 175 415 175 415 74 415 c 1,4,-1
EndSplineSet
EndChar

StartChar: Agrave
Encoding: 192 192 130
Width: 1420
Flags: HW
LayerCount: 2
Fore
SplineSet
226 1052 m 1,0,1
 410 1144 410 1144 565 1282 c 128,-1,2
 720 1420 720 1420 866 1562 c 1,3,4
 1047 1385 1047 1385 1146.5 1319.5 c 128,-1,5
 1246 1254 1246 1254 1384 1205 c 1,6,7
 1361 1169 1361 1169 1328 1142 c 128,-1,8
 1295 1115 1295 1115 1274 1080 c 1,9,10
 1266 1061 1266 1061 1266 1026 c 2,11,-1
 1266 972 l 1,12,-1
 1274 436 l 1,13,14
 1276 371 1276 371 1297 355 c 2,15,-1
 1399 272 l 1,16,-1
 1222 31 l 1,17,-1
 994 225 l 1,18,19
 1015 386.538461538 1015 386.538461538 1015 636 c 1,20,-1
 641 636 l 1,21,22
 604 282 604 282 425 36 c 128,-1,23
 246 -210 246 -210 104 -349 c 1,24,25
 52.5 -313.763157895 52.5 -313.763157895 27 -299 c 1,26,27
 144 -178 144 -178 201.5 -22 c 128,-1,28
 259 134 259 134 293.521126761 281.929577465 c 128,-1,29
 328.042253521 429.85915493 328.042253521 429.85915493 328.042253521 530.521126761 c 128,-1,30
 328.042253521 631.183098592 328.042253521 631.183098592 317 714 c 0,31,32
 289 924 289 924 226 1052 c 1,0,1
405 1680 m 1,33,34
 455.333333333 1516.41666667 455.333333333 1516.41666667 455.333333333 1324.52777778 c 0,35,36
 455.333333333 1308.33333333 455.333333333 1308.33333333 455 1292 c 1,37,-1
 175 1643 l 1,38,-1
 405 1680 l 1,33,34
1011 871 m 1,39,40
 1009.33333333 956 1009.33333333 956 1009.33333333 1000.33333333 c 128,-1,41
 1009.33333333 1044.66666667 1009.33333333 1044.66666667 1010 1080 c 1,42,43
 902.696 1155.744 902.696 1155.744 765 1214 c 1,44,45
 754.6875 1215.26041667 754.6875 1215.26041667 745.353135851 1215.26041667 c 0,46,47
 673.223958333 1215.26041667 673.223958333 1215.26041667 659.5 1140 c 0,48,49
 648.325581395 1078.72093023 648.325581395 1078.72093023 648.325581395 1000.53488372 c 128,-1,50
 648.325581395 922.348837209 648.325581395 922.348837209 650 871 c 1,51,-1
 1011 871 l 1,39,40
EndSplineSet
EndChar

StartChar: Atilde
Encoding: 195 195 133
Width: 1405
Flags: HW
LayerCount: 2
Fore
SplineSet
1144 1842 m 1,0,-1
 1380 1628 l 1,1,2
 1329 1506 1329 1506 1189 1419 c 1,3,4
 840.494382022 1661.79775281 840.494382022 1661.79775281 713.985023987 1661.79775281 c 0,5,6
 687.306179775 1661.79775281 687.306179775 1661.79775281 670.5 1651 c 0,7,8
 574 1589 574 1589 563 1360 c 1,9,-1
 279 1640 l 1,10,11
 386.88525186 1837.98722045 386.88525186 1837.98722045 572.829987037 1837.98722045 c 0,12,13
 704.52715655 1837.98722045 704.52715655 1837.98722045 869 1730 c 1,14,15
 983.548895899 1664.35962145 983.548895899 1664.35962145 1030.88012618 1664.35962145 c 128,-1,16
 1078.21135647 1664.35962145 1078.21135647 1664.35962145 1095.5 1684.5 c 0,17,18
 1144 1741 1144 1741 1144 1842 c 1,0,-1
226 1052 m 1,19,20
 410 1144 410 1144 565 1282 c 128,-1,21
 720 1420 720 1420 866 1562 c 1,22,23
 1047 1385 1047 1385 1146.5 1319.5 c 128,-1,24
 1246 1254 1246 1254 1384 1205 c 1,25,26
 1361 1169 1361 1169 1328 1142 c 128,-1,27
 1295 1115 1295 1115 1274 1080 c 1,28,29
 1266 1061 1266 1061 1266 1026 c 2,30,-1
 1266 972 l 1,31,-1
 1274 436 l 1,32,33
 1276 371 1276 371 1297 355 c 2,34,-1
 1399 272 l 1,35,-1
 1222 31 l 1,36,-1
 994 225 l 1,37,38
 1015 386.538461538 1015 386.538461538 1015 636 c 1,39,-1
 641 636 l 1,40,41
 604 282 604 282 425 36 c 128,-1,42
 246 -210 246 -210 104 -349 c 1,43,44
 52.5 -313.763157895 52.5 -313.763157895 27 -299 c 1,45,46
 144 -178 144 -178 201.5 -22 c 128,-1,47
 259 134 259 134 293.521126761 281.929577465 c 128,-1,48
 328.042253521 429.85915493 328.042253521 429.85915493 328.042253521 530.521126761 c 128,-1,49
 328.042253521 631.183098592 328.042253521 631.183098592 317 714 c 0,50,51
 289 924 289 924 226 1052 c 1,19,20
1011 871 m 1,52,53
 1009.33333333 956 1009.33333333 956 1009.33333333 1000.33333333 c 128,-1,54
 1009.33333333 1044.66666667 1009.33333333 1044.66666667 1010 1080 c 1,55,56
 902.696 1155.744 902.696 1155.744 765 1214 c 1,57,58
 754.6875 1215.26041667 754.6875 1215.26041667 745.353135851 1215.26041667 c 0,59,60
 673.223958333 1215.26041667 673.223958333 1215.26041667 659.5 1140 c 0,61,62
 648.325581395 1078.72093023 648.325581395 1078.72093023 648.325581395 1000.53488372 c 128,-1,63
 648.325581395 922.348837209 648.325581395 922.348837209 650 871 c 1,64,-1
 1011 871 l 1,52,53
EndSplineSet
EndChar

StartChar: Adieresis
Encoding: 196 196 134
Width: 1420
Flags: HW
LayerCount: 2
Fore
SplineSet
226 1052 m 1,0,1
 410 1144 410 1144 565 1282 c 128,-1,2
 720 1420 720 1420 866 1562 c 1,3,4
 1047 1385 1047 1385 1146.5 1319.5 c 128,-1,5
 1246 1254 1246 1254 1384 1205 c 1,6,7
 1361 1169 1361 1169 1328 1142 c 128,-1,8
 1295 1115 1295 1115 1274 1080 c 1,9,10
 1266 1061 1266 1061 1266 1026 c 2,11,-1
 1266 972 l 1,12,-1
 1274 436 l 1,13,14
 1276 371 1276 371 1297 355 c 2,15,-1
 1399 272 l 1,16,-1
 1222 31 l 1,17,-1
 994 225 l 1,18,19
 1015 386.538461538 1015 386.538461538 1015 636 c 1,20,-1
 641 636 l 1,21,22
 604 282 604 282 425 36 c 128,-1,23
 246 -210 246 -210 104 -349 c 1,24,25
 52.5 -313.763157895 52.5 -313.763157895 27 -299 c 1,26,27
 144 -178 144 -178 201.5 -22 c 128,-1,28
 259 134 259 134 293.521126761 281.929577465 c 128,-1,29
 328.042253521 429.85915493 328.042253521 429.85915493 328.042253521 530.521126761 c 128,-1,30
 328.042253521 631.183098592 328.042253521 631.183098592 317 714 c 0,31,32
 289 924 289 924 226 1052 c 1,0,1
351 1202 m 1,33,-1
 440 1542 l 1,34,-1
 722 1489 l 1,35,36
 544 1317 544 1317 351 1202 c 1,33,-1
1370 1265 m 1,37,38
 1176.5336199 1351.95118207 1176.5336199 1351.95118207 1040 1475 c 1,39,-1
 1304 1535 l 1,40,-1
 1370 1265 l 1,37,38
1011 871 m 1,41,42
 1009.33333333 956 1009.33333333 956 1009.33333333 1000.33333333 c 128,-1,43
 1009.33333333 1044.66666667 1009.33333333 1044.66666667 1010 1080 c 1,44,45
 902.696 1155.744 902.696 1155.744 765 1214 c 1,46,47
 754.6875 1215.26041667 754.6875 1215.26041667 745.353135851 1215.26041667 c 0,48,49
 673.223958333 1215.26041667 673.223958333 1215.26041667 659.5 1140 c 0,50,51
 648.325581395 1078.72093023 648.325581395 1078.72093023 648.325581395 1000.53488372 c 128,-1,52
 648.325581395 922.348837209 648.325581395 922.348837209 650 871 c 1,53,-1
 1011 871 l 1,41,42
EndSplineSet
EndChar

